{
.appVersion = "1060";
DisplayStrings = (
OCPRI/Placeholder
);
classes = (
{
automatic = 1;

glyphs = (
{
color = 3;
glyphname = A;
lastChange = "2017-09-12 13:03:44 +0000";
layers = (
{
anchors = (
{
name = bottom;
position = "{292, 0}";
},
{
name = ogonek;
position = "{627, 0}";
},
{
name = top;
position = "{432, 700}";
},
{
name = topleft;
position = "{194, 700}";
}
);
background = {
anchors = (
{
name = bottom;
position = "{292, 0}";
},
{
name = ogonek;
position = "{627, 0}";
},
{
name = top;
position = "{432, 700}";
},
{
name = topleft;
position = "{194, 700}";
}
);
paths = (
{
closed = 1;
nodes = (
"-20 0 LINE",
"434 684 LINE",
"424 684 LINE",
"604 0 LINE",
"627 0 LINE",
"442 700 LINE",
"422 700 LINE",
"-43 0 LINE"
);
},
{
closed = 1;
nodes = (
"561 211 LINE",
"555 230 LINE",
"120 230 LINE",
"106 211 LINE"
);
}
);
};
layerId = UUID0;
paths = (
{
closed = 1;
nodes = (
"-20 0 LINE",
"434 684 LINE",
"424 684 LINE",
"604 0 LINE",
"627 0 LINE",
"442 700 LINE",
"422 700 LINE",
"-43 0 LINE"
);
},
{
closed = 1;
nodes = (
"561 211 LINE",
"555 230 LINE",
"120 230 LINE",
"106 211 LINE"
);
}
);
width = 688;
},
{
anchors = (
{
name = bottom;
position = "{348, 0}";
},
{
name = ogonek;
position = "{770, 0}";
},
{
name = top;
position = "{488, 700}";
},
{
name = topleft;
position = "{206, 701}";
}
);
background = {
anchors = (
{
name = bottom;
position = "{348, 0}";
},
{
name = ogonek;
position = "{770, 0}";
},
{
name = top;
position = "{488, 700}";
},
{
name = topleft;
position = "{206, 701}";
}
);
paths = (
{
closed = 1;
nodes = (
"166 0 LINE",
"509 588 LINE",
"417 588 LINE",
"526 0 LINE",
"770 0 LINE",
"604 700 LINE",
"372 700 LINE",
"-74 0 LINE"
);
},
{
closed = 1;
nodes = (
"574 122 LINE",
"548 292 LINE",
"226 292 LINE",
"132 122 LINE"
);
}
);
};
guideLines = (
{
angle = 245.556;
position = "{-113, 56}";
}
);
layerId = "5DA6E103-6A94-47F2-987D-4952DB8EA68E";
paths = (
{
closed = 1;
nodes = (
"175 0 LINE",
"514 591 LINE",
"422 591 LINE",
"535 0 LINE",
"770 0 LINE",
"604 700 LINE",
"372 700 LINE",
"-74 0 LINE"
);
},
{
closed = 1;
nodes = (
"574 122 LINE",
"548 292 LINE",
"226 292 LINE",
"132 122 LINE"
);
}
);
width = 806;
}
);
leftKerningGroup = A;
rightKerningGroup = A;
rightMetricsKey = "=|";
unicode = 0041;
},
{
color = 3;
glyphname = B;
lastChange = "2017-09-12 13:13:45 +0000";
layers = (
{
anchors = (
{
name = bottom;
position = "{325, 0}";
},
{
name = top;
position = "{465, 700}";
}
);
background = {
anchors = (
{
name = bottom;
position = "{325, 0}";
},
{
name = top;
position = "{465, 700}";
}
);
paths = (
{
closed = 1;
nodes = (
"378 0 LINE SMOOTH",
"548 0 OFFCURVE",
"644 65 OFFCURVE",
"668 183 CURVE SMOOTH",
"691 301 OFFCURVE",
"623 363 OFFCURVE",
"462 363 CURVE",
"442 350 LINE",
"572 350 OFFCURVE",
"674 406 OFFCURVE",
"698 523 CURVE SMOOTH",
"721 640 OFFCURVE",
"642 700 OFFCURVE",
"498 700 CURVE SMOOTH",
"221 700 LINE",
"81 0 LINE"
);
},
{
closed = 1;
nodes = (
"170 346 LINE",
"451 346 LINE SMOOTH",
"600 346 OFFCURVE",
"670 296 OFFCURVE",
"648 183 CURVE SMOOTH",
"625 70 OFFCURVE",
"535 19 OFFCURVE",
"386 19 CURVE SMOOTH",
"105 19 LINE"
);
},
{
closed = 1;
nodes = (
"237 681 LINE",
"498 681 LINE SMOOTH",
"631 681 OFFCURVE",
"698 627 OFFCURVE",
"678 523 CURVE SMOOTH",
"657 419 OFFCURVE",
"568 365 OFFCURVE",
"435 365 CURVE SMOOTH",
"174 365 LINE"
);
}
);
};
layerId = UUID0;
paths = (
{
closed = 1;
nodes = (
"378 0 LINE SMOOTH",
"548 0 OFFCURVE",
"644 65 OFFCURVE",
"668 183 CURVE SMOOTH",
"691 301 OFFCURVE",
"623 363 OFFCURVE",
"462 363 CURVE",
"442 350 LINE",
"572 350 OFFCURVE",
"674 406 OFFCURVE",
"698 523 CURVE SMOOTH",
"721 640 OFFCURVE",
"642 700 OFFCURVE",
"498 700 CURVE SMOOTH",
"221 700 LINE",
"81 0 LINE"
);
},
{
closed = 1;
nodes = (
"237 681 LINE",
"498 681 LINE SMOOTH",
"631 681 OFFCURVE",
"698 627 OFFCURVE",
"678 523 CURVE SMOOTH",
"657 419 OFFCURVE",
"568 365 OFFCURVE",
"435 365 CURVE SMOOTH",
"169 365 LINE",
"165 346 LINE",
"451 346 LINE SMOOTH",
"600 346 OFFCURVE",
"670 296 OFFCURVE",
"648 183 CURVE SMOOTH",
"625 70 OFFCURVE",
"535 19 OFFCURVE",
"386 19 CURVE SMOOTH",
"105 19 LINE"
);
}
);
width = 748;
},
{
anchors = (
{
name = bottom;
position = "{327, 0}";
},
{
name = top;
position = "{467, 700}";
}
);
background = {
anchors = (
{
name = bottom;
position = "{1127, 0}";
},
{
name = top;
position = "{1267, 700}";
}
);
paths = (
{
closed = 1;
nodes = (
"1196 0 LINE SMOOTH",
"1389 0 OFFCURVE",
"1506 71 OFFCURVE",
"1531 193 CURVE SMOOTH",
"1556 315 OFFCURVE",
"1466 387 OFFCURVE",
"1303 387 CURVE",
"1273 333 LINE",
"1436 333 OFFCURVE",
"1541 411 OFFCURVE",
"1562 517 CURVE SMOOTH",
"1583 623 OFFCURVE",
"1509 700 OFFCURVE",
"1316 700 CURVE SMOOTH",
"942 700 LINE",
"802 0 LINE"
);
},
{
closed = 1;
nodes = (
"1089 275 LINE",
"1231 275 LINE SMOOTH",
"1283 275 OFFCURVE",
"1305 256 OFFCURVE",
"1298 220 CURVE SMOOTH",
"1291 184 OFFCURVE",
"1261 165 OFFCURVE",
"1209 165 CURVE SMOOTH",
"1067 165 LINE"
);
},
{
closed = 1;
nodes = (
"1141 535 LINE",
"1251 535 LINE SMOOTH",
"1304 535 OFFCURVE",
"1324 517 OFFCURVE",
"1318 483 CURVE SMOOTH",
"1312 449 OFFCURVE",
"1283 431 OFFCURVE",
"1230 431 CURVE SMOOTH",
"1120 431 LINE"
);
},
{
closed = 1;
nodes = (
"406 0 LINE SMOOTH",
"594 0 OFFCURVE",
"705 68 OFFCURVE",
"729 183 CURVE SMOOTH",
"754 309 OFFCURVE",
"664 385 OFFCURVE",
"503 385 CURVE",
"473 331 LINE",
"640 331 OFFCURVE",
"739 401 OFFCURVE",
"760 507 CURVE SMOOTH",
"783 623 OFFCURVE",
"699 700 OFFCURVE",
"513 700 CURVE SMOOTH",
"142 700 LINE",
"2 0 LINE"
);
},
{
closed = 1;
nodes = (
"341 535 LINE",
"446 535 LINE SMOOTH",
"502 535 OFFCURVE",
"524 517 OFFCURVE",
"517 480 CURVE SMOOTH",
"511 449 OFFCURVE",
"487 431 OFFCURVE",
"430 431 CURVE SMOOTH",
"304 431 LINE",
"273 275 LINE",
"431 275 LINE SMOOTH",
"477 275 OFFCURVE",
"505 256 OFFCURVE",
"498 218 CURVE SMOOTH",
"491 184 OFFCURVE",
"466 165 OFFCURVE",
"409 165 CURVE SMOOTH",
"267 165 LINE"
);
}
);
};
layerId = "5DA6E103-6A94-47F2-987D-4952DB8EA68E";
paths = (
{
closed = 1;
nodes = (
"406 0 LINE SMOOTH",
"585 0 OFFCURVE",
"733 68 OFFCURVE",
"733 223 CURVE SMOOTH",
"733 325 OFFCURVE",
"646 385 OFFCURVE",
"503 385 CURVE",
"473 331 LINE",
"643 331 OFFCURVE",
"764 403 OFFCURVE",
"764 533 CURVE SMOOTH",
"764 639 OFFCURVE",
"679 700 OFFCURVE",
"513 700 CURVE SMOOTH",
"142 700 LINE",
"2 0 LINE"
);
},
{
closed = 1;
nodes = (
"341 535 LINE",
"456 535 LINE SMOOTH",
"495 535 OFFCURVE",
"518 521 OFFCURVE",
"518 492 CURVE SMOOTH",
"518 454 OFFCURVE",
"494 431 OFFCURVE",
"440 431 CURVE SMOOTH",
"304 431 LINE",
"273 275 LINE",
"441 275 LINE SMOOTH",
"472 275 OFFCURVE",
"499 260 OFFCURVE",
"499 229 CURVE SMOOTH",
"499 186 OFFCURVE",
"465 165 OFFCURVE",
"419 165 CURVE SMOOTH",
"267 165 LINE"
);
}
);
width = 773;
}
);
leftKerningGroup = H;
leftMetricsKey = H;
rightKerningGroup = B;
unicode = 0042;
},
{
color = 3;
glyphname = C;
lastChange = "2017-09-12 14:35:40 +0000";
layers = (
{
anchors = (
{
name = bottom;
position = "{356, 0}";
},
{
name = top;
position = "{496, 700}";
}
);
background = {
anchors = (
{
name = bottom;
position = "{356, 0}";
},
{
name = top;
position = "{496, 700}";
}
);
paths = (
{
closed = 1;
nodes = (
"457 -3 OFFCURVE",
"549 27 OFFCURVE",
"621 87 CURVE",
"612 101 LINE",
"536 40 OFFCURVE",
"454 16 OFFCURVE",
"369 16 CURVE SMOOTH",
"176 16 OFFCURVE",
"59 161 OFFCURVE",
"97 350 CURVE SMOOTH",
"135 539 OFFCURVE",
"310 684 OFFCURVE",
"503 684 CURVE SMOOTH",
"588 684 OFFCURVE",
"660 661 OFFCURVE",
"712 600 CURVE",
"727 614 LINE",
"679 674 OFFCURVE",
"598 703 OFFCURVE",
"506 703 CURVE SMOOTH",
"301 703 OFFCURVE",
"117 552 OFFCURVE",
"77 350 CURVE SMOOTH",
"37 148 OFFCURVE",
"160 -3 OFFCURVE",
"365 -3 CURVE SMOOTH"
);
}
);
};
layerId = UUID0;
paths = (
{
closed = 1;
nodes = (
"457 -3 OFFCURVE",
"549 27 OFFCURVE",
"621 87 CURVE",
"612 101 LINE",
"536 40 OFFCURVE",
"454 16 OFFCURVE",
"369 16 CURVE SMOOTH",
"176 16 OFFCURVE",
"59 161 OFFCURVE",
"97 350 CURVE SMOOTH",
"135 539 OFFCURVE",
"310 684 OFFCURVE",
"503 684 CURVE SMOOTH",
"588 684 OFFCURVE",
"660 661 OFFCURVE",
"712 600 CURVE",
"727 614 LINE",
"679 674 OFFCURVE",
"598 703 OFFCURVE",
"506 703 CURVE SMOOTH",
"301 703 OFFCURVE",
"117 552 OFFCURVE",
"77 350 CURVE SMOOTH",
"37 148 OFFCURVE",
"160 -3 OFFCURVE",
"365 -3 CURVE SMOOTH"
);
}
);
width = 711;
},
{
anchors = (
{
name = bottom;
position = "{337, 0}";
},
{
name = top;
position = "{503, 701}";
}
);
background = {
anchors = (
{
name = bottom;
position = "{1237, 0}";
},
{
name = top;
position = "{1403, 701}";
}
);
paths = (
{
closed = 1;
nodes = (
"1398 -16 OFFCURVE",
"1516 34 OFFCURVE",
"1603 124 CURVE",
"1480 257 LINE",
"1429 205 OFFCURVE",
"1374 175 OFFCURVE",
"1311 175 CURVE SMOOTH",
"1213 175 OFFCURVE",
"1161 243 OFFCURVE",
"1182 350 CURVE SMOOTH",
"1203 457 OFFCURVE",
"1283 525 OFFCURVE",
"1381 525 CURVE SMOOTH",
"1444 525 OFFCURVE",
"1487 495 OFFCURVE",
"1518 443 CURVE",
"1693 576 LINE",
"1642 666 OFFCURVE",
"1544 716 OFFCURVE",
"1407 716 CURVE SMOOTH",
"1182 716 OFFCURVE",
"987 565 OFFCURVE",
"944 350 CURVE SMOOTH",
"901 135 OFFCURVE",
"1036 -16 OFFCURVE",
"1261 -16 CURVE SMOOTH"
);
},
{
closed = 1;
nodes = (
"653 -16 OFFCURVE",
"837 156 OFFCURVE",
"837 403 CURVE SMOOTH",
"837 587 OFFCURVE",
"700 716 OFFCURVE",
"482 716 CURVE SMOOTH",
"225 716 OFFCURVE",
"41 544 OFFCURVE",
"41 297 CURVE SMOOTH",
"41 113 OFFCURVE",
"178 -16 OFFCURVE",
"396 -16 CURVE SMOOTH"
);
},
{
closed = 1;
nodes = (
"330 175 OFFCURVE",
"279 230 OFFCURVE",
"279 311 CURVE SMOOTH",
"279 426 OFFCURVE",
"346 525 OFFCURVE",
"462 525 CURVE SMOOTH",
"548 525 OFFCURVE",
"599 470 OFFCURVE",
"599 389 CURVE SMOOTH",
"599 274 OFFCURVE",
"532 175 OFFCURVE",
"416 175 CURVE SMOOTH"
);
}
);
};
layerId = "5DA6E103-6A94-47F2-987D-4952DB8EA68E";
paths = (
{
closed = 1;
nodes = (
"529 -16 OFFCURVE",
"633 19 OFFCURVE",
"718 123 CURVE",
"579 256 LINE",
"531 198 OFFCURVE",
"478 175 OFFCURVE",
"423 175 CURVE SMOOTH",
"336 175 OFFCURVE",
"279 230 OFFCURVE",
"279 312 CURVE SMOOTH",
"279 437 OFFCURVE",
"357 525 OFFCURVE",
"468 525 CURVE SMOOTH",
"532 525 OFFCURVE",
"578 495 OFFCURVE",
"608 443 CURVE",
"778 576 LINE",
"727 666 OFFCURVE",
"617 716 OFFCURVE",
"483 716 CURVE SMOOTH",
"224 716 OFFCURVE",
"41 543 OFFCURVE",
"41 297 CURVE SMOOTH",
"41 111 OFFCURVE",
"183 -16 OFFCURVE",
"400 -16 CURVE SMOOTH"
);
}
);
width = 744;
}
);
leftKerningGroup = O;
leftMetricsKey = O;
rightKerningGroup = C;
unicode = 0043;
},
{
color = 3;
glyphname = D;
lastChange = "2017-09-12 14:25:23 +0000";
layers = (
{
anchors = (
{
name = bottom;
position = "{344, 0}";
},
{
name = center;
position = "{219, 356}";
},
{
name = top;
position = "{479, 699}";
}
);
background = {
anchors = (
{
name = bottom;
position = "{344, 0}";
},
{
name = center;
position = "{219, 356}";
},
{
name = top;
position = "{479, 699}";
}
);
paths = (
{
closed = 1;
nodes = (
"346 0 LINE SMOOTH",
"567 0 OFFCURVE",
"745 148 OFFCURVE",
"785 350 CURVE SMOOTH",
"825 552 OFFCURVE",
"707 700 OFFCURVE",
"486 700 CURVE SMOOTH",
"221 700 LINE",
"81 0 LINE"
);
},
{
closed = 1;
nodes = (
"237 681 LINE",
"480 681 LINE SMOOTH",
"694 681 OFFCURVE",
"803 541 OFFCURVE",
"765 350 CURVE SMOOTH",
"727 159 OFFCURVE",
"562 19 OFFCURVE",
"348 19 CURVE SMOOTH",
"105 19 LINE"
);
}
);
};
layerId = UUID0;
paths = (
{
closed = 1;
nodes = (
"346 0 LINE SMOOTH",
"567 0 OFFCURVE",
"745 148 OFFCURVE",
"785 350 CURVE SMOOTH",
"825 552 OFFCURVE",
"707 700 OFFCURVE",
"486 700 CURVE SMOOTH",
"221 700 LINE",
"81 0 LINE"
);
},
{
closed = 1;
nodes = (
"237 681 LINE",
"480 681 LINE SMOOTH",
"694 681 OFFCURVE",
"803 541 OFFCURVE",
"765 350 CURVE SMOOTH",
"727 159 OFFCURVE",
"562 19 OFFCURVE",
"348 19 CURVE SMOOTH",
"105 19 LINE"
);
}
);
width = 826;
},
{
anchors = (
{
name = bottom;
position = "{304, 0}";
},
{
name = center;
position = "{222, 355}";
},
{
name = top;
position = "{442, 700}";
}
);
background = {
anchors = (
{
name = bottom;
position = "{1306, 0}";
},
{
name = center;
position = "{1222, 355}";
},
{
name = top;
position = "{1444, 700}";
}
);
paths = (
{
closed = 1;
nodes = (
"1347 0 LINE SMOOTH",
"1581 0 OFFCURVE",
"1769 133 OFFCURVE",
"1812 350 CURVE SMOOTH",
"1855 567 OFFCURVE",
"1721 700 OFFCURVE",
"1487 700 CURVE SMOOTH",
"1142 700 LINE",
"1002 0 LINE"
);
},
{
closed = 1;
nodes = (
"1341 516 LINE",
"1440 516 LINE SMOOTH",
"1539 516 OFFCURVE",
"1595 457 OFFCURVE",
"1574 350 CURVE SMOOTH",
"1553 243 OFFCURVE",
"1473 184 OFFCURVE",
"1374 184 CURVE SMOOTH",
"1275 184 LINE"
);
},
{
closed = 1;
nodes = (
"631 -16 OFFCURVE",
"815 156 OFFCURVE",
"815 403 CURVE SMOOTH",
"815 587 OFFCURVE",
"678 716 OFFCURVE",
"460 716 CURVE SMOOTH",
"203 716 OFFCURVE",
"19 544 OFFCURVE",
"19 297 CURVE SMOOTH",
"19 113 OFFCURVE",
"156 -16 OFFCURVE",
"374 -16 CURVE SMOOTH"
);
},
{
closed = 1;
nodes = (
"308 175 OFFCURVE",
"257 230 OFFCURVE",
"257 311 CURVE SMOOTH",
"257 426 OFFCURVE",
"324 525 OFFCURVE",
"440 525 CURVE SMOOTH",
"526 525 OFFCURVE",
"577 470 OFFCURVE",
"577 389 CURVE SMOOTH",
"577 274 OFFCURVE",
"510 175 OFFCURVE",
"394 175 CURVE SMOOTH"
);
}
);
};
layerId = "5DA6E103-6A94-47F2-987D-4952DB8EA68E";
paths = (
{
closed = 1;
nodes = (
"377 0 LINE SMOOTH",
"632 0 OFFCURVE",
"815 156 OFFCURVE",
"815 403 CURVE SMOOTH",
"815 587 OFFCURVE",
"679 700 OFFCURVE",
"458 700 CURVE SMOOTH",
"142 700 LINE",
"2 0 LINE"
);
},
{
closed = 1;
nodes = (
"341 516 LINE",
"431 516 LINE SMOOTH",
"526 516 OFFCURVE",
"577 470 OFFCURVE",
"577 389 CURVE SMOOTH",
"577 274 OFFCURVE",
"510 184 OFFCURVE",
"385 184 CURVE SMOOTH",
"275 184 LINE"
);
}
);
width = 826;
}
);
leftKerningGroup = H;
leftMetricsKey = H;
rightKerningGroup = O;
rightMetricsKey = O;
unicode = 0044;
},
{
color = 3;
glyphname = E;
lastChange = "2017-09-12 14:25:19 +0000";
layers = (
{
anchors = (
{
name = bottom;
position = "{324, 0}";
},
{
name = ogonek;
position = "{547, 0}";
},
{
name = top;
position = "{447, 700}";
},
{
name = topleft;
position = "{129, 700}";
}
);
background = {
anchors = (
{
name = bottom;
position = "{324, 0}";
},
{
name = ogonek;
position = "{547, 0}";
},
{
name = top;
position = "{447, 700}";
},
{
name = topleft;
position = "{129, 700}";
}
);
paths = (
{
closed = 1;
nodes = (
"547 0 LINE",
"551 19 LINE",
"105 19 LINE",
"170 346 LINE",
"556 346 LINE",
"560 365 LINE",
"174 365 LINE",
"237 681 LINE",
"668 681 LINE",
"672 700 LINE",
"221 700 LINE",
"81 0 LINE"
);
}
);
};
layerId = UUID0;
paths = (
{
closed = 1;
nodes = (
"165 346 LINE",
"556 346 LINE",
"560 365 LINE",
"169 365 LINE"
);
},
{
closed = 1;
nodes = (
"237 681 LINE",
"668 681 LINE",
"672 700 LINE",
"221 700 LINE",
"81 0 LINE",
"547 0 LINE",
"551 19 LINE",
"105 19 LINE"
);
}
);
width = 668;
},
{
anchors = (
{
name = bottom;
position = "{287, 0}";
},
{
name = ogonek;
position = "{584, 0}";
},
{
name = top;
position = "{427, 700}";
},
{
name = topleft;
position = "{76, 700}";
}
);
background = {
anchors = (
{
name = bottom;
position = "{287, 0}";
},
{
name = ogonek;
position = "{584, 0}";
},
{
name = top;
position = "{427, 700}";
},
{
name = topleft;
position = "{76, 700}";
}
);
paths = (
{
closed = 1;
nodes = (
"584 0 LINE",
"620 178 LINE",
"270 178 LINE",
"288 270 LINE",
"584 270 LINE",
"618 440 LINE",
"322 440 LINE",
"338 522 LINE",
"675 522 LINE",
"711 700 LINE",
"142 700 LINE",
"2 0 LINE"
);
}
);
};
layerId = "5DA6E103-6A94-47F2-987D-4952DB8EA68E";
paths = (
{
closed = 1;
nodes = (
"272 270 LINE",
"584 270 LINE",
"618 440 LINE",
"306 440 LINE"
);
},
{
closed = 1;
nodes = (
"338 522 LINE",
"675 522 LINE",
"711 700 LINE",
"142 700 LINE",
"2 0 LINE",
"584 0 LINE",
"620 178 LINE",
"269 178 LINE"
);
}
);
width = 673;
}
);
leftKerningGroup = H;
leftMetricsKey = H;
rightKerningGroup = E;
unicode = 0045;
},
{
color = 3;
glyphname = F;
lastChange = "2017-09-12 14:26:14 +0000";
layers = (
{
background = {
paths = (
{
closed = 1;
nodes = (
"101 0 LINE",
"166 326 LINE",
"552 326 LINE",
"556 345 LINE",
"170 345 LINE",
"237 681 LINE",
"668 681 LINE",
"672 700 LINE",
"221 700 LINE",
"81 0 LINE"
);
}
);
};
layerId = UUID0;
paths = (
{
closed = 1;
nodes = (
"161 326 LINE",
"552 326 LINE",
"556 345 LINE",
"165 345 LINE"
);
},
{
closed = 1;
nodes = (
"237 681 LINE",
"668 681 LINE",
"672 700 LINE",
"221 700 LINE",
"81 0 LINE",
"101 0 LINE"
);
}
);
width = 629;
},
{
background = {
paths = (
{
closed = 1;
nodes = (
"238 0 LINE",
"283 224 LINE",
"575 224 LINE",
"610 402 LINE",
"318 402 LINE",
"342 522 LINE",
"675 522 LINE",
"711 700 LINE",
"142 700 LINE",
"2 0 LINE"
);
}
);
};
layerId = "5DA6E103-6A94-47F2-987D-4952DB8EA68E";
paths = (
{
closed = 1;
nodes = (
"267 224 LINE",
"574 224 LINE",
"610 402 LINE",
"302 402 LINE"
);
},
{
closed = 1;
nodes = (
"342 522 LINE",
"675 522 LINE",
"711 700 LINE",
"142 700 LINE",
"2 0 LINE",
"238 0 LINE"
);
}
);
width = 644;
}
);
leftKerningGroup = H;
leftMetricsKey = H;
rightKerningGroup = F;
unicode = 0046;
},
{
color = 3;
glyphname = G;
lastChange = "2017-09-12 14:36:35 +0000";
layers = (
{
anchors = (
{
name = bottom;
position = "{350, 0}";
},
{
name = top;
position = "{490, 699}";
}
);
background = {
anchors = (
{
name = bottom;
position = "{350, 0}";
},
{
name = top;
position = "{490, 699}";
}
);
paths = (
{
closed = 1;
nodes = (
"463 -3 OFFCURVE",
"555 27 OFFCURVE",
"627 87 CURVE",
"618 102 LINE",
"545 40 OFFCURVE",
"460 16 OFFCURVE",
"372 16 CURVE SMOOTH",
"176 16 OFFCURVE",
"59 161 OFFCURVE",
"97 350 CURVE SMOOTH",
"135 539 OFFCURVE",
"310 684 OFFCURVE",
"506 684 CURVE SMOOTH",
"594 684 OFFCURVE",
"666 661 OFFCURVE",
"718 600 CURVE",
"733 614 LINE",
"685 674 OFFCURVE",
"604 703 OFFCURVE",
"509 703 CURVE SMOOTH",
"301 703 OFFCURVE",
"117 552 OFFCURVE",
"77 350 CURVE SMOOTH",
"37 148 OFFCURVE",
"160 -3 OFFCURVE",
"368 -3 CURVE SMOOTH"
);
},
{
closed = 1;
nodes = (
"627 87 LINE",
"679 343 LINE",
"660 343 LINE",
"608 87 LINE"
);
}
);
};
layerId = UUID0;
paths = (
{
closed = 1;
nodes = (
"463 -3 OFFCURVE",
"555 27 OFFCURVE",
"627 87 CURVE",
"618 102 LINE",
"545 40 OFFCURVE",
"460 16 OFFCURVE",
"372 16 CURVE SMOOTH",
"176 16 OFFCURVE",
"59 161 OFFCURVE",
"97 350 CURVE SMOOTH",
"135 539 OFFCURVE",
"310 684 OFFCURVE",
"506 684 CURVE SMOOTH",
"594 684 OFFCURVE",
"666 661 OFFCURVE",
"718 600 CURVE",
"733 614 LINE",
"685 674 OFFCURVE",
"604 703 OFFCURVE",
"509 703 CURVE SMOOTH",
"301 703 OFFCURVE",
"117 552 OFFCURVE",
"77 350 CURVE SMOOTH",
"37 148 OFFCURVE",
"160 -3 OFFCURVE",
"368 -3 CURVE SMOOTH"
);
},
{
closed = 1;
nodes = (
"627 87 LINE",
"679 343 LINE",
"660 343 LINE",
"608 87 LINE"
);
}
);
width = 774;
},
{
anchors = (
{
name = bottom;
position = "{355, 0}";
},
{
name = top;
position = "{509, 701}";
}
);
background = {
anchors = (
{
name = bottom;
position = "{1155, 0}";
},
{
name = top;
position = "{1309, 701}";
}
);
paths = (
{
closed = 1;
nodes = (
"465 -16 OFFCURVE",
"588 15 OFFCURVE",
"685 73 CURVE",
"585 235 LINE",
"519 191 OFFCURVE",
"467 175 OFFCURVE",
"414 175 CURVE SMOOTH",
"313 175 OFFCURVE",
"261 245 OFFCURVE",
"282 350 CURVE SMOOTH",
"304 458 OFFCURVE",
"383 525 OFFCURVE",
"487 525 CURVE SMOOTH",
"549 525 OFFCURVE",
"595 499 OFFCURVE",
"629 448 CURVE",
"806 581 LINE",
"752 668 OFFCURVE",
"651 716 OFFCURVE",
"513 716 CURVE SMOOTH",
"282 716 OFFCURVE",
"87 565 OFFCURVE",
"44 350 CURVE SMOOTH",
"1 135 OFFCURVE",
"136 -16 OFFCURVE",
"362 -16 CURVE SMOOTH"
);
},
{
closed = 1;
nodes = (
"685 73 LINE",
"744 369 LINE",
"539 369 LINE",
"486 103 LINE"
);
}
);
};
layerId = "5DA6E103-6A94-47F2-987D-4952DB8EA68E";
paths = (
{
closed = 1;
nodes = (
"511 -16 OFFCURVE",
"610 14 OFFCURVE",
"684 67 CURVE",
"595 235 LINE",
"539 191 OFFCURVE",
"486 175 OFFCURVE",
"433 175 CURVE SMOOTH",
"336 175 OFFCURVE",
"279 230 OFFCURVE",
"279 312 CURVE SMOOTH",
"279 437 OFFCURVE",
"357 525 OFFCURVE",
"480 525 CURVE SMOOTH",
"546 525 OFFCURVE",
"595 506 OFFCURVE",
"640 448 CURVE",
"809 579 LINE",
"743 669 OFFCURVE",
"638 716 OFFCURVE",
"491 716 CURVE SMOOTH",
"224 716 OFFCURVE",
"41 543 OFFCURVE",
"41 297 CURVE SMOOTH",
"41 111 OFFCURVE",
"183 -16 OFFCURVE",
"400 -16 CURVE SMOOTH"
);
},
{
closed = 1;
nodes = (
"684 67 LINE",
"744 369 LINE",
"539 369 LINE",
"486 103 LINE"
);
}
);
width = 769;
}
);
leftKerningGroup = O;
leftMetricsKey = O;
rightKerningGroup = G;
unicode = 0047;
},
{
color = 3;
glyphname = H;
lastChange = "2017-09-12 14:37:55 +0000";
layers = (
{
anchors = (
{
name = bottom;
position = "{356, 0}";
},
{
name = center;
position = "{464, 538}";
},
{
name = top;
position = "{496, 700}";
}
);
background = {
anchors = (
{
name = bottom;
position = "{356, 0}";
},
{
name = center;
position = "{464, 538}";
},
{
name = top;
position = "{496, 700}";
}
);
paths = (
{
closed = 1;
nodes = (
"101 0 LINE",
"170 346 LINE",
"680 346 LINE",
"611 0 LINE",
"631 0 LINE",
"771 700 LINE",
"751 700 LINE",
"684 365 LINE",
"174 365 LINE",
"241 700 LINE",
"221 700 LINE",
"81 0 LINE"
);
}
);
};
layerId = UUID0;
paths = (
{
closed = 1;
nodes = (
"611 0 LINE",
"631 0 LINE",
"771 700 LINE",
"751 700 LINE"
);
},
{
closed = 1;
nodes = (
"241 700 LINE",
"221 700 LINE",
"81 0 LINE",
"101 0 LINE"
);
},
{
closed = 1;
nodes = (
"689 365 LINE",
"169 365 LINE",
"165 346 LINE",
"685 346 LINE"
);
}
);
width = 816;
},
{
anchors = (
{
name = bottom;
position = "{347, 0}";
},
{
name = center;
position = "{462, 576}";
},
{
name = top;
position = "{487, 700}";
}
);
background = {
anchors = (
{
name = bottom;
position = "{347, 0}";
},
{
name = center;
position = "{462, 576}";
},
{
name = top;
position = "{487, 700}";
}
);
paths = (
{
closed = 1;
nodes = (
"238 0 LINE",
"290 258 LINE",
"508 258 LINE",
"456 0 LINE",
"692 0 LINE",
"832 700 LINE",
"596 700 LINE",
"546 452 LINE",
"328 452 LINE",
"378 700 LINE",
"142 700 LINE",
"2 0 LINE"
);
}
);
};
layerId = "5DA6E103-6A94-47F2-987D-4952DB8EA68E";
paths = (
{
closed = 1;
nodes = (
"456 0 LINE",
"692 0 LINE",
"832 700 LINE",
"596 700 LINE"
);
},
{
closed = 1;
nodes = (
"378 700 LINE",
"142 700 LINE",
"2 0 LINE",
"238 0 LINE"
);
},
{
closed = 1;
nodes = (
"562 452 LINE",
"313 452 LINE",
"274 258 LINE",
"523 258 LINE"
);
}
);
width = 804;
}
);
leftKerningGroup = H;
rightKerningGroup = H;
rightMetricsKey = "=|";
unicode = 0048;
},
{
color = 3;
glyphname = I;
lastChange = "2017-09-12 13:02:57 +0000";
layers = (
{
anchors = (
{
name = bottom;
position = "{91, 0}";
},
{
name = ogonek;
position = "{101, 0}";
},
{
name = top;
position = "{231, 700}";
},
{
name = topleft;
position = "{129, 699}";
}
);
background = {
anchors = (
{
name = bottom;
position = "{91, 0}";
},
{
name = ogonek;
position = "{101, 0}";
},
{
name = top;
position = "{231, 700}";
},
{
name = topleft;
position = "{129, 699}";
}
);
paths = (
{
closed = 1;
nodes = (
"101 0 LINE",
"241 700 LINE",
"221 700 LINE",
"81 0 LINE"
);
}
);
};
layerId = UUID0;
paths = (
{
closed = 1;
nodes = (
"101 0 LINE",
"241 700 LINE",
"221 700 LINE",
"81 0 LINE"
);
}
);
width = 286;
},
{
anchors = (
{
name = bottom;
position = "{120, 0}";
},
{
name = ogonek;
position = "{238, 0}";
},
{
name = top;
position = "{260, 700}";
},
{
name = topleft;
position = "{76, 700}";
}
);
background = {
anchors = (
{
name = bottom;
position = "{120, 0}";
},
{
name = ogonek;
position = "{238, 0}";
},
{
name = top;
position = "{260, 700}";
},
{
name = topleft;
position = "{76, 700}";
}
);
paths = (
{
closed = 1;
nodes = (
"238 0 LINE",
"378 700 LINE",
"142 700 LINE",
"2 0 LINE"
);
}
);
};
layerId = "5DA6E103-6A94-47F2-987D-4952DB8EA68E";
paths = (
{
closed = 1;
nodes = (
"238 0 LINE",
"378 700 LINE",
"142 700 LINE",
"2 0 LINE"
);
}
);
width = 350;
}
);
leftKerningGroup = H;
leftMetricsKey = H;
rightKerningGroup = H;
rightMetricsKey = H;
unicode = 0049;
},
{
color = 3;
glyphname = IJ;
lastChange = "2017-09-12 14:39:26 +0000";
layers = (
{
anchors = (
{
name = top;
position = "{255, 700}";
}
);
background = {
anchors = (
{
name = top;
position = "{255, 700}";
}
);
paths = (
{
closed = 1;
nodes = (
"431 -3 OFFCURVE",
"554 95 OFFCURVE",
"594 293 CURVE SMOOTH",
"675 700 LINE",
"655 700 LINE",
"574 294 LINE SMOOTH",
"536 107 OFFCURVE",
"427 16 OFFCURVE",
"279 16 CURVE SMOOTH",
"204 16 OFFCURVE",
"141 39 OFFCURVE",
"96 78 CURVE",
"80 62 LINE",
"127 24 OFFCURVE",
"194 -3 OFFCURVE",
"274 -3 CURVE SMOOTH"
);
},
{
closed = 1;
nodes = (
"153 290 LINE",
"235 700 LINE",
"215 700 LINE",
"133 290 LINE"
);
}
);
};
guideLines = (
{
angle = 90;
position = "{224, 197}";
}
);
layerId = UUID0;
paths = (
{
closed = 1;
nodes = (
"431 -3 OFFCURVE",
"554 95 OFFCURVE",
"594 293 CURVE SMOOTH",
"675 700 LINE",
"655 700 LINE",
"574 294 LINE SMOOTH",
"536 107 OFFCURVE",
"427 16 OFFCURVE",
"279 16 CURVE SMOOTH",
"204 16 OFFCURVE",
"141 39 OFFCURVE",
"96 78 CURVE",
"80 62 LINE",
"127 24 OFFCURVE",
"194 -3 OFFCURVE",
"274 -3 CURVE SMOOTH"
);
},
{
closed = 1;
nodes = (
"153 290 LINE",
"235 700 LINE",
"215 700 LINE",
"133 290 LINE"
);
}
);
width = 714;
},
{
anchors = (
{
name = top;
position = "{254, 700}";
}
);
background = {
anchors = (
{
name = top;
position = "{254, 700}";
}
);
paths = (
{
closed = 1;
nodes = (
"481 -10 OFFCURVE",
"645 111 OFFCURVE",
"689 331 CURVE SMOOTH",
"763 700 LINE",
"527 700 LINE",
"451 318 LINE SMOOTH",
"431 221 OFFCURVE",
"385 178 OFFCURVE",
"298 178 CURVE SMOOTH",
"239 178 OFFCURVE",
"168 200 OFFCURVE",
"110 242 CURVE",
"-9 75 LINE",
"54 23 OFFCURVE",
"151 -10 OFFCURVE",
"271 -10 CURVE SMOOTH"
);
},
{
closed = 1;
nodes = (
"299 336 LINE",
"372 700 LINE",
"136 700 LINE",
"63 336 LINE"
);
}
);
};
layerId = "5DA6E103-6A94-47F2-987D-4952DB8EA68E";
paths = (
{
closed = 1;
nodes = (
"509 -10 OFFCURVE",
"641 93 OFFCURVE",
"685 311 CURVE SMOOTH",
"763 700 LINE",
"527 700 LINE",
"451 318 LINE SMOOTH",
"430 216 OFFCURVE",
"391 178 OFFCURVE",
"308 178 CURVE SMOOTH",
"241 178 OFFCURVE",
"171 200 OFFCURVE",
"107 244 CURVE",
"-7 75 LINE",
"67 23 OFFCURVE",
"164 -10 OFFCURVE",
"298 -10 CURVE SMOOTH"
);
},
{
closed = 1;
nodes = (
"299 336 LINE",
"372 700 LINE",
"136 700 LINE",
"63 336 LINE"
);
}
);
width = 729;
}
);
leftKerningGroup = H;
rightKerningGroup = U;
rightMetricsKey = U;
unicode = 0132;
},
{
color = 3;
glyphname = J;
lastChange = "2017-09-12 14:50:55 +0000";
layers = (
{
anchors = (
{
name = top;
position = "{297, 700}";
}
);
background = {
anchors = (
{
name = top;
position = "{297, 700}";
}
);
paths = (
{
closed = 1;
nodes = (
"239 -3 OFFCURVE",
"311 63 OFFCURVE",
"337 194 CURVE SMOOTH",
"438 700 LINE",
"156 700 LINE",
"152 681 LINE",
"414 681 LINE",
"317 196 LINE SMOOTH",
"293 74 OFFCURVE",
"232 16 OFFCURVE",
"130 16 CURVE SMOOTH",
"64 16 OFFCURVE",
"14 49 OFFCURVE",
"-12 108 CURVE",
"-29 96 LINE",
"-4 34 OFFCURVE",
"54 -3 OFFCURVE",
"125 -3 CURVE SMOOTH"
);
}
);
};
layerId = UUID0;
paths = (
{
closed = 1;
nodes = (
"239 -3 OFFCURVE",
"311 63 OFFCURVE",
"337 194 CURVE SMOOTH",
"438 700 LINE",
"156 700 LINE",
"152 681 LINE",
"414 681 LINE",
"317 196 LINE SMOOTH",
"293 74 OFFCURVE",
"232 16 OFFCURVE",
"130 16 CURVE SMOOTH",
"64 16 OFFCURVE",
"14 49 OFFCURVE",
"-12 108 CURVE",
"-29 96 LINE",
"-4 34 OFFCURVE",
"54 -3 OFFCURVE",
"125 -3 CURVE SMOOTH"
);
}
);
width = 477;
},
{
anchors = (
{
name = top;
position = "{373, 700}";
}
);
background = {
anchors = (
{
name = top;
position = "{373, 700}";
}
);
paths = (
{
closed = 1;
nodes = (
"364 -16 OFFCURVE",
"484 78 OFFCURVE",
"522 270 CURVE SMOOTH",
"608 700 LINE",
"137 700 LINE",
"101 522 LINE",
"339 522 LINE",
"286 256 LINE SMOOTH",
"275 199 OFFCURVE",
"242 169 OFFCURVE",
"193 169 CURVE SMOOTH",
"154 169 OFFCURVE",
"123 192 OFFCURVE",
"96 238 CURVE",
"-61 88 LINE",
"-17 20 OFFCURVE",
"67 -16 OFFCURVE",
"176 -16 CURVE SMOOTH"
);
}
);
};
layerId = "5DA6E103-6A94-47F2-987D-4952DB8EA68E";
paths = (
{
closed = 1;
nodes = (
"374 -16 OFFCURVE",
"480 58 OFFCURVE",
"520 260 CURVE SMOOTH",
"608 700 LINE",
"137 700 LINE",
"101 522 LINE",
"339 522 LINE",
"284 246 LINE SMOOTH",
"274 197 OFFCURVE",
"245 169 OFFCURVE",
"200 169 CURVE SMOOTH",
"158 169 OFFCURVE",
"124 191 OFFCURVE",
"93 235 CURVE",
"-58 92 LINE",
"-6 20 OFFCURVE",
"78 -16 OFFCURVE",
"196 -16 CURVE SMOOTH"
);
}
);
width = 574;
}
);
leftKerningGroup = J;
rightKerningGroup = U;
rightMetricsKey = U;
unicode = 004A;
},
{
color = 3;
glyphname = K;
lastChange = "2017-09-12 14:56:31 +0000";
layers = (
{
anchors = (
{
name = bottom;
position = "{318, 0}";
},
{
name = top;
position = "{458, 700}";
}
);
background = {
anchors = (
{
name = bottom;
position = "{318, 0}";
},
{
name = top;
position = "{458, 700}";
}
);
paths = (
{
closed = 1;
nodes = (
"349 366 LINE",
"363 377 LINE",
"742 700 LINE",
"715 700 LINE",
"139 209 LINE",
"133 182 LINE"
);
},
{
closed = 1;
nodes = (
"101 0 LINE",
"241 700 LINE",
"221 700 LINE",
"81 0 LINE"
);
},
{
closed = 1;
nodes = (
"625 0 LINE",
"358 390 LINE",
"340 377 LINE",
"598 0 LINE"
);
}
);
};
layerId = UUID0;
paths = (
{
closed = 1;
nodes = (
"349 366 LINE",
"363 377 LINE",
"742 700 LINE",
"715 700 LINE",
"139 209 LINE",
"133 182 LINE"
);
},
{
closed = 1;
nodes = (
"101 0 LINE",
"241 700 LINE",
"221 700 LINE",
"81 0 LINE"
);
},
{
closed = 1;
nodes = (
"625 0 LINE",
"358 390 LINE",
"340 377 LINE",
"598 0 LINE"
);
}
);
width = 693;
},
{
anchors = (
{
name = bottom;
position = "{329, 0}";
},
{
name = top;
position = "{469, 700}";
}
);
background = {
anchors = (
{
name = bottom;
position = "{329, 0}";
},
{
name = top;
position = "{469, 700}";
}
);
paths = (
{
closed = 1;
nodes = (
"861 700 LINE",
"594 700 LINE",
"282 409 LINE",
"253 150 LINE"
);
},
{
closed = 1;
nodes = (
"234 0 LINE",
"374 700 LINE",
"142 700 LINE",
"2 0 LINE"
);
},
{
closed = 1;
nodes = (
"735 0 LINE",
"496 434 LINE",
"310 272 LINE",
"462 0 LINE"
);
}
);
};
guideLines = (
{
angle = 48.4917;
position = "{961, 544}";
}
);
layerId = "5DA6E103-6A94-47F2-987D-4952DB8EA68E";
paths = (
{
closed = 1;
nodes = (
"342 234 LINE",
"502 374 LINE",
"861 700 LINE",
"590 700 LINE",
"278 409 LINE",
"243 144 LINE"
);
},
{
closed = 1;
nodes = (
"234 0 LINE",
"374 700 LINE",
"142 700 LINE",
"2 0 LINE"
);
},
{
closed = 1;
nodes = (
"738 0 LINE",
"481 430 LINE",
"306 272 LINE",
"475 0 LINE"
);
}
);
width = 765;
}
);
leftKerningGroup = H;
leftMetricsKey = H;
rightKerningGroup = K;
unicode = 004B;
},
{
color = 3;
glyphname = L;
lastChange = "2017-09-12 14:57:56 +0000";
layers = (
{
anchors = (
{
name = bottom;
position = "{310, 0}";
},
{
name = center;
position = "{163, 360}";
},
{
name = dot;
position = "{453, 360}";
},
{
name = top;
position = "{231, 700}";
},
{
name = topright;
position = "{534, 700}";
}
);
background = {
anchors = (
{
name = bottom;
position = "{310, 0}";
},
{
name = center;
position = "{163, 360}";
},
{
name = dot;
position = "{453, 360}";
},
{
name = top;
position = "{231, 700}";
},
{
name = topright;
position = "{534, 700}";
}
);
paths = (
{
closed = 1;
nodes = (
"518 0 LINE",
"522 19 LINE",
"105 19 LINE",
"241 700 LINE",
"221 700 LINE",
"81 0 LINE"
);
}
);
};
guideLines = (
{
angle = 90;
position = "{360, 31}";
}
);
layerId = UUID0;
paths = (
{
closed = 1;
nodes = (
"518 0 LINE",
"522 19 LINE",
"105 19 LINE",
"241 700 LINE",
"221 700 LINE",
"81 0 LINE"
);
}
);
width = 580;
},
{
anchors = (
{
name = bottom;
position = "{290, 0}";
},
{
name = center;
position = "{200, 400}";
},
{
name = dot;
position = "{517, 441}";
},
{
name = top;
position = "{260, 700}";
},
{
name = topright;
position = "{508, 700}";
}
);
background = {
anchors = (
{
name = bottom;
position = "{290, 0}";
},
{
name = center;
position = "{200, 400}";
},
{
name = dot;
position = "{517, 441}";
},
{
name = top;
position = "{260, 700}";
},
{
name = topright;
position = "{508, 700}";
}
);
paths = (
{
closed = 1;
nodes = (
"554 0 LINE",
"591 183 LINE",
"275 183 LINE",
"378 700 LINE",
"142 700 LINE",
"2 0 LINE"
);
}
);
};
guideLines = (
{
angle = 90;
position = "{426, 193}";
}
);
layerId = "5DA6E103-6A94-47F2-987D-4952DB8EA68E";
paths = (
{
closed = 1;
nodes = (
"554 0 LINE",
"591 183 LINE",
"275 183 LINE",
"378 700 LINE",
"142 700 LINE",
"2 0 LINE"
);
}
);
width = 617;
}
);
leftKerningGroup = H;
leftMetricsKey = H;
rightKerningGroup = L;
unicode = 004C;
},
{
color = 3;
glyphname = M;
lastChange = "2017-09-12 15:03:01 +0000";
layers = (
{
anchors = (
{
name = bottom;
position = "{426, 0}";
},
{
name = top;
position = "{566, 700}";
}
);
background = {
anchors = (
{
name = bottom;
position = "{426, 0}";
},
{
name = top;
position = "{566, 700}";
}
);
paths = (
{
closed = 1;
nodes = (
"101 0 LINE",
"235 671 LINE",
"226 671 LINE",
"440 99 LINE",
"452 99 LINE",
"893 671 LINE",
"885 671 LINE",
"751 0 LINE",
"771 0 LINE",
"911 700 LINE",
"894 700 LINE",
"446 118 LINE",
"455 118 LINE",
"238 700 LINE",
"221 700 LINE",
"81 0 LINE"
);
}
);
};
layerId = UUID0;
paths = (
{
closed = 1;
nodes = (
"101 0 LINE",
"235 671 LINE",
"226 671 LINE",
"440 99 LINE",
"452 99 LINE",
"893 671 LINE",
"885 671 LINE",
"751 0 LINE",
"771 0 LINE",
"911 700 LINE",
"894 700 LINE",
"446 118 LINE",
"455 118 LINE",
"238 700 LINE",
"221 700 LINE",
"81 0 LINE"
);
}
);
width = 956;
},
{
anchors = (
{
name = bottom;
position = "{421, 0}";
},
{
name = top;
position = "{561, 700}";
}
);
background = {
anchors = (
{
name = bottom;
position = "{421, 0}";
},
{
name = top;
position = "{561, 700}";
}
);
paths = (
{
closed = 1;
nodes = (
"217 0 LINE",
"292 376 LINE",
"250 376 LINE",
"382 63 LINE",
"486 63 LINE",
"734 376 LINE",
"700 376 LINE",
"627 0 LINE",
"842 0 LINE",
"980 700 LINE",
"786 700 LINE",
"423 243 LINE",
"525 243 LINE",
"336 700 LINE",
"142 700 LINE",
"2 0 LINE"
);
}
);
};
layerId = "5DA6E103-6A94-47F2-987D-4952DB8EA68E";
paths = (
{
closed = 1;
nodes = (
"217 0 LINE",
"292 376 LINE",
"250 379 LINE",
"388 63 LINE",
"492 63 LINE",
"734 378 LINE",
"700 376 LINE",
"627 0 LINE",
"842 0 LINE",
"980 700 LINE",
"779 700 LINE",
"419 243 LINE",
"523 243 LINE",
"336 700 LINE",
"142 700 LINE",
"2 0 LINE"
);
}
);
width = 954;
}
);
leftKerningGroup = H;
leftMetricsKey = H;
rightKerningGroup = H;
rightMetricsKey = H;
unicode = 004D;
},
{
color = 3;
glyphname = N;
lastChange = "2017-09-12 15:03:46 +0000";
layers = (
{
anchors = (
{
name = bottom;
position = "{356, 0}";
},
{
name = top;
position = "{496, 700}";
}
);
background = {
anchors = (
{
name = bottom;
position = "{356, 0}";
},
{
name = top;
position = "{496, 700}";
}
);
paths = (
{
closed = 1;
nodes = (
"101 0 LINE",
"236 677 LINE",
"225 677 LINE",
"614 0 LINE",
"631 0 LINE",
"771 700 LINE",
"751 700 LINE",
"616 23 LINE",
"627 23 LINE",
"238 700 LINE",
"221 700 LINE",
"81 0 LINE"
);
}
);
};
layerId = UUID0;
paths = (
{
closed = 1;
nodes = (
"101 0 LINE",
"236 677 LINE",
"225 677 LINE",
"614 0 LINE",
"631 0 LINE",
"771 700 LINE",
"751 700 LINE",
"616 23 LINE",
"627 23 LINE",
"238 700 LINE",
"221 700 LINE",
"81 0 LINE"
);
}
);
width = 816;
},
{
anchors = (
{
name = bottom;
position = "{347, 0}";
},
{
name = top;
position = "{487, 700}";
}
);
background = {
anchors = (
{
name = bottom;
position = "{347, 0}";
},
{
name = top;
position = "{487, 700}";
}
);
paths = (
{
closed = 1;
nodes = (
"232 0 LINE",
"317 426 LINE",
"227 426 LINE",
"498 0 LINE",
"692 0 LINE",
"832 700 LINE",
"602 700 LINE",
"517 274 LINE",
"607 274 LINE",
"336 700 LINE",
"142 700 LINE",
"2 0 LINE"
);
}
);
};
layerId = "5DA6E103-6A94-47F2-987D-4952DB8EA68E";
paths = (
{
closed = 1;
nodes = (
"232 0 LINE",
"317 426 LINE",
"235 426 LINE",
"498 0 LINE",
"692 0 LINE",
"832 700 LINE",
"602 700 LINE",
"517 274 LINE",
"599 274 LINE",
"336 700 LINE",
"142 700 LINE",
"2 0 LINE"
);
}
);
width = 804;
}
);
leftKerningGroup = H;
leftMetricsKey = H;
rightKerningGroup = H;
rightMetricsKey = H;
unicode = 004E;
},
{
color = 3;
glyphname = O;
lastChange = "2017-09-12 14:11:53 +0000";
layers = (
{
anchors = (
{
name = bottom;
position = "{366, 0}";
},
{
name = center;
position = "{436, 350}";
},
{
name = ogonek;
position = "{417, 0}";
},
{
name = top;
position = "{506, 700}";
},
{
name = topleft;
position = "{147, 700}";
},
{
name = topright;
position = "{755, 700}";
}
);
background = {
anchors = (
{
name = bottom;
position = "{366, 0}";
},
{
name = center;
position = "{436, 350}";
},
{
name = ogonek;
position = "{417, 0}";
},
{
name = top;
position = "{506, 700}";
},
{
name = topleft;
position = "{147, 700}";
},
{
name = topright;
position = "{755, 700}";
}
);
paths = (
{
closed = 1;
nodes = (
"570 -3 OFFCURVE",
"755 148 OFFCURVE",
"795 350 CURVE SMOOTH",
"835 552 OFFCURVE",
"711 703 OFFCURVE",
"506 703 CURVE SMOOTH",
"301 703 OFFCURVE",
"117 552 OFFCURVE",
"77 350 CURVE SMOOTH",
"37 148 OFFCURVE",
"160 -3 OFFCURVE",
"365 -3 CURVE SMOOTH"
);
},
{
closed = 1;
nodes = (
"176 16 OFFCURVE",
"59 159 OFFCURVE",
"97 350 CURVE SMOOTH",
"135 541 OFFCURVE",
"310 684 OFFCURVE",
"503 684 CURVE SMOOTH",
"696 684 OFFCURVE",
"813 541 OFFCURVE",
"775 350 CURVE SMOOTH",
"737 159 OFFCURVE",
"562 16 OFFCURVE",
"369 16 CURVE SMOOTH"
);
}
);
};
guideLines = (
{
angle = 90;
position = "{1572, 734}";
}
);
layerId = UUID0;
paths = (
{
closed = 1;
nodes = (
"570 -3 OFFCURVE",
"755 148 OFFCURVE",
"795 350 CURVE SMOOTH",
"835 552 OFFCURVE",
"711 703 OFFCURVE",
"506 703 CURVE SMOOTH",
"301 703 OFFCURVE",
"117 552 OFFCURVE",
"77 350 CURVE SMOOTH",
"37 148 OFFCURVE",
"160 -3 OFFCURVE",
"365 -3 CURVE SMOOTH"
);
},
{
closed = 1;
nodes = (
"176 16 OFFCURVE",
"59 159 OFFCURVE",
"97 350 CURVE SMOOTH",
"135 541 OFFCURVE",
"310 684 OFFCURVE",
"503 684 CURVE SMOOTH",
"696 684 OFFCURVE",
"813 541 OFFCURVE",
"775 350 CURVE SMOOTH",
"737 159 OFFCURVE",
"562 16 OFFCURVE",
"369 16 CURVE SMOOTH"
);
}
);
width = 836;
},
{
anchors = (
{
name = bottom;
position = "{369, 0}";
},
{
name = center;
position = "{439, 350}";
},
{
name = ogonek;
position = "{492, 0}";
},
{
name = top;
position = "{509, 700}";
},
{
name = topleft;
position = "{119, 700}";
},
{
name = topright;
position = "{675, 700}";
}
);
background = {
anchors = (
{
name = bottom;
position = "{1369, 0}";
},
{
name = center;
position = "{1439, 350}";
},
{
name = ogonek;
position = "{1492, 0}";
},
{
name = top;
position = "{1509, 700}";
},
{
name = topleft;
position = "{1119, 700}";
},
{
name = topright;
position = "{1675, 700}";
}
);
paths = (
{
closed = 1;
nodes = (
"2594 -16 OFFCURVE",
"2792 138 OFFCURVE",
"2834 350 CURVE SMOOTH",
"2876 562 OFFCURVE",
"2740 716 OFFCURVE",
"2512 716 CURVE SMOOTH",
"2284 716 OFFCURVE",
"2086 562 OFFCURVE",
"2044 350 CURVE SMOOTH",
"2002 138 OFFCURVE",
"2138 -16 OFFCURVE",
"2366 -16 CURVE SMOOTH"
);
},
{
closed = 1;
nodes = (
"2317 175 OFFCURVE",
"2260 241 OFFCURVE",
"2282 350 CURVE SMOOTH",
"2304 459 OFFCURVE",
"2387 525 OFFCURVE",
"2474 525 CURVE SMOOTH",
"2561 525 OFFCURVE",
"2618 459 OFFCURVE",
"2596 350 CURVE SMOOTH",
"2574 241 OFFCURVE",
"2491 175 OFFCURVE",
"2404 175 CURVE SMOOTH"
);
},
{
closed = 1;
nodes = (
"1506 -16 OFFCURVE",
"1688 104 OFFCURVE",
"1730 320 CURVE SMOOTH",
"1776 555 OFFCURVE",
"1630 716 OFFCURVE",
"1382 716 CURVE SMOOTH",
"1172 716 OFFCURVE",
"990 596 OFFCURVE",
"948 380 CURVE SMOOTH",
"902 145 OFFCURVE",
"1048 -16 OFFCURVE",
"1296 -16 CURVE SMOOTH"
);
},
{
closed = 1;
nodes = (
"1214 175 OFFCURVE",
"1162 249 OFFCURVE",
"1184 360 CURVE SMOOTH",
"1204 463 OFFCURVE",
"1268 525 OFFCURVE",
"1362 525 CURVE SMOOTH",
"1464 525 OFFCURVE",
"1516 451 OFFCURVE",
"1494 340 CURVE SMOOTH",
"1474 237 OFFCURVE",
"1410 175 OFFCURVE",
"1316 175 CURVE SMOOTH"
);
},
{
closed = 1;
nodes = (
"230 716 OFFCURVE",
"41 544 OFFCURVE",
"41 297 CURVE SMOOTH",
"41 108 OFFCURVE",
"179 -16 OFFCURVE",
"396 -16 CURVE SMOOTH",
"650 -16 OFFCURVE",
"837 156 OFFCURVE",
"837 403 CURVE SMOOTH",
"837 592 OFFCURVE",
"700 716 OFFCURVE",
"482 716 CURVE SMOOTH"
);
},
{
closed = 1;
nodes = (
"548 525 OFFCURVE",
"599 472 OFFCURVE",
"599 389 CURVE SMOOTH",
"599 274 OFFCURVE",
"532 175 OFFCURVE",
"416 175 CURVE SMOOTH",
"330 175 OFFCURVE",
"279 228 OFFCURVE",
"279 312 CURVE SMOOTH",
"279 425 OFFCURVE",
"346 525 OFFCURVE",
"462 525 CURVE SMOOTH"
);
}
);
};
guideLines = (
{
angle = 90;
position = "{1323, 664}";
}
);
layerId = "5DA6E103-6A94-47F2-987D-4952DB8EA68E";
paths = (
{
closed = 1;
nodes = (
"653 -16 OFFCURVE",
"837 156 OFFCURVE",
"837 403 CURVE SMOOTH",
"837 587 OFFCURVE",
"700 716 OFFCURVE",
"482 716 CURVE SMOOTH",
"225 716 OFFCURVE",
"41 544 OFFCURVE",
"41 297 CURVE SMOOTH",
"41 113 OFFCURVE",
"178 -16 OFFCURVE",
"396 -16 CURVE SMOOTH"
);
},
{
closed = 1;
nodes = (
"330 175 OFFCURVE",
"279 230 OFFCURVE",
"279 311 CURVE SMOOTH",
"279 426 OFFCURVE",
"346 525 OFFCURVE",
"462 525 CURVE SMOOTH",
"548 525 OFFCURVE",
"599 470 OFFCURVE",
"599 389 CURVE SMOOTH",
"599 274 OFFCURVE",
"532 175 OFFCURVE",
"416 175 CURVE SMOOTH"
);
}
);
width = 848;
}
);
leftKerningGroup = O;
rightKerningGroup = O;
unicode = 004F;
},
{
glyphname = Ohorn;
lastChange = "2017-09-11 21:11:09 +0000";
layers = (
{
anchors = (
{
name = bottom;
position = "{366, 0}";
},
{
name = top;
position = "{506, 700}";
}
);
background = {
anchors = (
{
name = bottom;
position = "{366, 0}";
},
{
name = top;
position = "{506, 700}";
}
);
paths = (
{
closed = 1;
nodes = (
"570 -3 OFFCURVE",
"755 148 OFFCURVE",
"795 350 CURVE SMOOTH",
"825 501 OFFCURVE",
"762 631 OFFCURVE",
"632 680 CURVE",
"618 677 LINE",
"646 672 OFFCURVE",
"687 669 OFFCURVE",
"709 669 CURVE SMOOTH",
"796 669 OFFCURVE",
"845 703 OFFCURVE",
"859 771 CURVE SMOOTH",
"864 797 OFFCURVE",
"861 825 OFFCURVE",
"852 845 CURVE",
"832 837 LINE",
"839 818 OFFCURVE",
"844 796 OFFCURVE",
"839 770 CURVE SMOOTH",
"828 715 OFFCURVE",
"786 688 OFFCURVE",
"712 688 CURVE SMOOTH",
"646 688 OFFCURVE",
"592 703 OFFCURVE",
"506 703 CURVE SMOOTH",
"301 703 OFFCURVE",
"117 552 OFFCURVE",
"77 350 CURVE SMOOTH",
"37 148 OFFCURVE",
"160 -3 OFFCURVE",
"365 -3 CURVE SMOOTH"
);
},
{
closed = 1;
nodes = (
"176 16 OFFCURVE",
"59 161 OFFCURVE",
"97 350 CURVE SMOOTH",
"135 539 OFFCURVE",
"310 684 OFFCURVE",
"503 684 CURVE SMOOTH",
"696 684 OFFCURVE",
"813 539 OFFCURVE",
"775 350 CURVE SMOOTH",
"737 161 OFFCURVE",
"562 16 OFFCURVE",
"369 16 CURVE SMOOTH"
);
}
);
};
layerId = UUID0;
paths = (
{
closed = 1;
nodes = (
"570 -3 OFFCURVE",
"755 148 OFFCURVE",
"795 350 CURVE SMOOTH",
"825 501 OFFCURVE",
"762 631 OFFCURVE",
"632 680 CURVE",
"618 677 LINE",
"646 672 OFFCURVE",
"687 669 OFFCURVE",
"709 669 CURVE SMOOTH",
"796 669 OFFCURVE",
"845 703 OFFCURVE",
"859 771 CURVE SMOOTH",
"864 797 OFFCURVE",
"861 825 OFFCURVE",
"852 845 CURVE",
"832 837 LINE",
"839 818 OFFCURVE",
"844 796 OFFCURVE",
"839 770 CURVE SMOOTH",
"828 715 OFFCURVE",
"786 688 OFFCURVE",
"712 688 CURVE SMOOTH",
"646 688 OFFCURVE",
"592 703 OFFCURVE",
"506 703 CURVE SMOOTH",
"301 703 OFFCURVE",
"117 552 OFFCURVE",
"77 350 CURVE SMOOTH",
"37 148 OFFCURVE",
"160 -3 OFFCURVE",
"365 -3 CURVE SMOOTH"
);
},
{
closed = 1;
nodes = (
"176 16 OFFCURVE",
"59 161 OFFCURVE",
"97 350 CURVE SMOOTH",
"135 539 OFFCURVE",
"310 684 OFFCURVE",
"503 684 CURVE SMOOTH",
"696 684 OFFCURVE",
"813 539 OFFCURVE",
"775 350 CURVE SMOOTH",
"737 161 OFFCURVE",
"562 16 OFFCURVE",
"369 16 CURVE SMOOTH"
);
}
);
width = 836;
},
{
anchors = (
{
name = bottom;
position = "{369, 0}";
},
{
name = top;
position = "{509, 700}";
}
);
background = {
anchors = (
{
name = bottom;
position = "{369, 0}";
},
{
name = top;
position = "{509, 700}";
}
);
paths = (
{
closed = 1;
nodes = (
"594 -16 OFFCURVE",
"792 138 OFFCURVE",
"834 350 CURVE SMOOTH",
"858 468 OFFCURVE",
"824 564 OFFCURVE",
"754 625 CURVE",
"485 581 LINE",
"539 574 OFFCURVE",
"593 564 OFFCURVE",
"658 564 CURVE SMOOTH",
"800 564 OFFCURVE",
"901 633 OFFCURVE",
"925 752 CURVE SMOOTH",
"934 797 OFFCURVE",
"928 834 OFFCURVE",
"910 863 CURVE",
"753 818 LINE",
"763 804 OFFCURVE",
"766 783 OFFCURVE",
"762 761 CURVE SMOOTH",
"755 724 OFFCURVE",
"723 703 OFFCURVE",
"683 703 CURVE SMOOTH",
"642 703 OFFCURVE",
"593 716 OFFCURVE",
"522 716 CURVE SMOOTH",
"284 716 OFFCURVE",
"86 562 OFFCURVE",
"44 350 CURVE SMOOTH",
"2 138 OFFCURVE",
"138 -16 OFFCURVE",
"366 -16 CURVE SMOOTH"
);
},
{
closed = 1;
nodes = (
"317 175 OFFCURVE",
"260 241 OFFCURVE",
"282 350 CURVE SMOOTH",
"304 459 OFFCURVE",
"387 525 OFFCURVE",
"474 525 CURVE SMOOTH",
"561 525 OFFCURVE",
"618 459 OFFCURVE",
"596 350 CURVE SMOOTH",
"574 241 OFFCURVE",
"491 175 OFFCURVE",
"404 175 CURVE SMOOTH"
);
}
);
};
layerId = "5DA6E103-6A94-47F2-987D-4952DB8EA68E";
paths = (
{
closed = 1;
nodes = (
"594 -16 OFFCURVE",
"792 138 OFFCURVE",
"834 350 CURVE SMOOTH",
"858 468 OFFCURVE",
"824 564 OFFCURVE",
"754 625 CURVE",
"485 581 LINE",
"539 574 OFFCURVE",
"593 564 OFFCURVE",
"658 564 CURVE SMOOTH",
"800 564 OFFCURVE",
"901 633 OFFCURVE",
"925 752 CURVE SMOOTH",
"934 797 OFFCURVE",
"928 834 OFFCURVE",
"910 863 CURVE",
"753 818 LINE",
"763 804 OFFCURVE",
"766 783 OFFCURVE",
"762 761 CURVE SMOOTH",
"755 724 OFFCURVE",
"723 703 OFFCURVE",
"683 703 CURVE SMOOTH",
"642 703 OFFCURVE",
"593 716 OFFCURVE",
"522 716 CURVE SMOOTH",
"284 716 OFFCURVE",
"86 562 OFFCURVE",
"44 350 CURVE SMOOTH",
"2 138 OFFCURVE",
"138 -16 OFFCURVE",
"366 -16 CURVE SMOOTH"
);
},
{
closed = 1;
nodes = (
"317 175 OFFCURVE",
"260 241 OFFCURVE",
"282 350 CURVE SMOOTH",
"304 459 OFFCURVE",
"387 525 OFFCURVE",
"474 525 CURVE SMOOTH",
"561 525 OFFCURVE",
"618 459 OFFCURVE",
"596 350 CURVE SMOOTH",
"574 241 OFFCURVE",
"491 175 OFFCURVE",
"404 175 CURVE SMOOTH"
);
}
);
width = 848;
}
);
leftKerningGroup = O;
leftMetricsKey = O;
widthMetricsKey = O;
rightKerningGroup = O;
unicode = 01A0;
},
{
color = 3;
glyphname = P;
lastChange = "2017-09-12 15:10:17 +0000";
layers = (
{
background = {
paths = (
{
closed = 1;
nodes = (
"101 0 LINE",
"151 249 LINE",
"140 240 LINE",
"366 240 LINE SMOOTH",
"538 240 OFFCURVE",
"658 325 OFFCURVE",
"687 470 CURVE SMOOTH",
"716 615 OFFCURVE",
"630 700 OFFCURVE",
"458 700 CURVE SMOOTH",
"221 700 LINE",
"81 0 LINE"
);
},
{
closed = 1;
nodes = (
"239 689 LINE",
"228 681 LINE",
"456 681 LINE SMOOTH",
"620 681 OFFCURVE",
"694 604 OFFCURVE",
"667 470 CURVE SMOOTH",
"640 336 OFFCURVE",
"536 259 OFFCURVE",
"372 259 CURVE SMOOTH",
"144 259 LINE",
"151 251 LINE"
);
}
);
};
layerId = UUID0;
paths = (
{
closed = 1;
nodes = (
"101 0 LINE",
"151 249 LINE",
"140 240 LINE",
"366 240 LINE SMOOTH",
"538 240 OFFCURVE",
"658 325 OFFCURVE",
"687 470 CURVE SMOOTH",
"716 615 OFFCURVE",
"630 700 OFFCURVE",
"458 700 CURVE SMOOTH",
"221 700 LINE",
"81 0 LINE"
);
},
{
closed = 1;
nodes = (
"239 689 LINE",
"228 681 LINE",
"456 681 LINE SMOOTH",
"620 681 OFFCURVE",
"694 604 OFFCURVE",
"667 470 CURVE SMOOTH",
"640 336 OFFCURVE",
"536 259 OFFCURVE",
"372 259 CURVE SMOOTH",
"144 259 LINE",
"151 251 LINE"
);
}
);
width = 710;
},
{
background = {
paths = (
{
closed = 1;
nodes = (
"1038 0 LINE",
"1093 273 LINE",
"967 172 LINE",
"1173 172 LINE SMOOTH",
"1368 172 OFFCURVE",
"1513 274 OFFCURVE",
"1545 436 CURVE SMOOTH",
"1577 598 OFFCURVE",
"1474 700 OFFCURVE",
"1279 700 CURVE SMOOTH",
"942 700 LINE",
"802 0 LINE"
);
},
{
closed = 1;
nodes = (
"1163 625 LINE",
"1037 518 LINE",
"1228 518 LINE SMOOTH",
"1293 518 OFFCURVE",
"1317 487 OFFCURVE",
"1307 436 CURVE SMOOTH",
"1297 385 OFFCURVE",
"1260 354 OFFCURVE",
"1195 354 CURVE SMOOTH",
"1004 354 LINE",
"1087 247 LINE"
);
},
{
closed = 1;
nodes = (
"238 0 LINE",
"293 275 LINE",
"167 172 LINE",
"393 172 LINE SMOOTH",
"588 172 OFFCURVE",
"711 264 OFFCURVE",
"740 412 CURVE SMOOTH",
"776 594 OFFCURVE",
"664 700 OFFCURVE",
"459 700 CURVE SMOOTH",
"142 700 LINE",
"2 0 LINE"
);
},
{
closed = 1;
nodes = (
"363 628 LINE",
"237 518 LINE",
"420 518 LINE SMOOTH",
"488 518 OFFCURVE",
"517 486 OFFCURVE",
"505 426 CURVE SMOOTH",
"497 384 OFFCURVE",
"468 354 OFFCURVE",
"405 354 CURVE SMOOTH",
"204 354 LINE",
"287 247 LINE"
);
}
);
};
layerId = "5DA6E103-6A94-47F2-987D-4952DB8EA68E";
paths = (
{
closed = 1;
nodes = (
"238 0 LINE",
"293 275 LINE",
"167 172 LINE",
"393 172 LINE SMOOTH",
"608 172 OFFCURVE",
"747 291 OFFCURVE",
"747 468 CURVE SMOOTH",
"747 614 OFFCURVE",
"641 700 OFFCURVE",
"456 700 CURVE SMOOTH",
"142 700 LINE",
"2 0 LINE"
);
},
{
closed = 1;
nodes = (
"363 628 LINE",
"237 518 LINE",
"420 518 LINE SMOOTH",
"474 518 OFFCURVE",
"508 497 OFFCURVE",
"508 447 CURVE SMOOTH",
"508 388 OFFCURVE",
"470 354 OFFCURVE",
"405 354 CURVE SMOOTH",
"204 354 LINE",
"287 247 LINE"
);
}
);
width = 743;
}
);
leftKerningGroup = H;
leftMetricsKey = H;
rightKerningGroup = P;
unicode = 0050;
},
{
color = 3;
glyphname = Thorn;
lastChange = "2017-09-12 15:11:34 +0000";
layers = (
{
background = {
paths = (
{
closed = 1;
nodes = (
"346 139 LINE SMOOTH",
"518 139 OFFCURVE",
"638 224 OFFCURVE",
"667 369 CURVE SMOOTH",
"696 514 OFFCURVE",
"610 599 OFFCURVE",
"438 599 CURVE SMOOTH",
"212 599 LINE",
"208 580 LINE",
"436 580 LINE SMOOTH",
"600 580 OFFCURVE",
"674 503 OFFCURVE",
"647 369 CURVE SMOOTH",
"620 235 OFFCURVE",
"516 158 OFFCURVE",
"352 158 CURVE SMOOTH",
"124 158 LINE",
"120 139 LINE"
);
},
{
closed = 1;
nodes = (
"101 0 LINE",
"241 699 LINE",
"221 699 LINE",
"81 0 LINE"
);
}
);
};
layerId = UUID0;
paths = (
{
closed = 1;
nodes = (
"346 139 LINE SMOOTH",
"518 139 OFFCURVE",
"638 224 OFFCURVE",
"667 369 CURVE SMOOTH",
"696 514 OFFCURVE",
"610 599 OFFCURVE",
"438 599 CURVE SMOOTH",
"212 599 LINE",
"208 580 LINE",
"436 580 LINE SMOOTH",
"600 580 OFFCURVE",
"674 503 OFFCURVE",
"647 369 CURVE SMOOTH",
"620 235 OFFCURVE",
"516 158 OFFCURVE",
"352 158 CURVE SMOOTH",
"124 158 LINE",
"120 139 LINE"
);
},
{
closed = 1;
nodes = (
"101 0 LINE",
"241 699 LINE",
"221 699 LINE",
"81 0 LINE"
);
}
);
width = 710;
},
{
background = {
paths = (
{
closed = 1;
nodes = (
"1260 105 LINE SMOOTH",
"1455 105 OFFCURVE",
"1599 207 OFFCURVE",
"1632 369 CURVE SMOOTH",
"1665 531 OFFCURVE",
"1560 633 OFFCURVE",
"1365 633 CURVE SMOOTH",
"1216 633 LINE",
"1180 451 LINE",
"1314 451 LINE SMOOTH",
"1379 451 OFFCURVE",
"1404 420 OFFCURVE",
"1394 369 CURVE SMOOTH",
"1384 318 OFFCURVE",
"1346 287 OFFCURVE",
"1281 287 CURVE SMOOTH",
"1147 287 LINE",
"1111 105 LINE"
);
},
{
closed = 1;
nodes = (
"1138 0 LINE",
"1278 701 LINE",
"1042 701 LINE",
"902 0 LINE"
);
},
{
closed = 1;
nodes = (
"225 -67 LINE",
"280 208 LINE",
"154 105 LINE",
"380 105 LINE SMOOTH",
"595 105 OFFCURVE",
"734 224 OFFCURVE",
"734 401 CURVE SMOOTH",
"734 547 OFFCURVE",
"628 633 OFFCURVE",
"443 633 CURVE SMOOTH",
"129 633 LINE",
"-11 -67 LINE"
);
},
{
closed = 1;
nodes = (
"350 561 LINE",
"224 451 LINE",
"407 451 LINE SMOOTH",
"461 451 OFFCURVE",
"495 430 OFFCURVE",
"495 380 CURVE SMOOTH",
"495 321 OFFCURVE",
"457 287 OFFCURVE",
"392 287 CURVE SMOOTH",
"191 287 LINE",
"274 180 LINE"
);
}
);
};
layerId = "5DA6E103-6A94-47F2-987D-4952DB8EA68E";
paths = (
{
closed = 1;
nodes = (
"379 105 LINE SMOOTH",
"594 105 OFFCURVE",
"733 224 OFFCURVE",
"733 401 CURVE SMOOTH",
"733 547 OFFCURVE",
"627 633 OFFCURVE",
"442 633 CURVE SMOOTH",
"316 633 LINE",
"280 451 LINE",
"406 451 LINE SMOOTH",
"460 451 OFFCURVE",
"494 430 OFFCURVE",
"494 380 CURVE SMOOTH",
"494 321 OFFCURVE",
"456 287 OFFCURVE",
"391 287 CURVE SMOOTH",
"247 287 LINE",
"211 105 LINE"
);
},
{
closed = 1;
nodes = (
"238 0 LINE",
"378 701 LINE",
"142 701 LINE",
"2 0 LINE"
);
}
);
width = 743;
}
);
leftKerningGroup = H;
leftMetricsKey = H;
rightKerningGroup = Thorn;
rightMetricsKey = P;
unicode = 00DE;
},
{
color = 3;
glyphname = Q;
lastChange = "2017-09-12 15:15:56 +0000";
layers = (
{
anchors = (
{
name = top;
position = "{506, 700}";
}
);
background = {
anchors = (
{
name = top;
position = "{506, 700}";
}
);
paths = (
{
closed = 1;
nodes = (
"570 -3 OFFCURVE",
"755 148 OFFCURVE",
"795 350 CURVE SMOOTH",
"835 552 OFFCURVE",
"711 703 OFFCURVE",
"506 703 CURVE SMOOTH",
"301 703 OFFCURVE",
"117 552 OFFCURVE",
"77 350 CURVE SMOOTH",
"37 148 OFFCURVE",
"160 -3 OFFCURVE",
"365 -3 CURVE SMOOTH"
);
},
{
closed = 1;
nodes = (
"634 -124 OFFCURVE",
"694 -98 OFFCURVE",
"745 -48 CURVE",
"734 -34 LINE",
"685 -82 OFFCURVE",
"633 -105 OFFCURVE",
"575 -105 CURVE SMOOTH",
"512 -105 OFFCURVE",
"454 -67 OFFCURVE",
"401 8 CURVE",
"374 3 LINE",
"440 -85 OFFCURVE",
"500 -124 OFFCURVE",
"571 -124 CURVE SMOOTH"
);
},
{
closed = 1;
nodes = (
"176 16 OFFCURVE",
"59 161 OFFCURVE",
"97 350 CURVE SMOOTH",
"135 539 OFFCURVE",
"310 684 OFFCURVE",
"503 684 CURVE SMOOTH",
"696 684 OFFCURVE",
"813 539 OFFCURVE",
"775 350 CURVE SMOOTH",
"737 161 OFFCURVE",
"562 16 OFFCURVE",
"369 16 CURVE SMOOTH"
);
}
);
};
layerId = UUID0;
paths = (
{
closed = 1;
nodes = (
"570 -3 OFFCURVE",
"755 148 OFFCURVE",
"795 350 CURVE SMOOTH",
"835 552 OFFCURVE",
"711 703 OFFCURVE",
"506 703 CURVE SMOOTH",
"301 703 OFFCURVE",
"117 552 OFFCURVE",
"77 350 CURVE SMOOTH",
"37 148 OFFCURVE",
"160 -3 OFFCURVE",
"365 -3 CURVE SMOOTH"
);
},
{
closed = 1;
nodes = (
"634 -124 OFFCURVE",
"694 -98 OFFCURVE",
"745 -48 CURVE",
"734 -34 LINE",
"685 -82 OFFCURVE",
"633 -105 OFFCURVE",
"575 -105 CURVE SMOOTH",
"512 -105 OFFCURVE",
"454 -67 OFFCURVE",
"401 8 CURVE",
"374 3 LINE",
"440 -85 OFFCURVE",
"500 -124 OFFCURVE",
"571 -124 CURVE SMOOTH"
);
},
{
closed = 1;
nodes = (
"176 16 OFFCURVE",
"59 161 OFFCURVE",
"97 350 CURVE SMOOTH",
"135 539 OFFCURVE",
"310 684 OFFCURVE",
"503 684 CURVE SMOOTH",
"696 684 OFFCURVE",
"813 539 OFFCURVE",
"775 350 CURVE SMOOTH",
"737 161 OFFCURVE",
"562 16 OFFCURVE",
"369 16 CURVE SMOOTH"
);
}
);
width = 836;
},
{
anchors = (
{
name = top;
position = "{510, 700}";
}
);
background = {
anchors = (
{
name = top;
position = "{510, 700}";
}
);
paths = (
{
closed = 1;
nodes = (
"594 -16 OFFCURVE",
"792 138 OFFCURVE",
"834 350 CURVE SMOOTH",
"876 562 OFFCURVE",
"740 716 OFFCURVE",
"512 716 CURVE SMOOTH",
"284 716 OFFCURVE",
"86 562 OFFCURVE",
"44 350 CURVE SMOOTH",
"2 138 OFFCURVE",
"138 -16 OFFCURVE",
"366 -16 CURVE SMOOTH"
);
},
{
closed = 1;
nodes = (
"647 -177 OFFCURVE",
"724 -146 OFFCURVE",
"784 -88 CURVE",
"706 32 LINE",
"672 3 OFFCURVE",
"634 -13 OFFCURVE",
"600 -13 CURVE SMOOTH",
"558 -13 OFFCURVE",
"539 6 OFFCURVE",
"507 80 CURVE",
"251 20 LINE",
"360 -133 OFFCURVE",
"431 -177 OFFCURVE",
"563 -177 CURVE SMOOTH"
);
},
{
closed = 1;
nodes = (
"317 175 OFFCURVE",
"260 241 OFFCURVE",
"282 350 CURVE SMOOTH",
"304 459 OFFCURVE",
"387 525 OFFCURVE",
"474 525 CURVE SMOOTH",
"561 525 OFFCURVE",
"618 459 OFFCURVE",
"596 350 CURVE SMOOTH",
"574 241 OFFCURVE",
"491 175 OFFCURVE",
"404 175 CURVE SMOOTH"
);
}
);
};
layerId = "5DA6E103-6A94-47F2-987D-4952DB8EA68E";
paths = (
{
closed = 1;
nodes = (
"653 -16 OFFCURVE",
"837 156 OFFCURVE",
"837 403 CURVE SMOOTH",
"837 587 OFFCURVE",
"700 716 OFFCURVE",
"482 716 CURVE SMOOTH",
"225 716 OFFCURVE",
"41 544 OFFCURVE",
"41 297 CURVE SMOOTH",
"41 113 OFFCURVE",
"178 -16 OFFCURVE",
"396 -16 CURVE SMOOTH"
);
},
{
closed = 1;
nodes = (
"667 -177 OFFCURVE",
"743 -154 OFFCURVE",
"794 -107 CURVE",
"709 30 LINE",
"678 3 OFFCURVE",
"639 -13 OFFCURVE",
"605 -13 CURVE SMOOTH",
"559 -13 OFFCURVE",
"535 6 OFFCURVE",
"516 80 CURVE",
"261 30 LINE",
"327 -111 OFFCURVE",
"431 -177 OFFCURVE",
"583 -177 CURVE SMOOTH"
);
},
{
closed = 1;
nodes = (
"330 175 OFFCURVE",
"279 230 OFFCURVE",
"279 311 CURVE SMOOTH",
"279 426 OFFCURVE",
"346 525 OFFCURVE",
"462 525 CURVE SMOOTH",
"548 525 OFFCURVE",
"599 470 OFFCURVE",
"599 389 CURVE SMOOTH",
"599 274 OFFCURVE",
"532 175 OFFCURVE",
"416 175 CURVE SMOOTH"
);
}
);
width = 848;
}
);
leftKerningGroup = O;
leftMetricsKey = O;
widthMetricsKey = O;
rightKerningGroup = O;
unicode = 0051;
},
{
color = 3;
glyphname = R;
lastChange = "2017-09-12 15:19:43 +0000";
layers = (
{
anchors = (
{
name = bottom;
position = "{314, 0}";
},
{
name = top;
position = "{454, 700}";
}
);
background = {
anchors = (
{
name = bottom;
position = "{314, 0}";
},
{
name = top;
position = "{454, 700}";
}
);
paths = (
{
closed = 1;
nodes = (
"101 0 LINE",
"151 249 LINE",
"140 240 LINE",
"366 240 LINE SMOOTH",
"538 240 OFFCURVE",
"658 325 OFFCURVE",
"687 470 CURVE SMOOTH",
"716 615 OFFCURVE",
"630 700 OFFCURVE",
"458 700 CURVE SMOOTH",
"221 700 LINE",
"81 0 LINE"
);
},
{
closed = 1;
nodes = (
"603 0 LINE",
"471 254 LINE",
"446 254 LINE",
"578 0 LINE"
);
},
{
closed = 1;
nodes = (
"239 689 LINE",
"228 681 LINE",
"456 681 LINE SMOOTH",
"620 681 OFFCURVE",
"694 604 OFFCURVE",
"667 470 CURVE SMOOTH",
"640 336 OFFCURVE",
"536 259 OFFCURVE",
"372 259 CURVE SMOOTH",
"144 259 LINE",
"151 251 LINE"
);
}
);
};
layerId = UUID0;
paths = (
{
closed = 1;
nodes = (
"101 0 LINE",
"151 249 LINE",
"140 240 LINE",
"366 240 LINE SMOOTH",
"538 240 OFFCURVE",
"658 325 OFFCURVE",
"687 470 CURVE SMOOTH",
"716 615 OFFCURVE",
"630 700 OFFCURVE",
"458 700 CURVE SMOOTH",
"221 700 LINE",
"81 0 LINE"
);
},
{
closed = 1;
nodes = (
"603 0 LINE",
"471 254 LINE",
"446 254 LINE",
"578 0 LINE"
);
},
{
closed = 1;
nodes = (
"239 689 LINE",
"228 681 LINE",
"456 681 LINE SMOOTH",
"620 681 OFFCURVE",
"694 604 OFFCURVE",
"667 470 CURVE SMOOTH",
"640 336 OFFCURVE",
"536 259 OFFCURVE",
"372 259 CURVE SMOOTH",
"144 259 LINE",
"151 251 LINE"
);
}
);
width = 716;
},
{
anchors = (
{
name = bottom;
position = "{324, 0}";
},
{
name = top;
position = "{464, 700}";
}
);
background = {
anchors = (
{
name = bottom;
position = "{324, 0}";
},
{
name = top;
position = "{464, 700}";
}
);
paths = (
{
closed = 1;
nodes = (
"238 0 LINE",
"293 273 LINE",
"168 176 LINE",
"374 176 LINE SMOOTH",
"569 176 OFFCURVE",
"713 274 OFFCURVE",
"745 436 CURVE SMOOTH",
"777 598 OFFCURVE",
"674 700 OFFCURVE",
"479 700 CURVE SMOOTH",
"142 700 LINE",
"2 0 LINE"
);
},
{
closed = 1;
nodes = (
"673 0 LINE",
"550 255 LINE",
"300 255 LINE",
"421 0 LINE"
);
},
{
closed = 1;
nodes = (
"363 625 LINE",
"237 518 LINE",
"428 518 LINE SMOOTH",
"493 518 OFFCURVE",
"517 487 OFFCURVE",
"507 436 CURVE SMOOTH",
"497 385 OFFCURVE",
"460 354 OFFCURVE",
"395 354 CURVE SMOOTH",
"204 354 LINE",
"287 247 LINE"
);
}
);
};
layerId = "5DA6E103-6A94-47F2-987D-4952DB8EA68E";
paths = (
{
closed = 1;
nodes = (
"238 0 LINE",
"293 275 LINE",
"167 176 LINE",
"393 176 LINE SMOOTH",
"608 176 OFFCURVE",
"747 294 OFFCURVE",
"747 470 CURVE SMOOTH",
"747 615 OFFCURVE",
"641 700 OFFCURVE",
"456 700 CURVE SMOOTH",
"142 700 LINE",
"2 0 LINE"
);
},
{
closed = 1;
nodes = (
"675 0 LINE",
"529 255 LINE",
"286 255 LINE",
"430 0 LINE"
);
},
{
closed = 1;
nodes = (
"363 628 LINE",
"237 518 LINE",
"420 518 LINE SMOOTH",
"474 518 OFFCURVE",
"508 497 OFFCURVE",
"508 447 CURVE SMOOTH",
"508 388 OFFCURVE",
"470 354 OFFCURVE",
"405 354 CURVE SMOOTH",
"204 354 LINE",
"287 247 LINE"
);
}
);
width = 745;
}
);
leftKerningGroup = H;
leftMetricsKey = H;
rightKerningGroup = R;
unicode = 0052;
},
{
glyphname = S;
lastChange = "2017-09-11 21:11:09 +0000";
layers = (
{
anchors = (
{
name = bottom;
position = "{266, 0}";
},
{
name = top;
position = "{406, 700}";
}
);
background = {
anchors = (
{
name = bottom;
position = "{266, 0}";
},
{
name = top;
position = "{406, 700}";
}
);
paths = (
{
closed = 1;
nodes = (
"417 -3 OFFCURVE",
"507 79 OFFCURVE",
"525 172 CURVE SMOOTH",
"576 425 OFFCURVE",
"104 290 OFFCURVE",
"151 526 CURVE SMOOTH",
"168 613 OFFCURVE",
"251 684 OFFCURVE",
"398 684 CURVE SMOOTH",
"461 684 OFFCURVE",
"529 664 OFFCURVE",
"576 623 CURVE",
"591 639 LINE",
"547 678 OFFCURVE",
"475 703 OFFCURVE",
"400 703 CURVE SMOOTH",
"236 703 OFFCURVE",
"150 619 OFFCURVE",
"131 527 CURVE SMOOTH",
"80 269 OFFCURVE",
"552 407 OFFCURVE",
"505 172 CURVE SMOOTH",
"488 86 OFFCURVE",
"406 16 OFFCURVE",
"254 16 CURVE SMOOTH",
"156 16 OFFCURVE",
"75 57 OFFCURVE",
"42 109 CURVE",
"25 96 LINE",
"61 38 OFFCURVE",
"149 -3 OFFCURVE",
"251 -3 CURVE SMOOTH"
);
}
);
};
layerId = UUID0;
paths = (
{
closed = 1;
nodes = (
"417 -3 OFFCURVE",
"507 79 OFFCURVE",
"525 172 CURVE SMOOTH",
"576 425 OFFCURVE",
"104 290 OFFCURVE",
"151 526 CURVE SMOOTH",
"168 613 OFFCURVE",
"251 684 OFFCURVE",
"398 684 CURVE SMOOTH",
"461 684 OFFCURVE",
"529 664 OFFCURVE",
"576 623 CURVE",
"591 639 LINE",
"547 678 OFFCURVE",
"475 703 OFFCURVE",
"400 703 CURVE SMOOTH",
"236 703 OFFCURVE",
"150 619 OFFCURVE",
"131 527 CURVE SMOOTH",
"80 269 OFFCURVE",
"552 407 OFFCURVE",
"505 172 CURVE SMOOTH",
"488 86 OFFCURVE",
"406 16 OFFCURVE",
"254 16 CURVE SMOOTH",
"156 16 OFFCURVE",
"75 57 OFFCURVE",
"42 109 CURVE",
"25 96 LINE",
"61 38 OFFCURVE",
"149 -3 OFFCURVE",
"251 -3 CURVE SMOOTH"
);
}
);
width = 601;
},
{
anchors = (
{
name = bottom;
position = "{274, 0}";
},
{
name = top;
position = "{414, 700}";
}
);
background = {
anchors = (
{
name = bottom;
position = "{274, 0}";
},
{
name = top;
position = "{414, 700}";
}
);
paths = (
{
closed = 1;
nodes = (
"477 -16 OFFCURVE",
"607 92 OFFCURVE",
"633 220 CURVE SMOOTH",
"685 478 OFFCURVE",
"284 408 OFFCURVE",
"300 492 CURVE SMOOTH",
"305 516 OFFCURVE",
"331 536 OFFCURVE",
"400 536 CURVE SMOOTH",
"461 536 OFFCURVE",
"523 519 OFFCURVE",
"585 484 CURVE",
"690 655 LINE",
"625 696 OFFCURVE",
"532 716 OFFCURVE",
"438 716 CURVE SMOOTH",
"221 716 OFFCURVE",
"91 610 OFFCURVE",
"65 480 CURVE SMOOTH",
"13 219 OFFCURVE",
"414 290 OFFCURVE",
"396 202 CURVE SMOOTH",
"392 178 OFFCURVE",
"365 164 OFFCURVE",
"298 164 CURVE SMOOTH",
"221 164 OFFCURVE",
"138 189 OFFCURVE",
"80 228 CURVE",
"-31 56 LINE",
"31 13 OFFCURVE",
"143 -16 OFFCURVE",
"260 -16 CURVE SMOOTH"
);
}
);
};
layerId = "5DA6E103-6A94-47F2-987D-4952DB8EA68E";
paths = (
{
closed = 1;
nodes = (
"477 -16 OFFCURVE",
"607 92 OFFCURVE",
"633 220 CURVE SMOOTH",
"685 478 OFFCURVE",
"284 408 OFFCURVE",
"300 492 CURVE SMOOTH",
"305 516 OFFCURVE",
"331 536 OFFCURVE",
"400 536 CURVE SMOOTH",
"461 536 OFFCURVE",
"523 519 OFFCURVE",
"585 484 CURVE",
"690 655 LINE",
"625 696 OFFCURVE",
"532 716 OFFCURVE",
"438 716 CURVE SMOOTH",
"221 716 OFFCURVE",
"91 610 OFFCURVE",
"65 480 CURVE SMOOTH",
"13 219 OFFCURVE",
"414 290 OFFCURVE",
"396 202 CURVE SMOOTH",
"392 178 OFFCURVE",
"365 164 OFFCURVE",
"298 164 CURVE SMOOTH",
"221 164 OFFCURVE",
"138 189 OFFCURVE",
"80 228 CURVE",
"-31 56 LINE",
"31 13 OFFCURVE",
"143 -16 OFFCURVE",
"260 -16 CURVE SMOOTH"
);
}
);
width = 657;
}
);
leftKerningGroup = S;
rightKerningGroup = S;
unicode = 0053;
},
{
glyphname = T;
lastChange = "2017-09-11 21:11:09 +0000";
layers = (
{
anchors = (
{
name = bottom;
position = "{222, 0}";
},
{
name = center;
position = "{293, 356}";
},
{
name = top;
position = "{362, 700}";
}
);
background = {
anchors = (
{
name = bottom;
position = "{222, 0}";
},
{
name = center;
position = "{293, 356}";
},
{
name = top;
position = "{362, 700}";
}
);
paths = (
{
closed = 1;
nodes = (
"232 0 LINE",
"368 681 LINE",
"628 681 LINE",
"632 700 LINE",
"92 700 LINE",
"88 681 LINE",
"348 681 LINE",
"212 0 LINE"
);
}
);
};
layerId = UUID0;
paths = (
{
closed = 1;
nodes = (
"232 0 LINE",
"368 681 LINE",
"628 681 LINE",
"632 700 LINE",
"92 700 LINE",
"88 681 LINE",
"348 681 LINE",
"212 0 LINE"
);
}
);
width = 548;
},
{
anchors = (
{
name = bottom;
position = "{272, 0}";
},
{
name = center;
position = "{335, 315}";
},
{
name = top;
position = "{412, 700}";
}
);
background = {
anchors = (
{
name = bottom;
position = "{272, 0}";
},
{
name = center;
position = "{335, 315}";
},
{
name = top;
position = "{412, 700}";
}
);
paths = (
{
closed = 1;
nodes = (
"390 0 LINE",
"493 517 LINE",
"698 517 LINE",
"735 700 LINE",
"89 700 LINE",
"52 517 LINE",
"257 517 LINE",
"154 0 LINE"
);
}
);
};
layerId = "5DA6E103-6A94-47F2-987D-4952DB8EA68E";
paths = (
{
closed = 1;
nodes = (
"390 0 LINE",
"493 517 LINE",
"698 517 LINE",
"735 700 LINE",
"89 700 LINE",
"52 517 LINE",
"257 517 LINE",
"154 0 LINE"
);
}
);
width = 654;
}
);
leftKerningGroup = T;
rightKerningGroup = T;
rightMetricsKey = "=|";
unicode = 0054;
},
{
glyphname = U;
lastChange = "2017-09-11 21:11:09 +0000";
layers = (
{
anchors = (
{
name = bottom;
position = "{345, 0}";
},
{
name = ogonek;
position = "{531, 0}";
},
{
name = top;
position = "{485, 700}";
},
{
name = topright;
position = "{760, 700}";
}
);
background = {
anchors = (
{
name = bottom;
position = "{345, 0}";
},
{
name = ogonek;
position = "{531, 0}";
},
{
name = top;
position = "{485, 700}";
},
{
name = topright;
position = "{760, 700}";
}
);
paths = (
{
closed = 1;
nodes = (
"511 -3 OFFCURVE",
"634 95 OFFCURVE",
"674 293 CURVE SMOOTH",
"755 700 LINE",
"735 700 LINE",
"654 294 LINE SMOOTH",
"616 107 OFFCURVE",
"507 16 OFFCURVE",
"348 16 CURVE SMOOTH",
"189 16 OFFCURVE",
"116 107 OFFCURVE",
"154 294 CURVE SMOOTH",
"235 700 LINE",
"215 700 LINE",
"134 293 LINE SMOOTH",
"94 95 OFFCURVE",
"177 -3 OFFCURVE",
"344 -3 CURVE SMOOTH"
);
}
);
};
layerId = UUID0;
paths = (
{
closed = 1;
nodes = (
"511 -3 OFFCURVE",
"634 95 OFFCURVE",
"674 293 CURVE SMOOTH",
"755 700 LINE",
"735 700 LINE",
"654 294 LINE SMOOTH",
"616 107 OFFCURVE",
"507 16 OFFCURVE",
"348 16 CURVE SMOOTH",
"189 16 OFFCURVE",
"116 107 OFFCURVE",
"154 294 CURVE SMOOTH",
"235 700 LINE",
"215 700 LINE",
"134 293 LINE SMOOTH",
"94 95 OFFCURVE",
"177 -3 OFFCURVE",
"344 -3 CURVE SMOOTH"
);
}
);
width = 794;
},
{
anchors = (
{
name = bottom;
position = "{339, 0}";
},
{
name = ogonek;
position = "{565, 0}";
},
{
name = top;
position = "{479, 700}";
},
{
name = topright;
position = "{725, 700}";
}
);
background = {
anchors = (
{
name = bottom;
position = "{339, 0}";
},
{
name = ogonek;
position = "{565, 0}";
},
{
name = top;
position = "{479, 700}";
},
{
name = topright;
position = "{725, 700}";
}
);
paths = (
{
closed = 1;
nodes = (
"549 -16 OFFCURVE",
"699 105 OFFCURVE",
"741 315 CURVE SMOOTH",
"818 700 LINE",
"586 700 LINE",
"510 322 LINE SMOOTH",
"489 215 OFFCURVE",
"440 175 OFFCURVE",
"374 175 CURVE SMOOTH",
"308 175 OFFCURVE",
"275 215 OFFCURVE",
"296 322 CURVE SMOOTH",
"372 700 LINE",
"136 700 LINE",
"59 315 LINE SMOOTH",
"17 105 OFFCURVE",
"119 -16 OFFCURVE",
"334 -16 CURVE SMOOTH"
);
}
);
};
layerId = "5DA6E103-6A94-47F2-987D-4952DB8EA68E";
paths = (
{
closed = 1;
nodes = (
"549 -16 OFFCURVE",
"699 105 OFFCURVE",
"741 315 CURVE SMOOTH",
"818 700 LINE",
"586 700 LINE",
"510 322 LINE SMOOTH",
"489 215 OFFCURVE",
"440 175 OFFCURVE",
"374 175 CURVE SMOOTH",
"308 175 OFFCURVE",
"275 215 OFFCURVE",
"296 322 CURVE SMOOTH",
"372 700 LINE",
"136 700 LINE",
"59 315 LINE SMOOTH",
"17 105 OFFCURVE",
"119 -16 OFFCURVE",
"334 -16 CURVE SMOOTH"
);
}
);
width = 784;
}
);
leftKerningGroup = U;
rightKerningGroup = U;
rightMetricsKey = "=|";
unicode = 0055;
},
{
glyphname = V;
lastChange = "2017-09-11 21:11:09 +0000";
layers = (
{
background = {
paths = (
{
closed = 1;
nodes = (
"293 0 LINE",
"748 700 LINE",
"725 700 LINE",
"281 16 LINE",
"291 16 LINE",
"121 700 LINE",
"98 700 LINE",
"273 0 LINE"
);
}
);
};
layerId = UUID0;
paths = (
{
closed = 1;
nodes = (
"293 0 LINE",
"748 700 LINE",
"725 700 LINE",
"281 16 LINE",
"291 16 LINE",
"121 700 LINE",
"98 700 LINE",
"273 0 LINE"
);
}
);
width = 670;
},
{
background = {
paths = (
{
closed = 1;
nodes = (
"454 0 LINE",
"890 700 LINE",
"658 700 LINE",
"292 109 LINE",
"443 109 LINE",
"320 700 LINE",
"66 700 LINE",
"222 0 LINE"
);
}
);
};
guideLines = (
{
angle = 113.6122;
position = "{433, 350}";
}
);
layerId = "5DA6E103-6A94-47F2-987D-4952DB8EA68E";
paths = (
{
closed = 1;
nodes = (
"454 0 LINE",
"890 700 LINE",
"658 700 LINE",
"292 109 LINE",
"443 109 LINE",
"320 700 LINE",
"66 700 LINE",
"222 0 LINE"
);
}
);
width = 786;
}
);
leftKerningGroup = V;
rightKerningGroup = V;
rightMetricsKey = "=|";
unicode = 0056;
},
{
glyphname = W;
lastChange = "2017-09-11 21:11:09 +0000";
layers = (
{
anchors = (
{
name = bottom;
position = "{488, 0}";
},
{
name = top;
position = "{628, 700}";
}
);
background = {
anchors = (
{
name = bottom;
position = "{488, 0}";
},
{
name = top;
position = "{628, 700}";
}
);
paths = (
{
closed = 1;
nodes = (
"253 0 LINE",
"625 678 LINE",
"621 678 LINE",
"723 0 LINE",
"743 0 LINE",
"1123 700 LINE",
"1102 700 LINE",
"731 16 LINE",
"741 16 LINE",
"638 700 LINE",
"618 700 LINE",
"241 16 LINE",
"252 16 LINE",
"155 700 LINE",
"133 700 LINE",
"233 0 LINE"
);
}
);
};
layerId = UUID0;
paths = (
{
closed = 1;
nodes = (
"253 0 LINE",
"625 678 LINE",
"621 678 LINE",
"723 0 LINE",
"743 0 LINE",
"1123 700 LINE",
"1102 700 LINE",
"731 16 LINE",
"741 16 LINE",
"638 700 LINE",
"618 700 LINE",
"241 16 LINE",
"252 16 LINE",
"155 700 LINE",
"133 700 LINE",
"233 0 LINE"
);
}
);
width = 1080;
},
{
anchors = (
{
name = bottom;
position = "{548, 0}";
},
{
name = top;
position = "{688, 700}";
}
);
background = {
anchors = (
{
name = bottom;
position = "{548, 0}";
},
{
name = top;
position = "{688, 700}";
}
);
paths = (
{
closed = 1;
nodes = (
"432 0 LINE",
"683 484 LINE",
"615 484 LINE",
"664 0 LINE",
"917 0 LINE",
"1281 700 LINE",
"1057 700 LINE",
"750 109 LINE",
"867 109 LINE",
"806 700 LINE",
"589 700 LINE",
"279 109 LINE",
"401 109 LINE",
"338 700 LINE",
"95 700 LINE",
"179 0 LINE"
);
}
);
};
layerId = "5DA6E103-6A94-47F2-987D-4952DB8EA68E";
paths = (
{
closed = 1;
nodes = (
"432 0 LINE",
"683 484 LINE",
"615 484 LINE",
"664 0 LINE",
"917 0 LINE",
"1281 700 LINE",
"1057 700 LINE",
"750 109 LINE",
"867 109 LINE",
"806 700 LINE",
"589 700 LINE",
"279 109 LINE",
"401 109 LINE",
"338 700 LINE",
"95 700 LINE",
"179 0 LINE"
);
}
);
width = 1206;
},
{
anchors = (
{
name = bottom;
position = "{561, 0}";
},
{
name = top;
position = "{561, 701}";
}
);
associatedMasterId = "5DA6E103-6A94-47F2-987D-4952DB8EA68E";
layerId = "EEA8680D-1FF3-40CE-9363-051D7C06078A";
name = "Nov 24 16, 19:29";
paths = (
{
closed = 1;
nodes = (
"222 0 LINE",
"461 0 LINE",
"561 419 LINE",
"658 0 LINE",
"897 0 LINE",
"1126 701 LINE",
"889 701 LINE",
"785 241 LINE",
"679 701 LINE",
"453 701 LINE",
"349 241 LINE",
"243 701 LINE",
"-5 701 LINE"
);
}
);
width = 1121;
},
{
anchors = (
{
name = bottom;
position = "{518, 0}";
},
{
name = top;
position = "{518, 700}";
}
);
associatedMasterId = UUID0;
layerId = "E72032C1-AF8F-44ED-9FB4-9F328EEA5C08";
name = "Nov 24 16, 19:29";
paths = (
{
closed = 1;
nodes = (
"235.462 0 LINE",
"357.077 0 LINE",
"524.923 554.692 LINE",
"690.846 0 LINE",
"812.462 0 LINE",
"1045.77 699.923 LINE",
"924 699.923 LINE",
"755.385 123.615 LINE",
"585.308 699.923 LINE",
"469 700 LINE",
"300 123.615 LINE",
"129.923 699.923 LINE",
"3.077 699.923 LINE"
);
}
);
width = 1036;
}
);
leftKerningGroup = V;
rightKerningGroup = V;
rightMetricsKey = "=|";
unicode = 0057;
},
{
glyphname = X;
lastChange = "2017-09-11 21:11:09 +0000";
layers = (
{
background = {
paths = (
{
closed = 1;
nodes = (
"-3 0 LINE",
"331 351 LINE",
"325 351 LINE",
"519 0 LINE",
"544 0 LINE",
"341 366 LINE",
"340 358 LINE",
"664 700 LINE",
"640 700 LINE",
"331 373 LINE",
"337 373 LINE",
"158 700 LINE",
"133 700 LINE",
"323 354 LINE",
"326 370 LINE",
"-27 0 LINE"
);
}
);
};
layerId = UUID0;
paths = (
{
closed = 1;
nodes = (
"-3 0 LINE",
"331 351 LINE",
"325 351 LINE",
"519 0 LINE",
"544 0 LINE",
"341 366 LINE",
"340 358 LINE",
"664 700 LINE",
"640 700 LINE",
"331 373 LINE",
"337 373 LINE",
"158 700 LINE",
"133 700 LINE",
"323 354 LINE",
"326 370 LINE",
"-27 0 LINE"
);
}
);
width = 621;
},
{
background = {
paths = (
{
closed = 1;
nodes = (
"206 0 LINE",
"433 273 LINE",
"323 272 LINE",
"445 0 LINE",
"715 0 LINE",
"487 444 LINE",
"454 280 LINE",
"840 700 LINE",
"586 700 LINE",
"362 439 LINE",
"475 440 LINE",
"351 700 LINE",
"86 700 LINE",
"302 271 LINE",
"336 436 LINE",
"-63 0 LINE"
);
}
);
};
layerId = "5DA6E103-6A94-47F2-987D-4952DB8EA68E";
paths = (
{
closed = 1;
nodes = (
"206 0 LINE",
"433 273 LINE",
"323 272 LINE",
"445 0 LINE",
"715 0 LINE",
"487 444 LINE",
"454 280 LINE",
"840 700 LINE",
"586 700 LINE",
"362 439 LINE",
"475 440 LINE",
"351 700 LINE",
"86 700 LINE",
"302 271 LINE",
"336 436 LINE",
"-63 0 LINE"
);
}
);
width = 762;
},
{
associatedMasterId = UUID0;
background = {
paths = (
{
closed = 0;
nodes = (
"551 699 LINE",
"47 0 LINE"
);
},
{
closed = 0;
nodes = (
"66 699 LINE",
"570 0 LINE"
);
}
);
};
layerId = "BC3F43BB-9F1F-4863-A9A9-2B20CB3BE0AF";
name = "Light Mar 13 12, 18:48";
paths = (
{
closed = 1;
nodes = (
"35 0 LINE",
"59 0 LINE",
"563 699 LINE",
"539 699 LINE"
);
},
{
closed = 1;
nodes = (
"558 0 LINE",
"582 0 LINE",
"78 699 LINE",
"54 699 LINE"
);
}
);
width = 617;
}
);
leftKerningGroup = X;
rightKerningGroup = X;
rightMetricsKey = "=|";
unicode = 0058;
},
{
glyphname = Y;
lastChange = "2017-09-11 21:11:09 +0000";
layers = (
{
anchors = (
{
name = bottom;
position = "{253, 0}";
},
{
name = top;
position = "{393, 700}";
}
);
background = {
anchors = (
{
name = bottom;
position = "{253, 0}";
},
{
name = top;
position = "{393, 700}";
}
);
paths = (
{
closed = 1;
nodes = (
"263 0 LINE",
"312 245 LINE",
"304 230 LINE",
"688 700 LINE",
"665 700 LINE",
"300 253 LINE",
"308 253 LINE",
"121 700 LINE",
"98 700 LINE",
"294 230 LINE",
"292 245 LINE",
"243 0 LINE"
);
}
);
};
layerId = UUID0;
paths = (
{
closed = 1;
nodes = (
"263 0 LINE",
"312 245 LINE",
"304 230 LINE",
"688 700 LINE",
"665 700 LINE",
"300 253 LINE",
"308 253 LINE",
"121 700 LINE",
"98 700 LINE",
"294 230 LINE",
"292 245 LINE",
"243 0 LINE"
);
}
);
width = 610;
},
{
anchors = (
{
name = bottom;
position = "{300, 0}";
},
{
name = top;
position = "{440, 700}";
}
);
background = {
anchors = (
{
name = bottom;
position = "{300, 0}";
},
{
name = top;
position = "{440, 700}";
}
);
paths = (
{
closed = 1;
nodes = (
"418 0 LINE",
"479 307 LINE",
"399 166 LINE",
"822 700 LINE",
"594 700 LINE",
"304 335 LINE",
"449 335 LINE",
"307 700 LINE",
"58 700 LINE",
"269 166 LINE",
"243 307 LINE",
"182 0 LINE"
);
}
);
};
layerId = "5DA6E103-6A94-47F2-987D-4952DB8EA68E";
paths = (
{
closed = 1;
nodes = (
"418 0 LINE",
"479 307 LINE",
"399 166 LINE",
"822 700 LINE",
"594 700 LINE",
"304 335 LINE",
"449 335 LINE",
"307 700 LINE",
"58 700 LINE",
"269 166 LINE",
"243 307 LINE",
"182 0 LINE"
);
}
);
width = 710;
}
);
leftKerningGroup = Y;
rightKerningGroup = Y;
rightMetricsKey = "=|";
unicode = 0059;
},
{
glyphname = Z;
lastChange = "2017-09-11 21:11:09 +0000";
layers = (
{
anchors = (
{
name = bottom;
position = "{283, 0}";
},
{
name = top;
position = "{413, 700}";
}
);
background = {
anchors = (
{
name = bottom;
position = "{283, 0}";
},
{
name = top;
position = "{413, 700}";
}
);
paths = (
{
closed = 1;
nodes = (
"548 0 LINE",
"552 19 LINE",
"24 19 LINE",
"23 12 LINE",
"675 685 LINE",
"678 700 LINE",
"143 700 LINE",
"139 681 LINE",
"652 681 LINE",
"652 688 LINE",
"1 15 LINE",
"-2 0 LINE"
);
}
);
};
layerId = UUID0;
paths = (
{
closed = 1;
nodes = (
"548 0 LINE",
"552 19 LINE",
"24 19 LINE",
"23 12 LINE",
"675 685 LINE",
"678 700 LINE",
"143 700 LINE",
"139 681 LINE",
"652 681 LINE",
"652 688 LINE",
"1 15 LINE",
"-2 0 LINE"
);
}
);
width = 639;
},
{
anchors = (
{
name = bottom;
position = "{299, 0}";
},
{
name = top;
position = "{439, 700}";
}
);
background = {
anchors = (
{
name = bottom;
position = "{299, 0}";
},
{
name = top;
position = "{439, 700}";
}
);
paths = (
{
closed = 1;
nodes = (
"620 0 LINE",
"657 183 LINE",
"222 183 LINE",
"234 101 LINE",
"715 555 LINE",
"744 700 LINE",
"127 700 LINE",
"90 517 LINE",
"499 517 LINE",
"487 599 LINE",
"6 145 LINE",
"-23 0 LINE"
);
}
);
};
layerId = "5DA6E103-6A94-47F2-987D-4952DB8EA68E";
paths = (
{
closed = 1;
nodes = (
"620 0 LINE",
"657 183 LINE",
"222 183 LINE",
"234 101 LINE",
"715 555 LINE",
"744 700 LINE",
"127 700 LINE",
"90 517 LINE",
"499 517 LINE",
"487 599 LINE",
"6 145 LINE",
"-23 0 LINE"
);
}
);
width = 687;
}
);
leftKerningGroup = Z;
rightKerningGroup = Z;
unicode = 005A;
},
{
glyphname = A.ss01;
lastChange = "2017-09-11 21:11:09 +0000";
layers = (
{
anchors = (
{
name = bottom;
position = "{350, 0}";
},
{
name = ogonek;
position = "{625, 0}";
},
{
name = top;
position = "{490, 700}";
},
{
name = topleft;
position = "{179, 700}";
}
);
background = {
anchors = (
{
name = bottom;
position = "{350, 0}";
},
{
name = ogonek;
position = "{625, 0}";
},
{
name = top;
position = "{490, 700}";
},
{
name = topleft;
position = "{179, 700}";
}
);
paths = (
{
closed = 1;
nodes = (
"95 0 LINE",
"177 409 LINE SMOOTH",
"213 593 OFFCURVE",
"328 684 OFFCURVE",
"487 684 CURVE SMOOTH",
"646 684 OFFCURVE",
"723 593 OFFCURVE",
"687 409 CURVE SMOOTH",
"605 0 LINE",
"625 0 LINE",
"706 407 LINE SMOOTH",
"746 605 OFFCURVE",
"657 703 OFFCURVE",
"490 703 CURVE SMOOTH",
"323 703 OFFCURVE",
"196 605 OFFCURVE",
"156 407 CURVE SMOOTH",
"75 0 LINE"
);
},
{
closed = 1;
nodes = (
"660 231 LINE",
"664 250 LINE",
"139 250 LINE",
"135 231 LINE"
);
}
);
};
layerId = UUID0;
paths = (
{
closed = 1;
nodes = (
"95 0 LINE",
"177 409 LINE SMOOTH",
"213 593 OFFCURVE",
"328 684 OFFCURVE",
"487 684 CURVE SMOOTH",
"646 684 OFFCURVE",
"723 593 OFFCURVE",
"687 409 CURVE SMOOTH",
"605 0 LINE",
"625 0 LINE",
"706 407 LINE SMOOTH",
"746 605 OFFCURVE",
"657 703 OFFCURVE",
"490 703 CURVE SMOOTH",
"323 703 OFFCURVE",
"196 605 OFFCURVE",
"156 407 CURVE SMOOTH",
"75 0 LINE"
);
},
{
closed = 1;
nodes = (
"660 231 LINE",
"664 250 LINE",
"139 250 LINE",
"135 231 LINE"
);
}
);
width = 804;
},
{
anchors = (
{
name = bottom;
position = "{341, 0}";
},
{
name = ogonek;
position = "{686, 0}";
},
{
name = top;
position = "{481, 700}";
},
{
name = topleft;
position = "{136, 700}";
}
);
background = {
anchors = (
{
name = bottom;
position = "{341, 0}";
},
{
name = ogonek;
position = "{686, 0}";
},
{
name = top;
position = "{481, 700}";
},
{
name = topleft;
position = "{136, 700}";
}
);
paths = (
{
closed = 1;
nodes = (
"232 0 LINE",
"311 393 LINE SMOOTH",
"329 483 OFFCURVE",
"382 525 OFFCURVE",
"446 525 CURVE SMOOTH",
"510 525 OFFCURVE",
"547 483 OFFCURVE",
"529 393 CURVE SMOOTH",
"450 0 LINE",
"686 0 LINE",
"761 373 LINE SMOOTH",
"804 592 OFFCURVE",
"688 716 OFFCURVE",
"484 716 CURVE SMOOTH",
"280 716 OFFCURVE",
"114 592 OFFCURVE",
"71 373 CURVE SMOOTH",
"-4 0 LINE"
);
},
{
closed = 1;
nodes = (
"562 141 LINE",
"598 319 LINE",
"208 319 LINE",
"172 141 LINE"
);
}
);
};
layerId = "5DA6E103-6A94-47F2-987D-4952DB8EA68E";
paths = (
{
closed = 1;
nodes = (
"232 0 LINE",
"311 393 LINE SMOOTH",
"329 483 OFFCURVE",
"382 525 OFFCURVE",
"446 525 CURVE SMOOTH",
"510 525 OFFCURVE",
"547 483 OFFCURVE",
"529 393 CURVE SMOOTH",
"450 0 LINE",
"686 0 LINE",
"761 373 LINE SMOOTH",
"804 592 OFFCURVE",
"688 716 OFFCURVE",
"484 716 CURVE SMOOTH",
"280 716 OFFCURVE",
"114 592 OFFCURVE",
"71 373 CURVE SMOOTH",
"-4 0 LINE"
);
},
{
closed = 1;
nodes = (
"562 141 LINE",
"598 319 LINE",
"208 319 LINE",
"172 141 LINE"
);
}
);
width = 792;
}
);
leftKerningGroup = A.ss01;
leftMetricsKey = U;
rightKerningGroup = A.ss01;
rightMetricsKey = "=|";
},
{
glyphname = E.ss01;
lastChange = "2017-09-11 21:11:09 +0000";
layers = (
{
anchors = (
{
name = bottom;
position = "{284, 0}";
},
{
name = ogonek;
position = "{511, 0}";
},
{
name = top;
position = "{424, 700}";
},
{
name = topleft;
position = "{156, 700}";
}
);
background = {
anchors = (
{
name = bottom;
position = "{284, 0}";
},
{
name = ogonek;
position = "{511, 0}";
},
{
name = top;
position = "{424, 700}";
},
{
name = topleft;
position = "{156, 700}";
}
);
paths = (
{
closed = 1;
nodes = (
"387 -3 OFFCURVE",
"491 32 OFFCURVE",
"556 92 CURVE",
"544 105 LINE",
"482 49 OFFCURVE",
"384 16 OFFCURVE",
"276 16 CURVE SMOOTH",
"114 16 OFFCURVE",
"50 85 OFFCURVE",
"70 185 CURVE SMOOTH",
"92 295 OFFCURVE",
"194 346 OFFCURVE",
"323 346 CURVE SMOOTH",
"486 346 LINE",
"490 365 LINE",
"326 365 LINE SMOOTH",
"208 365 OFFCURVE",
"147 421 OFFCURVE",
"167 520 CURVE SMOOTH",
"185 613 OFFCURVE",
"275 684 OFFCURVE",
"425 684 CURVE SMOOTH",
"502 684 OFFCURVE",
"568 664 OFFCURVE",
"619 627 CURVE",
"632 643 LINE",
"586 681 OFFCURVE",
"509 703 OFFCURVE",
"427 703 CURVE SMOOTH",
"266 703 OFFCURVE",
"167 621 OFFCURVE",
"147 521 CURVE SMOOTH",
"126 416 OFFCURVE",
"188 349 OFFCURVE",
"318 349 CURVE",
"316 362 LINE",
"185 362 OFFCURVE",
"73 301 OFFCURVE",
"50 184 CURVE SMOOTH",
"28 76 OFFCURVE",
"99 -3 OFFCURVE",
"271 -3 CURVE SMOOTH"
);
}
);
};
guideLines = (
{
angle = 90;
position = "{766, 250}";
}
);
layerId = UUID0;
paths = (
{
closed = 1;
nodes = (
"387 -3 OFFCURVE",
"491 32 OFFCURVE",
"556 92 CURVE",
"544 105 LINE",
"482 49 OFFCURVE",
"384 16 OFFCURVE",
"276 16 CURVE SMOOTH",
"114 16 OFFCURVE",
"50 85 OFFCURVE",
"70 185 CURVE SMOOTH",
"92 295 OFFCURVE",
"194 346 OFFCURVE",
"323 346 CURVE SMOOTH",
"486 346 LINE",
"490 365 LINE",
"326 365 LINE SMOOTH",
"208 365 OFFCURVE",
"147 421 OFFCURVE",
"167 520 CURVE SMOOTH",
"185 613 OFFCURVE",
"275 684 OFFCURVE",
"425 684 CURVE SMOOTH",
"502 684 OFFCURVE",
"568 664 OFFCURVE",
"619 627 CURVE",
"632 643 LINE",
"586 681 OFFCURVE",
"509 703 OFFCURVE",
"427 703 CURVE SMOOTH",
"266 703 OFFCURVE",
"167 621 OFFCURVE",
"147 521 CURVE SMOOTH",
"126 416 OFFCURVE",
"188 349 OFFCURVE",
"318 349 CURVE",
"316 362 LINE",
"185 362 OFFCURVE",
"73 301 OFFCURVE",
"50 184 CURVE SMOOTH",
"28 76 OFFCURVE",
"99 -3 OFFCURVE",
"271 -3 CURVE SMOOTH"
);
}
);
width = 614;
},
{
anchors = (
{
name = bottom;
position = "{320, 0}";
},
{
name = ogonek;
position = "{590, 0}";
},
{
name = top;
position = "{460, 700}";
},
{
name = topleft;
position = "{82, 700}";
}
);
background = {
anchors = (
{
name = bottom;
position = "{320, 0}";
},
{
name = ogonek;
position = "{590, 0}";
},
{
name = top;
position = "{460, 700}";
},
{
name = topleft;
position = "{82, 700}";
}
);
paths = (
{
closed = 1;
nodes = (
"445 -16 OFFCURVE",
"562 8 OFFCURVE",
"643 46 CURVE",
"608 217 LINE",
"540 184 OFFCURVE",
"449 164 OFFCURVE",
"380 164 CURVE SMOOTH",
"280 164 OFFCURVE",
"246 186 OFFCURVE",
"253 218 CURVE SMOOTH",
"258 247 OFFCURVE",
"286 266 OFFCURVE",
"340 266 CURVE SMOOTH",
"561 266 LINE",
"596 440 LINE",
"391 440 LINE SMOOTH",
"342 440 OFFCURVE",
"329 457 OFFCURVE",
"335 483 CURVE SMOOTH",
"341 515 OFFCURVE",
"382 536 OFFCURVE",
"468 536 CURVE SMOOTH",
"529 536 OFFCURVE",
"588 525 OFFCURVE",
"650 498 CURVE",
"748 670 LINE",
"683 698 OFFCURVE",
"592 716 OFFCURVE",
"495 716 CURVE SMOOTH",
"252 716 OFFCURVE",
"122 612 OFFCURVE",
"100 498 CURVE SMOOTH",
"82 409 OFFCURVE",
"135 333 OFFCURVE",
"277 333 CURVE",
"282 385 LINE",
"134 385 OFFCURVE",
"32 305 OFFCURVE",
"11 202 CURVE SMOOTH",
"-14 75 OFFCURVE",
"93 -16 OFFCURVE",
"335 -16 CURVE SMOOTH"
);
}
);
};
guideLines = (
{
angle = 90;
position = "{598, 239}";
}
);
layerId = "5DA6E103-6A94-47F2-987D-4952DB8EA68E";
paths = (
{
closed = 1;
nodes = (
"445 -16 OFFCURVE",
"562 8 OFFCURVE",
"643 46 CURVE",
"608 217 LINE",
"540 184 OFFCURVE",
"449 164 OFFCURVE",
"380 164 CURVE SMOOTH",
"280 164 OFFCURVE",
"246 186 OFFCURVE",
"253 218 CURVE SMOOTH",
"258 247 OFFCURVE",
"286 266 OFFCURVE",
"340 266 CURVE SMOOTH",
"561 266 LINE",
"596 440 LINE",
"391 440 LINE SMOOTH",
"342 440 OFFCURVE",
"329 457 OFFCURVE",
"335 483 CURVE SMOOTH",
"341 515 OFFCURVE",
"382 536 OFFCURVE",
"468 536 CURVE SMOOTH",
"529 536 OFFCURVE",
"588 525 OFFCURVE",
"650 498 CURVE",
"748 670 LINE",
"683 698 OFFCURVE",
"592 716 OFFCURVE",
"495 716 CURVE SMOOTH",
"252 716 OFFCURVE",
"122 612 OFFCURVE",
"100 498 CURVE SMOOTH",
"82 409 OFFCURVE",
"135 333 OFFCURVE",
"277 333 CURVE",
"282 385 LINE",
"134 385 OFFCURVE",
"32 305 OFFCURVE",
"11 202 CURVE SMOOTH",
"-14 75 OFFCURVE",
"93 -16 OFFCURVE",
"335 -16 CURVE SMOOTH"
);
}
);
width = 695;
},
{
anchors = (
{
name = bottom;
position = "{328, 0}";
},
{
name = ogonek;
position = "{614, 0}";
},
{
name = top;
position = "{336, 701}";
},
{
name = topleft;
position = "{-5, 701}";
}
);
associatedMasterId = "5DA6E103-6A94-47F2-987D-4952DB8EA68E";
background = {
paths = (
{
closed = 1;
nodes = (
"497 271 LINE",
"497 438 LINE",
"315 438 LINE SMOOTH",
"290 438 OFFCURVE",
"274 456 OFFCURVE",
"274 476 CURVE SMOOTH",
"274 508 OFFCURVE",
"313 525 OFFCURVE",
"366 525 CURVE SMOOTH",
"413 525 OFFCURVE",
"466 511 OFFCURVE",
"519 487 CURVE",
"592 656 LINE",
"535 688 OFFCURVE",
"430 711 OFFCURVE",
"336 711 CURVE SMOOTH",
"167 711 OFFCURVE",
"55 637 OFFCURVE",
"55 520 CURVE SMOOTH",
"55 457 OFFCURVE",
"87 396 OFFCURVE",
"137 369 CURVE",
"63 340 OFFCURVE",
"15 270 OFFCURVE",
"15 193 CURVE SMOOTH",
"15 69 OFFCURVE",
"139 -10 OFFCURVE",
"314 -10 CURVE SMOOTH",
"427 -10 OFFCURVE",
"546 23 OFFCURVE",
"615 67 CURVE",
"528 234 LINE",
"496 211 OFFCURVE",
"415 176 OFFCURVE",
"348 176 CURVE SMOOTH",
"296 176 OFFCURVE",
"255 197 OFFCURVE",
"255 230 CURVE SMOOTH",
"255 255 OFFCURVE",
"279 271 OFFCURVE",
"315 271 CURVE SMOOTH"
);
}
);
};
layerId = "E00D325B-A1B5-48B2-B215-FF596AA4E03F";
name = "Nov 24 16, 19:27";
paths = (
{
closed = 1;
nodes = (
"497 271 LINE",
"497 438 LINE",
"315 438 LINE SMOOTH",
"290 438 OFFCURVE",
"274 456 OFFCURVE",
"274 476 CURVE SMOOTH",
"274 508 OFFCURVE",
"313 525 OFFCURVE",
"366 525 CURVE SMOOTH",
"413 525 OFFCURVE",
"466 511 OFFCURVE",
"519 487 CURVE",
"592 656 LINE",
"535 688 OFFCURVE",
"430 711 OFFCURVE",
"336 711 CURVE SMOOTH",
"167 711 OFFCURVE",
"55 637 OFFCURVE",
"55 520 CURVE SMOOTH",
"55 457 OFFCURVE",
"87 396 OFFCURVE",
"137 369 CURVE",
"63 340 OFFCURVE",
"15 270 OFFCURVE",
"15 193 CURVE SMOOTH",
"15 69 OFFCURVE",
"139 -10 OFFCURVE",
"314 -10 CURVE SMOOTH",
"427 -10 OFFCURVE",
"546 23 OFFCURVE",
"615 67 CURVE",
"528 234 LINE",
"496 211 OFFCURVE",
"415 176 OFFCURVE",
"348 176 CURVE SMOOTH",
"296 176 OFFCURVE",
"255 197 OFFCURVE",
"255 230 CURVE SMOOTH",
"255 255 OFFCURVE",
"279 271 OFFCURVE",
"315 271 CURVE SMOOTH"
);
}
);
width = 625;
},
{
anchors = (
{
name = bottom;
position = "{320, 0}";
},
{
name = ogonek;
position = "{551, 0}";
},
{
name = top;
position = "{327, 700}";
},
{
name = topleft;
position = "{15, 700}";
}
);
associatedMasterId = UUID0;
layerId = "9CC0DFF3-E6C8-4C2E-95C2-CC9105E0D14C";
name = "Nov 24 16, 19:28";
paths = (
{
closed = 1;
nodes = (
"461 314 LINE",
"461 414 LINE",
"319 414 LINE SMOOTH",
"241 414 OFFCURVE",
"188 458 OFFCURVE",
"188 515 CURVE SMOOTH",
"188 575 OFFCURVE",
"250 606 OFFCURVE",
"333 606 CURVE SMOOTH",
"385 606 OFFCURVE",
"449 594 OFFCURVE",
"496 573 CURVE",
"535 660 LINE",
"485 687 OFFCURVE",
"397 705 OFFCURVE",
"327 705 CURVE SMOOTH",
"179 705 OFFCURVE",
"77 631 OFFCURVE",
"77 526 CURVE SMOOTH",
"77 451 OFFCURVE",
"128 389 OFFCURVE",
"200 370 CURVE",
"104 349 OFFCURVE",
"42 274 OFFCURVE",
"42 190 CURVE SMOOTH",
"42 75 OFFCURVE",
"157 -5 OFFCURVE",
"315 -5 CURVE SMOOTH",
"405 -5 OFFCURVE",
"505 22 OFFCURVE",
"563 57 CURVE",
"517 144 LINE",
"474 119 OFFCURVE",
"389 94 OFFCURVE",
"320 94 CURVE SMOOTH",
"232 94 OFFCURVE",
"163 134 OFFCURVE",
"163 201 CURVE SMOOTH",
"163 266 OFFCURVE",
"228 314 OFFCURVE",
"319 314 CURVE SMOOTH"
);
}
);
width = 581;
}
);
leftKerningGroup = E.ss01;
leftMetricsKey = "=|B";
rightKerningGroup = E.ss01;
},
{
glyphname = F.ss01;
lastChange = "2017-09-11 21:11:09 +0000";
layers = (
{
background = {
paths = (
{
closed = 1;
nodes = (
"95 0 LINE",
"191 479 LINE SMOOTH",
"216 607 OFFCURVE",
"302 684 OFFCURVE",
"457 684 CURVE SMOOTH",
"531 684 OFFCURVE",
"593 667 OFFCURVE",
"637 626 CURVE",
"653 642 LINE",
"609 684 OFFCURVE",
"540 703 OFFCURVE",
"460 703 CURVE SMOOTH",
"293 703 OFFCURVE",
"197 613 OFFCURVE",
"171 482 CURVE SMOOTH",
"75 0 LINE"
);
},
{
closed = 1;
nodes = (
"523 326 LINE",
"527 345 LINE",
"160 345 LINE",
"156 326 LINE"
);
}
);
};
layerId = UUID0;
paths = (
{
closed = 1;
nodes = (
"95 0 LINE",
"191 479 LINE SMOOTH",
"216 607 OFFCURVE",
"302 684 OFFCURVE",
"457 684 CURVE SMOOTH",
"531 684 OFFCURVE",
"593 667 OFFCURVE",
"637 626 CURVE",
"653 642 LINE",
"609 684 OFFCURVE",
"540 703 OFFCURVE",
"460 703 CURVE SMOOTH",
"293 703 OFFCURVE",
"197 613 OFFCURVE",
"171 482 CURVE SMOOTH",
"75 0 LINE"
);
},
{
closed = 1;
nodes = (
"523 326 LINE",
"527 345 LINE",
"160 345 LINE",
"156 326 LINE"
);
}
);
width = 595;
},
{
background = {
paths = (
{
closed = 1;
nodes = (
"232 0 LINE",
"313 405 LINE SMOOTH",
"330 488 OFFCURVE",
"389 525 OFFCURVE",
"478 525 CURVE SMOOTH",
"514 525 OFFCURVE",
"557 516 OFFCURVE",
"592 495 CURVE",
"695 673 LINE",
"650 700 OFFCURVE",
"578 716 OFFCURVE",
"496 716 CURVE SMOOTH",
"269 716 OFFCURVE",
"116 603 OFFCURVE",
"76 400 CURVE SMOOTH",
"-4 0 LINE"
);
},
{
closed = 1;
nodes = (
"525 224 LINE",
"560 402 LINE",
"221 402 LINE",
"186 224 LINE"
);
}
);
};
layerId = "5DA6E103-6A94-47F2-987D-4952DB8EA68E";
paths = (
{
closed = 1;
nodes = (
"232 0 LINE",
"313 405 LINE SMOOTH",
"330 488 OFFCURVE",
"389 525 OFFCURVE",
"478 525 CURVE SMOOTH",
"514 525 OFFCURVE",
"557 516 OFFCURVE",
"592 495 CURVE",
"695 673 LINE",
"650 700 OFFCURVE",
"578 716 OFFCURVE",
"496 716 CURVE SMOOTH",
"269 716 OFFCURVE",
"116 603 OFFCURVE",
"76 400 CURVE SMOOTH",
"-4 0 LINE"
);
},
{
closed = 1;
nodes = (
"525 224 LINE",
"560 402 LINE",
"221 402 LINE",
"186 224 LINE"
);
}
);
width = 625;
}
);
leftKerningGroup = A.ss01;
leftMetricsKey = U;
rightKerningGroup = F.ss01;
},
{
color = 8;
glyphname = G.ss01;
lastChange = "2017-09-11 21:11:09 +0000";
layers = (
{
anchors = (
{
name = bottom;
position = "{350, 0}";
},
{
name = top;
position = "{490, 700}";
}
);
background = {
anchors = (
{
name = bottom;
position = "{350, 0}";
},
{
name = top;
position = "{490, 700}";
}
);
paths = (
{
closed = 1;
nodes = (
"445 -3 OFFCURVE",
"544 29 OFFCURVE",
"625 99 CURVE",
"622 120 LINE",
"542 48 OFFCURVE",
"445 16 OFFCURVE",
"359 16 CURVE SMOOTH",
"191 16 OFFCURVE",
"55 140 OFFCURVE",
"97 350 CURVE SMOOTH",
"135 539 OFFCURVE",
"310 684 OFFCURVE",
"506 684 CURVE SMOOTH",
"594 684 OFFCURVE",
"666 661 OFFCURVE",
"718 600 CURVE",
"733 614 LINE",
"685 674 OFFCURVE",
"604 703 OFFCURVE",
"509 703 CURVE SMOOTH",
"301 703 OFFCURVE",
"117 552 OFFCURVE",
"77 350 CURVE SMOOTH",
"32 123 OFFCURVE",
"180 -3 OFFCURVE",
"355 -3 CURVE SMOOTH"
);
},
{
closed = 1;
nodes = (
"610 0 LINE",
"679 343 LINE",
"660 343 LINE",
"611 100 LINE",
"610 96 LINE",
"591 0 LINE"
);
}
);
};
layerId = UUID0;
paths = (
{
closed = 1;
nodes = (
"445 -3 OFFCURVE",
"544 29 OFFCURVE",
"625 99 CURVE",
"622 120 LINE",
"542 48 OFFCURVE",
"445 16 OFFCURVE",
"359 16 CURVE SMOOTH",
"191 16 OFFCURVE",
"55 140 OFFCURVE",
"97 350 CURVE SMOOTH",
"135 539 OFFCURVE",
"310 684 OFFCURVE",
"506 684 CURVE SMOOTH",
"594 684 OFFCURVE",
"666 661 OFFCURVE",
"718 600 CURVE",
"733 614 LINE",
"685 674 OFFCURVE",
"604 703 OFFCURVE",
"509 703 CURVE SMOOTH",
"301 703 OFFCURVE",
"117 552 OFFCURVE",
"77 350 CURVE SMOOTH",
"32 123 OFFCURVE",
"180 -3 OFFCURVE",
"355 -3 CURVE SMOOTH"
);
},
{
closed = 1;
nodes = (
"610 0 LINE",
"679 343 LINE",
"660 343 LINE",
"611 100 LINE",
"610 96 LINE",
"591 0 LINE"
);
}
);
width = 774;
},
{
anchors = (
{
name = bottom;
position = "{356, 3}";
},
{
name = top;
position = "{509, 701}";
}
);
background = {
anchors = (
{
name = bottom;
position = "{356, 3}";
},
{
name = top;
position = "{509, 701}";
}
);
paths = (
{
closed = 1;
nodes = (
"458 -16 OFFCURVE",
"568 40 OFFCURVE",
"646 189 CURVE",
"558 251 LINE",
"520 197 OFFCURVE",
"458 171 OFFCURVE",
"395 171 CURVE SMOOTH",
"312 171 OFFCURVE",
"256 222 OFFCURVE",
"281 343 CURVE SMOOTH",
"304 458 OFFCURVE",
"383 525 OFFCURVE",
"487 525 CURVE SMOOTH",
"549 525 OFFCURVE",
"595 499 OFFCURVE",
"629 448 CURVE",
"806 581 LINE",
"752 668 OFFCURVE",
"651 716 OFFCURVE",
"513 716 CURVE SMOOTH",
"282 716 OFFCURVE",
"87 565 OFFCURVE",
"42 341 CURVE SMOOTH",
"-4 110 OFFCURVE",
"130 -16 OFFCURVE",
"325 -16 CURVE SMOOTH"
);
},
{
closed = 1;
nodes = (
"670 0 LINE",
"743 365 LINE",
"538 365 LINE",
"488 115 LINE",
"534 90 LINE",
"516 0 LINE"
);
}
);
};
layerId = "5DA6E103-6A94-47F2-987D-4952DB8EA68E";
paths = (
{
closed = 1;
nodes = (
"458 -16 OFFCURVE",
"568 40 OFFCURVE",
"646 189 CURVE",
"558 251 LINE",
"520 197 OFFCURVE",
"458 171 OFFCURVE",
"395 171 CURVE SMOOTH",
"312 171 OFFCURVE",
"256 222 OFFCURVE",
"281 343 CURVE SMOOTH",
"304 458 OFFCURVE",
"383 525 OFFCURVE",
"487 525 CURVE SMOOTH",
"549 525 OFFCURVE",
"595 499 OFFCURVE",
"629 448 CURVE",
"806 581 LINE",
"752 668 OFFCURVE",
"651 716 OFFCURVE",
"513 716 CURVE SMOOTH",
"282 716 OFFCURVE",
"87 565 OFFCURVE",
"42 341 CURVE SMOOTH",
"-4 110 OFFCURVE",
"130 -16 OFFCURVE",
"325 -16 CURVE SMOOTH"
);
},
{
closed = 1;
nodes = (
"670 0 LINE",
"743 365 LINE",
"538 365 LINE",
"488 115 LINE",
"534 90 LINE",
"516 0 LINE"
);
}
);
width = 769;
},
{
anchors = (
{
name = bottom;
position = "{408, 2}";
},
{
name = top;
position = "{419, 701}";
}
);
associatedMasterId = UUID0;
background = {
paths = (
{
closed = 1;
nodes = (
"522 -13 OFFCURVE",
"609 36 OFFCURVE",
"661 137 CURVE",
"583 221 LINE",
"547 163 OFFCURVE",
"482 133 OFFCURVE",
"414 133 CURVE SMOOTH",
"311 133 OFFCURVE",
"224 203 OFFCURVE",
"224 345 CURVE SMOOTH",
"224 477 OFFCURVE",
"308 562 OFFCURVE",
"433 562 CURVE SMOOTH",
"501 562 OFFCURVE",
"558 536 OFFCURVE",
"607 483 CURVE",
"726 589 LINE",
"657 669 OFFCURVE",
"552 713 OFFCURVE",
"424 713 CURVE SMOOTH",
"198 713 OFFCURVE",
"36 562 OFFCURVE",
"36 343 CURVE SMOOTH",
"36 113 OFFCURVE",
"198 -13 OFFCURVE",
"398 -13 CURVE SMOOTH"
);
},
{
closed = 1;
nodes = (
"710 0 LINE",
"710 360 LINE",
"548 360 LINE",
"548 112 LINE",
"571 91 LINE",
"571 0 LINE"
);
}
);
};
layerId = "9E9C9D6C-F08D-4B99-9A6D-CCAF74641FDA";
name = "{170}";
paths = (
{
closed = 1;
nodes = (
"522 -13 OFFCURVE",
"609 36 OFFCURVE",
"661 137 CURVE",
"583 221 LINE",
"547 163 OFFCURVE",
"482 133 OFFCURVE",
"414 133 CURVE SMOOTH",
"311 133 OFFCURVE",
"224 203 OFFCURVE",
"224 345 CURVE SMOOTH",
"224 477 OFFCURVE",
"308 562 OFFCURVE",
"433 562 CURVE SMOOTH",
"501 562 OFFCURVE",
"558 536 OFFCURVE",
"607 483 CURVE",
"726 589 LINE",
"657 669 OFFCURVE",
"552 713 OFFCURVE",
"424 713 CURVE SMOOTH",
"198 713 OFFCURVE",
"36 562 OFFCURVE",
"36 343 CURVE SMOOTH",
"36 113 OFFCURVE",
"198 -13 OFFCURVE",
"398 -13 CURVE SMOOTH"
);
},
{
closed = 1;
nodes = (
"710 0 LINE",
"710 360 LINE",
"548 360 LINE",
"548 112 LINE",
"571 91 LINE",
"571 0 LINE"
);
}
);
width = 770;
}
);
leftKerningGroup = O;
leftMetricsKey = O;
rightKerningGroup = G;
},
{
glyphname = I.ss01;
lastChange = "2017-09-11 21:11:09 +0000";
layers = (
{
anchors = (
{
name = bottom;
position = "{159, 0}";
},
{
name = ogonek;
position = "{169, 0}";
},
{
name = top;
position = "{299, 700}";
},
{
name = topleft;
position = "{95, 700}";
}
);
background = {
anchors = (
{
name = bottom;
position = "{159, 0}";
},
{
name = ogonek;
position = "{169, 0}";
},
{
name = top;
position = "{299, 700}";
},
{
name = topleft;
position = "{95, 700}";
}
);
paths = (
{
closed = 1;
nodes = (
"171 10 LINE",
"307 690 LINE",
"287 690 LINE",
"151 10 LINE"
);
},
{
closed = 1;
nodes = (
"323 0 LINE",
"327 19 LINE",
"-1 19 LINE",
"-5 0 LINE"
);
},
{
closed = 1;
nodes = (
"459 681 LINE",
"463 700 LINE",
"135 700 LINE",
"131 681 LINE"
);
}
);
};
layerId = UUID0;
paths = (
{
closed = 1;
nodes = (
"171 10 LINE",
"307 690 LINE",
"287 690 LINE",
"151 10 LINE"
);
},
{
closed = 1;
nodes = (
"323 0 LINE",
"327 19 LINE",
"-1 19 LINE",
"-5 0 LINE"
);
},
{
closed = 1;
nodes = (
"459 681 LINE",
"463 700 LINE",
"135 700 LINE",
"131 681 LINE"
);
}
);
width = 422;
},
{
anchors = (
{
name = bottom;
position = "{203, 0}";
},
{
name = ogonek;
position = "{321, 0}";
},
{
name = top;
position = "{343, 700}";
},
{
name = topleft;
position = "{65, 700}";
}
);
background = {
anchors = (
{
name = bottom;
position = "{203, 0}";
},
{
name = ogonek;
position = "{321, 0}";
},
{
name = top;
position = "{343, 700}";
},
{
name = topleft;
position = "{65, 700}";
}
);
paths = (
{
closed = 1;
nodes = (
"325 20 LINE",
"457 681 LINE",
"221 681 LINE",
"89 20 LINE"
);
},
{
closed = 1;
nodes = (
"426 0 LINE",
"462 178 LINE",
"16 178 LINE",
"-20 0 LINE"
);
},
{
closed = 1;
nodes = (
"530 522 LINE",
"566 700 LINE",
"120 700 LINE",
"84 522 LINE"
);
}
);
};
layerId = "5DA6E103-6A94-47F2-987D-4952DB8EA68E";
paths = (
{
closed = 1;
nodes = (
"325 20 LINE",
"457 681 LINE",
"221 681 LINE",
"89 20 LINE"
);
},
{
closed = 1;
nodes = (
"426 0 LINE",
"462 178 LINE",
"16 178 LINE",
"-20 0 LINE"
);
},
{
closed = 1;
nodes = (
"530 522 LINE",
"566 700 LINE",
"120 700 LINE",
"84 522 LINE"
);
}
);
width = 516;
}
);
leftKerningGroup = I.ss01;
rightKerningGroup = I.ss01;
rightMetricsKey = "=|";
},
{
glyphname = IJ.ss01;
lastChange = "2017-09-11 21:11:09 +0000";
layers = (
{
anchors = (
{
name = top;
position = "{255, 700}";
}
);
background = {
anchors = (
{
name = top;
position = "{255, 700}";
}
);
paths = (
{
closed = 1;
nodes = (
"411 -103 OFFCURVE",
"534 -5 OFFCURVE",
"574 193 CURVE SMOOTH",
"675 700 LINE",
"655 700 LINE",
"554 194 LINE SMOOTH",
"516 7 OFFCURVE",
"407 -84 OFFCURVE",
"259 -84 CURVE SMOOTH",
"184 -84 OFFCURVE",
"121 -61 OFFCURVE",
"76 -22 CURVE",
"60 -38 LINE",
"107 -76 OFFCURVE",
"174 -103 OFFCURVE",
"254 -103 CURVE SMOOTH"
);
},
{
closed = 1;
nodes = (
"133 190 LINE",
"235 700 LINE",
"215 700 LINE",
"113 190 LINE"
);
}
);
};
layerId = UUID0;
paths = (
{
closed = 1;
nodes = (
"411 -103 OFFCURVE",
"534 -5 OFFCURVE",
"574 193 CURVE SMOOTH",
"675 700 LINE",
"655 700 LINE",
"554 194 LINE SMOOTH",
"516 7 OFFCURVE",
"407 -84 OFFCURVE",
"259 -84 CURVE SMOOTH",
"184 -84 OFFCURVE",
"121 -61 OFFCURVE",
"76 -22 CURVE",
"60 -38 LINE",
"107 -76 OFFCURVE",
"174 -103 OFFCURVE",
"254 -103 CURVE SMOOTH"
);
},
{
closed = 1;
nodes = (
"133 190 LINE",
"235 700 LINE",
"215 700 LINE",
"113 190 LINE"
);
}
);
width = 714;
},
{
anchors = (
{
name = top;
position = "{254, 700}";
}
);
background = {
anchors = (
{
name = top;
position = "{254, 700}";
}
);
paths = (
{
closed = 1;
nodes = (
"461 -110 OFFCURVE",
"625 11 OFFCURVE",
"669 231 CURVE SMOOTH",
"763 700 LINE",
"527 700 LINE",
"430 215 LINE SMOOTH",
"411 118 OFFCURVE",
"364 75 OFFCURVE",
"277 75 CURVE SMOOTH",
"218 75 OFFCURVE",
"147 97 OFFCURVE",
"90 142 CURVE",
"-29 -25 LINE",
"34 -77 OFFCURVE",
"131 -110 OFFCURVE",
"251 -110 CURVE SMOOTH"
);
},
{
closed = 1;
nodes = (
"279 236 LINE",
"372 700 LINE",
"136 700 LINE",
"43 236 LINE"
);
}
);
};
layerId = "5DA6E103-6A94-47F2-987D-4952DB8EA68E";
paths = (
{
closed = 1;
nodes = (
"461 -110 OFFCURVE",
"625 11 OFFCURVE",
"669 231 CURVE SMOOTH",
"763 700 LINE",
"527 700 LINE",
"430 215 LINE SMOOTH",
"411 118 OFFCURVE",
"364 75 OFFCURVE",
"277 75 CURVE SMOOTH",
"218 75 OFFCURVE",
"147 97 OFFCURVE",
"90 142 CURVE",
"-29 -25 LINE",
"34 -77 OFFCURVE",
"131 -110 OFFCURVE",
"251 -110 CURVE SMOOTH"
);
},
{
closed = 1;
nodes = (
"279 236 LINE",
"372 700 LINE",
"136 700 LINE",
"43 236 LINE"
);
}
);
width = 729;
}
);
leftKerningGroup = H;
leftMetricsKey = IJ;
rightKerningGroup = J.ss01;
rightMetricsKey = IJ;
},
{
glyphname = J.ss01;
lastChange = "2017-09-11 21:11:09 +0000";
layers = (
{
anchors = (
{
name = top;
position = "{297, 700}";
}
);
background = {
anchors = (
{
name = top;
position = "{297, 700}";
}
);
paths = (
{
closed = 1;
nodes = (
"219 -103 OFFCURVE",
"291 -37 OFFCURVE",
"317 94 CURVE SMOOTH",
"438 700 LINE",
"156 700 LINE",
"152 681 LINE",
"414 681 LINE",
"297 96 LINE SMOOTH",
"273 -26 OFFCURVE",
"212 -84 OFFCURVE",
"110 -84 CURVE SMOOTH",
"44 -84 OFFCURVE",
"-6 -51 OFFCURVE",
"-32 8 CURVE",
"-49 -4 LINE",
"-24 -66 OFFCURVE",
"34 -103 OFFCURVE",
"105 -103 CURVE SMOOTH"
);
}
);
};
layerId = UUID0;
paths = (
{
closed = 1;
nodes = (
"219 -103 OFFCURVE",
"291 -37 OFFCURVE",
"317 94 CURVE SMOOTH",
"438 700 LINE",
"156 700 LINE",
"152 681 LINE",
"414 681 LINE",
"297 96 LINE SMOOTH",
"273 -26 OFFCURVE",
"212 -84 OFFCURVE",
"110 -84 CURVE SMOOTH",
"44 -84 OFFCURVE",
"-6 -51 OFFCURVE",
"-32 8 CURVE",
"-49 -4 LINE",
"-24 -66 OFFCURVE",
"34 -103 OFFCURVE",
"105 -103 CURVE SMOOTH"
);
}
);
width = 477;
},
{
anchors = (
{
name = top;
position = "{373, 700}";
}
);
background = {
anchors = (
{
name = top;
position = "{373, 700}";
}
);
paths = (
{
closed = 1;
nodes = (
"344 -116 OFFCURVE",
"464 -22 OFFCURVE",
"502 170 CURVE SMOOTH",
"608 700 LINE",
"137 700 LINE",
"101 522 LINE",
"339 522 LINE",
"266 156 LINE SMOOTH",
"255 99 OFFCURVE",
"222 69 OFFCURVE",
"173 69 CURVE SMOOTH",
"134 69 OFFCURVE",
"103 92 OFFCURVE",
"76 138 CURVE",
"-81 -12 LINE",
"-37 -80 OFFCURVE",
"47 -116 OFFCURVE",
"156 -116 CURVE SMOOTH"
);
}
);
};
layerId = "5DA6E103-6A94-47F2-987D-4952DB8EA68E";
paths = (
{
closed = 1;
nodes = (
"344 -116 OFFCURVE",
"464 -22 OFFCURVE",
"502 170 CURVE SMOOTH",
"608 700 LINE",
"137 700 LINE",
"101 522 LINE",
"339 522 LINE",
"266 156 LINE SMOOTH",
"255 99 OFFCURVE",
"222 69 OFFCURVE",
"173 69 CURVE SMOOTH",
"134 69 OFFCURVE",
"103 92 OFFCURVE",
"76 138 CURVE",
"-81 -12 LINE",
"-37 -80 OFFCURVE",
"47 -116 OFFCURVE",
"156 -116 CURVE SMOOTH"
);
}
);
width = 574;
}
);
leftKerningGroup = J.ss01;
leftMetricsKey = J;
rightKerningGroup = J.ss01;
rightMetricsKey = J;
},
{
glyphname = M.ss01;
lastChange = "2017-09-11 21:11:09 +0000";
layers = (
{
anchors = (
{
name = bottom;
position = "{511, 0}";
},
{
name = top;
position = "{651, 700}";
}
);
background = {
anchors = (
{
name = bottom;
position = "{511, 0}";
},
{
name = top;
position = "{651, 700}";
}
);
paths = (
{
closed = 1;
nodes = (
"941 0 LINE",
"1029 442 LINE SMOOTH",
"1064 615 OFFCURVE",
"996 703 OFFCURVE",
"862 703 CURVE SMOOTH",
"728 703 OFFCURVE",
"624 615 OFFCURVE",
"584 415 CURVE SMOOTH",
"567 330 LINE",
"587 330 LINE",
"605 421 LINE SMOOTH",
"641 603 OFFCURVE",
"731 684 OFFCURVE",
"858 684 CURVE SMOOTH",
"986 684 OFFCURVE",
"1042 604 OFFCURVE",
"1009 441 CURVE SMOOTH",
"921 0 LINE"
);
},
{
closed = 1;
nodes = (
"101 0 LINE",
"194 464 LINE",
"197 481 LINE",
"241 700 LINE",
"221 700 LINE",
"81 0 LINE"
);
},
{
closed = 1;
nodes = (
"521 0 LINE",
"609 442 LINE SMOOTH",
"644 615 OFFCURVE",
"576 703 OFFCURVE",
"442 703 CURVE SMOOTH",
"308 703 OFFCURVE",
"206 615 OFFCURVE",
"165 412 CURVE SMOOTH",
"143 300 LINE",
"161 300 LINE",
"185 421 LINE SMOOTH",
"221 603 OFFCURVE",
"311 684 OFFCURVE",
"438 684 CURVE SMOOTH",
"566 684 OFFCURVE",
"622 604 OFFCURVE",
"589 441 CURVE SMOOTH",
"501 0 LINE"
);
}
);
};
layerId = UUID0;
paths = (
{
closed = 1;
nodes = (
"941 0 LINE",
"1029 442 LINE SMOOTH",
"1064 615 OFFCURVE",
"996 703 OFFCURVE",
"862 703 CURVE SMOOTH",
"728 703 OFFCURVE",
"624 615 OFFCURVE",
"584 415 CURVE SMOOTH",
"567 330 LINE",
"587 330 LINE",
"605 421 LINE SMOOTH",
"641 603 OFFCURVE",
"731 684 OFFCURVE",
"858 684 CURVE SMOOTH",
"986 684 OFFCURVE",
"1042 604 OFFCURVE",
"1009 441 CURVE SMOOTH",
"921 0 LINE"
);
},
{
closed = 1;
nodes = (
"101 0 LINE",
"194 464 LINE",
"197 481 LINE",
"241 700 LINE",
"221 700 LINE",
"81 0 LINE"
);
},
{
closed = 1;
nodes = (
"521 0 LINE",
"609 442 LINE SMOOTH",
"644 615 OFFCURVE",
"576 703 OFFCURVE",
"442 703 CURVE SMOOTH",
"308 703 OFFCURVE",
"206 615 OFFCURVE",
"165 412 CURVE SMOOTH",
"143 300 LINE",
"161 300 LINE",
"185 421 LINE SMOOTH",
"221 603 OFFCURVE",
"311 684 OFFCURVE",
"438 684 CURVE SMOOTH",
"566 684 OFFCURVE",
"622 604 OFFCURVE",
"589 441 CURVE SMOOTH",
"501 0 LINE"
);
}
);
width = 1120;
},
{
anchors = (
{
name = bottom;
position = "{526, 0}";
},
{
name = top;
position = "{666, 700}";
}
);
background = {
anchors = (
{
name = bottom;
position = "{526, 0}";
},
{
name = top;
position = "{666, 700}";
}
);
paths = (
{
closed = 1;
nodes = (
"1050 0 LINE",
"1135 425 LINE SMOOTH",
"1173 615 OFFCURVE",
"1099 716 OFFCURVE",
"944 716 CURVE SMOOTH",
"789 716 OFFCURVE",
"662 612 OFFCURVE",
"625 425 CURVE SMOOTH",
"600 300 LINE",
"704 300 LINE",
"726 410 LINE SMOOTH",
"743 495 OFFCURVE",
"788 525 OFFCURVE",
"837 525 CURVE SMOOTH",
"886 525 OFFCURVE",
"913 496 OFFCURVE",
"898 418 CURVE SMOOTH",
"814 0 LINE"
);
},
{
closed = 1;
nodes = (
"238 0 LINE",
"342 522 LINE",
"341 551 LINE",
"371 700 LINE",
"142 700 LINE",
"2 0 LINE"
);
},
{
closed = 1;
nodes = (
"644 0 LINE",
"729 425 LINE SMOOTH",
"767 615 OFFCURVE",
"699 716 OFFCURVE",
"556 716 CURVE SMOOTH",
"397 716 OFFCURVE",
"296 602 OFFCURVE",
"259 415 CURVE SMOOTH",
"236 300 LINE",
"298 300 LINE",
"320 410 LINE SMOOTH",
"337 495 OFFCURVE",
"382 525 OFFCURVE",
"431 525 CURVE SMOOTH",
"480 525 OFFCURVE",
"507 496 OFFCURVE",
"492 418 CURVE SMOOTH",
"408 0 LINE"
);
}
);
};
layerId = "5DA6E103-6A94-47F2-987D-4952DB8EA68E";
paths = (
{
closed = 1;
nodes = (
"1050 0 LINE",
"1135 425 LINE SMOOTH",
"1173 615 OFFCURVE",
"1099 716 OFFCURVE",
"944 716 CURVE SMOOTH",
"789 716 OFFCURVE",
"662 612 OFFCURVE",
"625 425 CURVE SMOOTH",
"600 300 LINE",
"704 300 LINE",
"726 410 LINE SMOOTH",
"743 495 OFFCURVE",
"788 525 OFFCURVE",
"837 525 CURVE SMOOTH",
"886 525 OFFCURVE",
"913 496 OFFCURVE",
"898 418 CURVE SMOOTH",
"814 0 LINE"
);
},
{
closed = 1;
nodes = (
"238 0 LINE",
"342 522 LINE",
"341 551 LINE",
"371 700 LINE",
"142 700 LINE",
"2 0 LINE"
);
},
{
closed = 1;
nodes = (
"644 0 LINE",
"729 425 LINE SMOOTH",
"767 615 OFFCURVE",
"699 716 OFFCURVE",
"556 716 CURVE SMOOTH",
"397 716 OFFCURVE",
"296 602 OFFCURVE",
"259 415 CURVE SMOOTH",
"236 300 LINE",
"298 300 LINE",
"320 410 LINE SMOOTH",
"337 495 OFFCURVE",
"382 525 OFFCURVE",
"431 525 CURVE SMOOTH",
"480 525 OFFCURVE",
"507 496 OFFCURVE",
"492 418 CURVE SMOOTH",
"408 0 LINE"
);
}
);
width = 1156;
}
);
leftKerningGroup = H;
leftMetricsKey = H;
rightKerningGroup = N.ss01;
rightMetricsKey = U;
},
{
glyphname = N.ss01;
lastChange = "2017-09-11 21:11:09 +0000";
layers = (
{
anchors = (
{
name = bottom;
position = "{349, 0}";
},
{
name = top;
position = "{491, 700}";
}
);
background = {
anchors = (
{
name = bottom;
position = "{349, 0}";
},
{
name = top;
position = "{491, 700}";
}
);
paths = (
{
closed = 1;
nodes = (
"621 0 LINE",
"705 422 LINE SMOOTH",
"742 605 OFFCURVE",
"658 703 OFFCURVE",
"492 703 CURVE SMOOTH",
"326 703 OFFCURVE",
"204 605 OFFCURVE",
"163 402 CURVE SMOOTH",
"143 300 LINE",
"161 300 LINE",
"181 401 LINE SMOOTH",
"219 593 OFFCURVE",
"329 684 OFFCURVE",
"488 684 CURVE SMOOTH",
"647 684 OFFCURVE",
"720 594 OFFCURVE",
"685 421 CURVE SMOOTH",
"601 0 LINE"
);
},
{
closed = 1;
nodes = (
"101 0 LINE",
"194 464 LINE",
"197 481 LINE",
"241 700 LINE",
"221 700 LINE",
"81 0 LINE"
);
}
);
};
layerId = UUID0;
paths = (
{
closed = 1;
nodes = (
"621 0 LINE",
"705 422 LINE SMOOTH",
"742 605 OFFCURVE",
"658 703 OFFCURVE",
"492 703 CURVE SMOOTH",
"326 703 OFFCURVE",
"204 605 OFFCURVE",
"163 402 CURVE SMOOTH",
"143 300 LINE",
"161 300 LINE",
"181 401 LINE SMOOTH",
"219 593 OFFCURVE",
"329 684 OFFCURVE",
"488 684 CURVE SMOOTH",
"647 684 OFFCURVE",
"720 594 OFFCURVE",
"685 421 CURVE SMOOTH",
"601 0 LINE"
);
},
{
closed = 1;
nodes = (
"101 0 LINE",
"194 464 LINE",
"197 481 LINE",
"241 700 LINE",
"221 700 LINE",
"81 0 LINE"
);
}
);
width = 800;
},
{
anchors = (
{
name = bottom;
position = "{345, 0}";
},
{
name = top;
position = "{485, 700}";
}
);
background = {
anchors = (
{
name = bottom;
position = "{345, 0}";
},
{
name = top;
position = "{485, 700}";
}
);
paths = (
{
closed = 1;
nodes = (
"688 0 LINE",
"769 405 LINE SMOOTH",
"809 605 OFFCURVE",
"735 716 OFFCURVE",
"570 716 CURVE SMOOTH",
"405 716 OFFCURVE",
"284 592 OFFCURVE",
"245 395 CURVE SMOOTH",
"226 300 LINE",
"298 300 LINE",
"316 390 LINE SMOOTH",
"335 483 OFFCURVE",
"392 525 OFFCURVE",
"453 525 CURVE SMOOTH",
"516 525 OFFCURVE",
"549 486 OFFCURVE",
"532 398 CURVE SMOOTH",
"452 0 LINE"
);
},
{
closed = 1;
nodes = (
"238 0 LINE",
"342 522 LINE",
"341 551 LINE",
"371 700 LINE",
"142 700 LINE",
"2 0 LINE"
);
}
);
};
layerId = "5DA6E103-6A94-47F2-987D-4952DB8EA68E";
paths = (
{
closed = 1;
nodes = (
"688 0 LINE",
"769 405 LINE SMOOTH",
"809 605 OFFCURVE",
"735 716 OFFCURVE",
"570 716 CURVE SMOOTH",
"405 716 OFFCURVE",
"284 592 OFFCURVE",
"245 395 CURVE SMOOTH",
"226 300 LINE",
"298 300 LINE",
"316 390 LINE SMOOTH",
"335 483 OFFCURVE",
"392 525 OFFCURVE",
"453 525 CURVE SMOOTH",
"516 525 OFFCURVE",
"549 486 OFFCURVE",
"532 398 CURVE SMOOTH",
"452 0 LINE"
);
},
{
closed = 1;
nodes = (
"238 0 LINE",
"342 522 LINE",
"341 551 LINE",
"371 700 LINE",
"142 700 LINE",
"2 0 LINE"
);
}
);
width = 794;
}
);
leftKerningGroup = H;
leftMetricsKey = H;
rightKerningGroup = N.ss01;
rightMetricsKey = U;
},
{
glyphname = T.ss01;
lastChange = "2017-09-11 21:11:09 +0000";
layers = (
{
anchors = (
{
name = bottom;
position = "{222, 0}";
},
{
name = center;
position = "{292, 350}";
},
{
name = top;
position = "{362, 699}";
}
);
background = {
anchors = (
{
name = bottom;
position = "{222, 0}";
},
{
name = center;
position = "{292, 350}";
},
{
name = top;
position = "{362, 699}";
}
);
paths = (
{
closed = 1;
nodes = (
"178 664 OFFCURVE",
"273 684 OFFCURVE",
"358 684 CURVE SMOOTH",
"443 684 OFFCURVE",
"533 664 OFFCURVE",
"605 615 CURVE",
"618 631 LINE",
"541 682 OFFCURVE",
"451 703 OFFCURVE",
"361 703 CURVE SMOOTH",
"271 703 OFFCURVE",
"175 682 OFFCURVE",
"78 631 CURVE",
"85 615 LINE"
);
},
{
closed = 1;
nodes = (
"232 0 LINE",
"370 690 LINE",
"350 690 LINE",
"212 0 LINE"
);
}
);
};
layerId = UUID0;
paths = (
{
closed = 1;
nodes = (
"178 664 OFFCURVE",
"273 684 OFFCURVE",
"358 684 CURVE SMOOTH",
"443 684 OFFCURVE",
"533 664 OFFCURVE",
"605 615 CURVE",
"618 631 LINE",
"541 682 OFFCURVE",
"451 703 OFFCURVE",
"361 703 CURVE SMOOTH",
"271 703 OFFCURVE",
"175 682 OFFCURVE",
"78 631 CURVE",
"85 615 LINE"
);
},
{
closed = 1;
nodes = (
"232 0 LINE",
"370 690 LINE",
"350 690 LINE",
"212 0 LINE"
);
}
);
width = 548;
},
{
anchors = (
{
name = bottom;
position = "{287, 0}";
},
{
name = center;
position = "{346, 300}";
},
{
name = top;
position = "{432, 701}";
}
);
background = {
anchors = (
{
name = bottom;
position = "{287, 0}";
},
{
name = center;
position = "{346, 300}";
},
{
name = top;
position = "{432, 701}";
}
);
paths = (
{
closed = 1;
nodes = (
"189 502 OFFCURVE",
"282 528 OFFCURVE",
"393 528 CURVE SMOOTH",
"504 528 OFFCURVE",
"585 502 OFFCURVE",
"660 455 CURVE",
"771 623 LINE",
"683 684 OFFCURVE",
"561 716 OFFCURVE",
"430 716 CURVE SMOOTH",
"299 716 OFFCURVE",
"165 684 OFFCURVE",
"51 623 CURVE",
"96 455 LINE"
);
},
{
closed = 1;
nodes = (
"405 0 LINE",
"526 606 LINE",
"290 606 LINE",
"169 0 LINE"
);
}
);
};
layerId = "5DA6E103-6A94-47F2-987D-4952DB8EA68E";
paths = (
{
closed = 1;
nodes = (
"189 502 OFFCURVE",
"282 528 OFFCURVE",
"393 528 CURVE SMOOTH",
"504 528 OFFCURVE",
"585 502 OFFCURVE",
"660 455 CURVE",
"771 623 LINE",
"683 684 OFFCURVE",
"561 716 OFFCURVE",
"430 716 CURVE SMOOTH",
"299 716 OFFCURVE",
"165 684 OFFCURVE",
"51 623 CURVE",
"96 455 LINE"
);
},
{
closed = 1;
nodes = (
"405 0 LINE",
"526 606 LINE",
"290 606 LINE",
"169 0 LINE"
);
}
);
width = 684;
}
);
leftKerningGroup = T.ss01;
rightKerningGroup = T.ss01;
},
{
glyphname = U.ss01;
lastChange = "2017-09-11 21:11:09 +0000";
layers = (
{
anchors = (
{
name = bottom;
position = "{345, 0}";
},
{
name = ogonek;
position = "{615, 0}";
},
{
name = top;
position = "{485, 700}";
},
{
name = topright;
position = "{749, 699}";
}
);
background = {
anchors = (
{
name = bottom;
position = "{345, 0}";
},
{
name = ogonek;
position = "{615, 0}";
},
{
name = top;
position = "{485, 700}";
},
{
name = topright;
position = "{749, 699}";
}
);
paths = (
{
closed = 1;
nodes = (
"509 -3 OFFCURVE",
"632 95 OFFCURVE",
"673 298 CURVE SMOOTH",
"693 400 LINE",
"675 400 LINE",
"655 299 LINE SMOOTH",
"616 107 OFFCURVE",
"507 16 OFFCURVE",
"348 16 CURVE SMOOTH",
"189 16 OFFCURVE",
"116 106 OFFCURVE",
"151 279 CURVE SMOOTH",
"235 700 LINE",
"215 700 LINE",
"131 278 LINE SMOOTH",
"94 95 OFFCURVE",
"177 -3 OFFCURVE",
"343 -3 CURVE SMOOTH"
);
},
{
closed = 1;
nodes = (
"615 0 LINE",
"755 700 LINE",
"735 700 LINE",
"642 236 LINE",
"639 219 LINE",
"595 0 LINE"
);
}
);
};
layerId = UUID0;
paths = (
{
closed = 1;
nodes = (
"509 -3 OFFCURVE",
"632 95 OFFCURVE",
"673 298 CURVE SMOOTH",
"693 400 LINE",
"675 400 LINE",
"655 299 LINE SMOOTH",
"616 107 OFFCURVE",
"507 16 OFFCURVE",
"348 16 CURVE SMOOTH",
"189 16 OFFCURVE",
"116 106 OFFCURVE",
"151 279 CURVE SMOOTH",
"235 700 LINE",
"215 700 LINE",
"131 278 LINE SMOOTH",
"94 95 OFFCURVE",
"177 -3 OFFCURVE",
"343 -3 CURVE SMOOTH"
);
},
{
closed = 1;
nodes = (
"615 0 LINE",
"755 700 LINE",
"735 700 LINE",
"642 236 LINE",
"639 219 LINE",
"595 0 LINE"
);
}
);
width = 800;
},
{
anchors = (
{
name = bottom;
position = "{339, 0}";
},
{
name = ogonek;
position = "{682, 0}";
},
{
name = top;
position = "{479, 700}";
},
{
name = topright;
position = "{717, 700}";
}
);
background = {
anchors = (
{
name = bottom;
position = "{339, 0}";
},
{
name = ogonek;
position = "{682, 0}";
},
{
name = top;
position = "{479, 700}";
},
{
name = topright;
position = "{717, 700}";
}
);
paths = (
{
closed = 1;
nodes = (
"419 -16 OFFCURVE",
"540 108 OFFCURVE",
"579 305 CURVE SMOOTH",
"598 400 LINE",
"526 400 LINE",
"508 310 LINE SMOOTH",
"489 217 OFFCURVE",
"432 175 OFFCURVE",
"371 175 CURVE SMOOTH",
"308 175 OFFCURVE",
"275 214 OFFCURVE",
"292 302 CURVE SMOOTH",
"372 700 LINE",
"136 700 LINE",
"55 295 LINE SMOOTH",
"15 95 OFFCURVE",
"89 -16 OFFCURVE",
"264 -16 CURVE SMOOTH"
);
},
{
closed = 1;
nodes = (
"682 0 LINE",
"822 700 LINE",
"586 700 LINE",
"482 178 LINE",
"483 149 LINE",
"453 0 LINE"
);
}
);
};
layerId = "5DA6E103-6A94-47F2-987D-4952DB8EA68E";
paths = (
{
closed = 1;
nodes = (
"419 -16 OFFCURVE",
"540 108 OFFCURVE",
"579 305 CURVE SMOOTH",
"598 400 LINE",
"526 400 LINE",
"508 310 LINE SMOOTH",
"489 217 OFFCURVE",
"432 175 OFFCURVE",
"371 175 CURVE SMOOTH",
"308 175 OFFCURVE",
"275 214 OFFCURVE",
"292 302 CURVE SMOOTH",
"372 700 LINE",
"136 700 LINE",
"55 295 LINE SMOOTH",
"15 95 OFFCURVE",
"89 -16 OFFCURVE",
"264 -16 CURVE SMOOTH"
);
},
{
closed = 1;
nodes = (
"682 0 LINE",
"822 700 LINE",
"586 700 LINE",
"482 178 LINE",
"483 149 LINE",
"453 0 LINE"
);
}
);
width = 794;
}
);
leftKerningGroup = U;
leftMetricsKey = U;
rightKerningGroup = H;
rightMetricsKey = H;
},
{
glyphname = Y.ss01;
lastChange = "2017-09-11 21:11:09 +0000";
layers = (
{
anchors = (
{
name = bottom;
position = "{600, 0}";
},
{
name = top;
position = "{480, 700}";
}
);
background = {
anchors = (
{
name = bottom;
position = "{600, 0}";
},
{
name = top;
position = "{480, 700}";
}
);
paths = (
{
closed = 1;
nodes = (
"486 -103 OFFCURVE",
"609 -5 OFFCURVE",
"649 193 CURVE SMOOTH",
"750 700 LINE",
"730 700 LINE",
"629 194 LINE SMOOTH",
"591 7 OFFCURVE",
"482 -84 OFFCURVE",
"324 -84 CURVE SMOOTH",
"218 -84 OFFCURVE",
"147 -48 OFFCURVE",
"104 27 CURVE",
"87 13 LINE",
"129 -61 OFFCURVE",
"207 -103 OFFCURVE",
"319 -103 CURVE SMOOTH"
);
},
{
closed = 1;
nodes = (
"541 181 OFFCURVE",
"664 279 OFFCURVE",
"704 482 CURVE SMOOTH",
"725 584 LINE",
"707 584 LINE",
"687 483 LINE SMOOTH",
"648 291 OFFCURVE",
"539 200 OFFCURVE",
"380 200 CURVE SMOOTH",
"221 200 OFFCURVE",
"148 290 OFFCURVE",
"183 463 CURVE SMOOTH",
"230 700 LINE",
"210 700 LINE",
"162 462 LINE SMOOTH",
"126 279 OFFCURVE",
"209 181 OFFCURVE",
"375 181 CURVE SMOOTH"
);
}
);
};
layerId = UUID0;
paths = (
{
closed = 1;
nodes = (
"486 -103 OFFCURVE",
"609 -5 OFFCURVE",
"649 193 CURVE SMOOTH",
"750 700 LINE",
"730 700 LINE",
"629 194 LINE SMOOTH",
"591 7 OFFCURVE",
"482 -84 OFFCURVE",
"324 -84 CURVE SMOOTH",
"218 -84 OFFCURVE",
"147 -48 OFFCURVE",
"104 27 CURVE",
"87 13 LINE",
"129 -61 OFFCURVE",
"207 -103 OFFCURVE",
"319 -103 CURVE SMOOTH"
);
},
{
closed = 1;
nodes = (
"541 181 OFFCURVE",
"664 279 OFFCURVE",
"704 482 CURVE SMOOTH",
"725 584 LINE",
"707 584 LINE",
"687 483 LINE SMOOTH",
"648 291 OFFCURVE",
"539 200 OFFCURVE",
"380 200 CURVE SMOOTH",
"221 200 OFFCURVE",
"148 290 OFFCURVE",
"183 463 CURVE SMOOTH",
"230 700 LINE",
"210 700 LINE",
"162 462 LINE SMOOTH",
"126 279 OFFCURVE",
"209 181 OFFCURVE",
"375 181 CURVE SMOOTH"
);
}
);
width = 789;
},
{
anchors = (
{
name = bottom;
position = "{606, 0}";
},
{
name = top;
position = "{474, 700}";
}
);
background = {
anchors = (
{
name = bottom;
position = "{606, 0}";
},
{
name = top;
position = "{474, 700}";
}
);
paths = (
{
closed = 1;
nodes = (
"514 -116 OFFCURVE",
"678 5 OFFCURVE",
"722 225 CURVE SMOOTH",
"817 700 LINE",
"581 700 LINE",
"483 212 LINE SMOOTH",
"464 115 OFFCURVE",
"417 72 OFFCURVE",
"320 72 CURVE SMOOTH",
"251 72 OFFCURVE",
"181 94 OFFCURVE",
"123 136 CURVE",
"4 -31 LINE",
"66 -83 OFFCURVE",
"164 -116 OFFCURVE",
"294 -116 CURVE SMOOTH"
);
},
{
closed = 1;
nodes = (
"449 162 OFFCURVE",
"568 276 OFFCURVE",
"608 473 CURVE SMOOTH",
"626 568 LINE",
"554 568 LINE",
"537 478 LINE SMOOTH",
"518 385 OFFCURVE",
"463 353 OFFCURVE",
"402 353 CURVE SMOOTH",
"331 353 OFFCURVE",
"305 391 OFFCURVE",
"321 470 CURVE SMOOTH",
"367 700 LINE",
"131 700 LINE",
"82 453 LINE SMOOTH",
"44 264 OFFCURVE",
"118 162 OFFCURVE",
"294 162 CURVE SMOOTH"
);
}
);
};
layerId = "5DA6E103-6A94-47F2-987D-4952DB8EA68E";
paths = (
{
closed = 1;
nodes = (
"514 -116 OFFCURVE",
"678 5 OFFCURVE",
"722 225 CURVE SMOOTH",
"817 700 LINE",
"581 700 LINE",
"483 212 LINE SMOOTH",
"464 115 OFFCURVE",
"417 72 OFFCURVE",
"320 72 CURVE SMOOTH",
"251 72 OFFCURVE",
"181 94 OFFCURVE",
"123 136 CURVE",
"4 -31 LINE",
"66 -83 OFFCURVE",
"164 -116 OFFCURVE",
"294 -116 CURVE SMOOTH"
);
},
{
closed = 1;
nodes = (
"449 162 OFFCURVE",
"568 276 OFFCURVE",
"608 473 CURVE SMOOTH",
"626 568 LINE",
"554 568 LINE",
"537 478 LINE SMOOTH",
"518 385 OFFCURVE",
"463 353 OFFCURVE",
"402 353 CURVE SMOOTH",
"331 353 OFFCURVE",
"305 391 OFFCURVE",
"321 470 CURVE SMOOTH",
"367 700 LINE",
"131 700 LINE",
"82 453 LINE SMOOTH",
"44 264 OFFCURVE",
"118 162 OFFCURVE",
"294 162 CURVE SMOOTH"
);
}
);
width = 783;
}
);
leftKerningGroup = Y.ss01;
leftMetricsKey = "=U-5";
rightKerningGroup = U;
rightMetricsKey = U;
},
{
glyphname = Z.ss01;
lastChange = "2017-09-11 21:11:09 +0000";
layers = (
{
anchors = (
{
name = bottom;
position = "{283, 0}";
},
{
name = top;
position = "{413, 700}";
}
);
background = {
anchors = (
{
name = bottom;
position = "{283, 0}";
},
{
name = top;
position = "{413, 700}";
}
);
paths = (
{
closed = 1;
nodes = (
"553 0 LINE",
"557 19 LINE",
"29 19 LINE",
"28 12 LINE",
"675 685 LINE",
"678 700 LINE",
"143 700 LINE",
"139 681 LINE",
"652 681 LINE",
"652 688 LINE",
"6 15 LINE",
"3 0 LINE"
);
},
{
closed = 1;
nodes = (
"333 346 LINE",
"340 346 LINE",
"538 346 LINE",
"542 365 LINE",
"358 365 LINE",
"351 365 LINE",
"142 365 LINE",
"138 346 LINE"
);
}
);
};
layerId = UUID0;
paths = (
{
closed = 1;
nodes = (
"553 0 LINE",
"557 19 LINE",
"29 19 LINE",
"28 12 LINE",
"675 685 LINE",
"678 700 LINE",
"143 700 LINE",
"139 681 LINE",
"652 681 LINE",
"652 688 LINE",
"6 15 LINE",
"3 0 LINE"
);
},
{
closed = 1;
nodes = (
"333 346 LINE",
"340 346 LINE",
"538 346 LINE",
"542 365 LINE",
"358 365 LINE",
"351 365 LINE",
"142 365 LINE",
"138 346 LINE"
);
}
);
width = 649;
},
{
anchors = (
{
name = bottom;
position = "{304, 0}";
},
{
name = top;
position = "{444, 700}";
}
);
background = {
anchors = (
{
name = bottom;
position = "{304, 0}";
},
{
name = top;
position = "{444, 700}";
}
);
paths = (
{
closed = 1;
nodes = (
"625 0 LINE",
"661 178 LINE",
"226 178 LINE",
"246 121 LINE",
"724 571 LINE",
"750 701 LINE",
"133 701 LINE",
"98 523 LINE",
"507 523 LINE",
"486 580 LINE",
"8 130 LINE",
"-18 0 LINE"
);
},
{
closed = 1;
nodes = (
"278 277 LINE",
"338 273 LINE",
"616 273 LINE",
"648 433 LINE",
"480 433 LINE",
"420 437 LINE",
"119 437 LINE",
"87 277 LINE"
);
}
);
};
layerId = "5DA6E103-6A94-47F2-987D-4952DB8EA68E";
paths = (
{
closed = 1;
nodes = (
"625 0 LINE",
"661 178 LINE",
"226 178 LINE",
"246 121 LINE",
"724 571 LINE",
"750 701 LINE",
"133 701 LINE",
"98 523 LINE",
"507 523 LINE",
"486 580 LINE",
"8 130 LINE",
"-18 0 LINE"
);
},
{
closed = 1;
nodes = (
"278 277 LINE",
"338 273 LINE",
"616 273 LINE",
"648 433 LINE",
"480 433 LINE",
"420 437 LINE",
"119 437 LINE",
"87 277 LINE"
);
}
);
width = 697;
}
);
leftKerningGroup = Z;
leftMetricsKey = "=Z+5";
rightKerningGroup = Z;
rightMetricsKey = "=Z+5";
},
{
glyphname = a.sc;
lastChange = "2017-09-11 21:11:09 +0000";
layers = (
{
anchors = (
{
name = bottom;
position = "{229, 0}";
},
{
name = ogonek;
position = "{502, 0}";
},
{
name = top;
position = "{341, 559}";
},
{
name = topleft;
position = "{148, 559}";
}
);
background = {
anchors = (
{
name = bottom;
position = "{229, 0}";
},
{
name = ogonek;
position = "{502, 0}";
},
{
name = top;
position = "{341, 559}";
},
{
name = topleft;
position = "{148, 559}";
}
);
paths = (
{
closed = 1;
nodes = (
"-21 0 LINE",
"343 544 LINE",
"334 544 LINE",
"479 0 LINE",
"502 0 LINE",
"351 559 LINE",
"331 559 LINE",
"-43 0 LINE"
);
},
{
closed = 1;
nodes = (
"444 169 LINE",
"439 188 LINE",
"95 188 LINE",
"82 169 LINE"
);
}
);
};
layerId = UUID0;
paths = (
{
closed = 1;
nodes = (
"-21 0 LINE",
"343 544 LINE",
"334 544 LINE",
"479 0 LINE",
"502 0 LINE",
"351 559 LINE",
"331 559 LINE",
"-43 0 LINE"
);
},
{
closed = 1;
nodes = (
"444 169 LINE",
"439 188 LINE",
"95 188 LINE",
"82 169 LINE"
);
}
);
width = 563;
},
{
anchors = (
{
name = bottom;
position = "{296, 0}";
},
{
name = ogonek;
position = "{665, 0}";
},
{
name = top;
position = "{412, 582}";
},
{
name = topleft;
position = "{167, 583}";
}
);
background = {
anchors = (
{
name = bottom;
position = "{296, 0}";
},
{
name = ogonek;
position = "{665, 0}";
},
{
name = top;
position = "{412, 582}";
},
{
name = topleft;
position = "{167, 583}";
}
);
paths = (
{
closed = 1;
nodes = (
"147 0 LINE",
"430 478 LINE",
"355 478 LINE",
"442 0 LINE",
"665 0 LINE",
"525 582 LINE",
"299 582 LINE",
"-73 0 LINE"
);
},
{
closed = 1;
nodes = (
"480 88 LINE",
"453 246 LINE",
"200 246 LINE",
"111 88 LINE"
);
}
);
};
layerId = "5DA6E103-6A94-47F2-987D-4952DB8EA68E";
paths = (
{
closed = 1;
nodes = (
"147 0 LINE",
"430 478 LINE",
"355 478 LINE",
"442 0 LINE",
"665 0 LINE",
"525 582 LINE",
"299 582 LINE",
"-73 0 LINE"
);
},
{
closed = 1;
nodes = (
"480 88 LINE",
"453 246 LINE",
"200 246 LINE",
"111 88 LINE"
);
}
);
width = 702;
}
);
leftKerningGroup = a.sc;
rightKerningGroup = a.sc;
rightMetricsKey = "=|";
userData = {
RMXScaler = {
source = A;
};
};
},
{
glyphname = b.sc;
lastChange = "2017-09-11 21:11:09 +0000";
layers = (
{
anchors = (
{
name = bottom;
position = "{269, 0}";
},
{
name = top;
position = "{381, 559}";
}
);
background = {
anchors = (
{
name = bottom;
position = "{269, 0}";
},
{
name = top;
position = "{381, 559}";
}
);
paths = (
{
closed = 1;
nodes = (
"312 0 LINE",
"450 0 OFFCURVE",
"528 52 OFFCURVE",
"547 146 CURVE SMOOTH",
"566 241 OFFCURVE",
"510 290 OFFCURVE",
"379 290 CURVE",
"364 278 LINE",
"469 278 OFFCURVE",
"552 325 OFFCURVE",
"571 418 CURVE SMOOTH",
"589 511 OFFCURVE",
"525 559 OFFCURVE",
"408 559 CURVE SMOOTH",
"182 559 LINE",
"70 0 LINE"
);
},
{
closed = 1;
nodes = (
"145 274 LINE",
"370 274 LINE SMOOTH",
"489 274 OFFCURVE",
"545 236 OFFCURVE",
"527 147 CURVE SMOOTH",
"510 59 OFFCURVE",
"438 19 OFFCURVE",
"319 19 CURVE SMOOTH",
"94 19 LINE"
);
},
{
closed = 1;
nodes = (
"198 540 LINE",
"407 540 LINE SMOOTH",
"513 540 OFFCURVE",
"567 498 OFFCURVE",
"550 417 CURVE SMOOTH",
"534 336 OFFCURVE",
"464 293 OFFCURVE",
"358 293 CURVE SMOOTH",
"149 293 LINE"
);
}
);
};
layerId = UUID0;
paths = (
{
closed = 1;
nodes = (
"312 0 LINE",
"450 0 OFFCURVE",
"528 52 OFFCURVE",
"547 146 CURVE SMOOTH",
"566 241 OFFCURVE",
"510 290 OFFCURVE",
"379 290 CURVE",
"364 278 LINE",
"469 278 OFFCURVE",
"552 325 OFFCURVE",
"571 418 CURVE SMOOTH",
"589 511 OFFCURVE",
"525 559 OFFCURVE",
"408 559 CURVE SMOOTH",
"182 559 LINE",
"70 0 LINE"
);
},
{
closed = 1;
nodes = (
"145 274 LINE",
"370 274 LINE SMOOTH",
"489 274 OFFCURVE",
"545 236 OFFCURVE",
"527 147 CURVE SMOOTH",
"510 59 OFFCURVE",
"438 19 OFFCURVE",
"319 19 CURVE SMOOTH",
"94 19 LINE"
);
},
{
closed = 1;
nodes = (
"198 540 LINE",
"407 540 LINE SMOOTH",
"513 540 OFFCURVE",
"567 498 OFFCURVE",
"550 417 CURVE SMOOTH",
"534 336 OFFCURVE",
"464 293 OFFCURVE",
"358 293 CURVE SMOOTH",
"149 293 LINE"
);
}
);
width = 626;
},
{
anchors = (
{
name = bottom;
position = "{284, 0}";
},
{
name = top;
position = "{400, 582}";
}
);
background = {
anchors = (
{
name = bottom;
position = "{284, 0}";
},
{
name = top;
position = "{400, 582}";
}
);
paths = (
{
closed = 1;
nodes = (
"344 0 LINE",
"511 0 OFFCURVE",
"613 60 OFFCURVE",
"633 162 CURVE SMOOTH",
"654 263 OFFCURVE",
"581 325 OFFCURVE",
"448 325 CURVE",
"420 275 LINE",
"558 275 OFFCURVE",
"642 342 OFFCURVE",
"660 429 CURVE SMOOTH",
"677 516 OFFCURVE",
"614 582 OFFCURVE",
"444 582 CURVE SMOOTH",
"114 582 LINE",
"-2 0 LINE"
);
},
{
closed = 1;
nodes = (
"269 224 LINE",
"371 224 LINE SMOOTH",
"400 224 OFFCURVE",
"413 211 OFFCURVE",
"409 188 CURVE SMOOTH",
"404 166 OFFCURVE",
"385 152 OFFCURVE",
"356 152 CURVE SMOOTH",
"254 152 LINE"
);
},
{
closed = 1;
nodes = (
"310 430 LINE",
"383 430 LINE SMOOTH",
"415 430 OFFCURVE",
"427 417 OFFCURVE",
"423 395 CURVE SMOOTH",
"419 374 OFFCURVE",
"401 362 OFFCURVE",
"369 362 CURVE SMOOTH",
"296 362 LINE"
);
}
);
};
layerId = "5DA6E103-6A94-47F2-987D-4952DB8EA68E";
paths = (
{
closed = 1;
nodes = (
"344 0 LINE",
"511 0 OFFCURVE",
"613 60 OFFCURVE",
"633 162 CURVE SMOOTH",
"654 263 OFFCURVE",
"581 325 OFFCURVE",
"448 325 CURVE",
"420 275 LINE",
"558 275 OFFCURVE",
"642 342 OFFCURVE",
"660 429 CURVE SMOOTH",
"677 516 OFFCURVE",
"614 582 OFFCURVE",
"444 582 CURVE SMOOTH",
"114 582 LINE",
"-2 0 LINE"
);
},
{
closed = 1;
nodes = (
"269 224 LINE",
"371 224 LINE SMOOTH",
"400 224 OFFCURVE",
"413 211 OFFCURVE",
"409 188 CURVE SMOOTH",
"404 166 OFFCURVE",
"385 152 OFFCURVE",
"356 152 CURVE SMOOTH",
"254 152 LINE"
);
},
{
closed = 1;
nodes = (
"310 430 LINE",
"383 430 LINE SMOOTH",
"415 430 OFFCURVE",
"427 417 OFFCURVE",
"423 395 CURVE SMOOTH",
"419 374 OFFCURVE",
"401 362 OFFCURVE",
"369 362 CURVE SMOOTH",
"296 362 LINE"
);
}
);
width = 674;
}
);
leftKerningGroup = h.sc;
leftMetricsKey = h.sc;
rightKerningGroup = b.sc;
userData = {
RMXScaler = {
source = B;
};
};
},
{
glyphname = c.sc;
lastChange = "2017-09-11 21:11:09 +0000";
layers = (
{
anchors = (
{
name = bottom;
position = "{287, 0}";
},
{
name = top;
position = "{399, 559}";
}
);
background = {
anchors = (
{
name = bottom;
position = "{287, 0}";
},
{
name = top;
position = "{399, 559}";
}
);
paths = (
{
closed = 1;
nodes = (
"369 -3 OFFCURVE",
"444 22 OFFCURVE",
"503 70 CURVE",
"494 84 LINE",
"433 36 OFFCURVE",
"367 17 OFFCURVE",
"298 17 CURVE SMOOTH",
"144 17 OFFCURVE",
"50 131 OFFCURVE",
"80 280 CURVE SMOOTH",
"110 429 OFFCURVE",
"250 543 OFFCURVE",
"404 543 CURVE SMOOTH",
"473 543 OFFCURVE",
"531 524 OFFCURVE",
"572 476 CURVE",
"587 490 LINE",
"548 538 OFFCURVE",
"482 562 OFFCURVE",
"407 562 CURVE SMOOTH",
"241 562 OFFCURVE",
"92 441 OFFCURVE",
"60 280 CURVE SMOOTH",
"28 118 OFFCURVE",
"128 -3 OFFCURVE",
"294 -3 CURVE SMOOTH"
);
}
);
};
layerId = UUID0;
paths = (
{
closed = 1;
nodes = (
"369 -3 OFFCURVE",
"444 22 OFFCURVE",
"503 70 CURVE",
"494 84 LINE",
"433 36 OFFCURVE",
"367 17 OFFCURVE",
"298 17 CURVE SMOOTH",
"144 17 OFFCURVE",
"50 131 OFFCURVE",
"80 280 CURVE SMOOTH",
"110 429 OFFCURVE",
"250 543 OFFCURVE",
"404 543 CURVE SMOOTH",
"473 543 OFFCURVE",
"531 524 OFFCURVE",
"572 476 CURVE",
"587 490 LINE",
"548 538 OFFCURVE",
"482 562 OFFCURVE",
"407 562 CURVE SMOOTH",
"241 562 OFFCURVE",
"92 441 OFFCURVE",
"60 280 CURVE SMOOTH",
"28 118 OFFCURVE",
"128 -3 OFFCURVE",
"294 -3 CURVE SMOOTH"
);
}
);
width = 588;
},
{
anchors = (
{
name = bottom;
position = "{278, 0}";
},
{
name = top;
position = "{420, 583}";
}
);
background = {
anchors = (
{
name = bottom;
position = "{278, 0}";
},
{
name = top;
position = "{420, 583}";
}
);
paths = (
{
closed = 1;
nodes = (
"421 -15 OFFCURVE",
"518 18 OFFCURVE",
"602 108 CURVE",
"480 233 LINE",
"435 187 OFFCURVE",
"393 165 OFFCURVE",
"348 165 CURVE SMOOTH",
"282 165 OFFCURVE",
"243 211 OFFCURVE",
"259 291 CURVE SMOOTH",
"275 371 OFFCURVE",
"332 417 OFFCURVE",
"398 417 CURVE SMOOTH",
"443 417 OFFCURVE",
"477 395 OFFCURVE",
"503 349 CURVE",
"675 474 LINE",
"627 564 OFFCURVE",
"543 597 OFFCURVE",
"425 597 CURVE SMOOTH",
"232 597 OFFCURVE",
"63 470 OFFCURVE",
"27 291 CURVE SMOOTH",
"-9 112 OFFCURVE",
"110 -15 OFFCURVE",
"303 -15 CURVE SMOOTH"
);
}
);
};
layerId = "5DA6E103-6A94-47F2-987D-4952DB8EA68E";
paths = (
{
closed = 1;
nodes = (
"421 -15 OFFCURVE",
"518 18 OFFCURVE",
"602 108 CURVE",
"480 233 LINE",
"435 187 OFFCURVE",
"393 165 OFFCURVE",
"348 165 CURVE SMOOTH",
"282 165 OFFCURVE",
"243 211 OFFCURVE",
"259 291 CURVE SMOOTH",
"275 371 OFFCURVE",
"332 417 OFFCURVE",
"398 417 CURVE SMOOTH",
"443 417 OFFCURVE",
"477 395 OFFCURVE",
"503 349 CURVE",
"675 474 LINE",
"627 564 OFFCURVE",
"543 597 OFFCURVE",
"425 597 CURVE SMOOTH",
"232 597 OFFCURVE",
"63 470 OFFCURVE",
"27 291 CURVE SMOOTH",
"-9 112 OFFCURVE",
"110 -15 OFFCURVE",
"303 -15 CURVE SMOOTH"
);
}
);
width = 646;
}
);
leftKerningGroup = o.sc;
leftMetricsKey = o.sc;
rightKerningGroup = c.sc;
userData = {
RMXScaler = {
source = C;
};
};
},
{
glyphname = d.sc;
lastChange = "2017-09-11 21:11:09 +0000";
layers = (
{
anchors = (
{
name = bottom;
position = "{284, 0}";
},
{
name = center;
position = "{183, 284}";
},
{
name = top;
position = "{392, 559}";
}
);
background = {
anchors = (
{
name = bottom;
position = "{284, 0}";
},
{
name = center;
position = "{183, 284}";
},
{
name = top;
position = "{392, 559}";
}
);
paths = (
{
closed = 1;
nodes = (
"286 0 LINE",
"473 0 OFFCURVE",
"609 118 OFFCURVE",
"641 280 CURVE SMOOTH",
"673 441 OFFCURVE",
"585 559 OFFCURVE",
"398 559 CURVE SMOOTH",
"182 559 LINE",
"70 0 LINE"
);
},
{
closed = 1;
nodes = (
"198 540 LINE",
"392 540 LINE SMOOTH",
"572 540 OFFCURVE",
"651 430 OFFCURVE",
"621 280 CURVE SMOOTH",
"591 129 OFFCURVE",
"468 19 OFFCURVE",
"288 19 CURVE SMOOTH",
"94 19 LINE"
);
}
);
};
layerId = UUID0;
paths = (
{
closed = 1;
nodes = (
"286 0 LINE",
"473 0 OFFCURVE",
"609 118 OFFCURVE",
"641 280 CURVE SMOOTH",
"673 441 OFFCURVE",
"585 559 OFFCURVE",
"398 559 CURVE SMOOTH",
"182 559 LINE",
"70 0 LINE"
);
},
{
closed = 1;
nodes = (
"198 540 LINE",
"392 540 LINE SMOOTH",
"572 540 OFFCURVE",
"651 430 OFFCURVE",
"621 280 CURVE SMOOTH",
"591 129 OFFCURVE",
"468 19 OFFCURVE",
"288 19 CURVE SMOOTH",
"94 19 LINE"
);
}
);
width = 693;
},
{
anchors = (
{
name = bottom;
position = "{260, 0}";
},
{
name = center;
position = "{194, 295}";
},
{
name = top;
position = "{375, 582}";
}
);
background = {
anchors = (
{
name = bottom;
position = "{260, 0}";
},
{
name = center;
position = "{194, 295}";
},
{
name = top;
position = "{375, 582}";
}
);
paths = (
{
closed = 1;
nodes = (
"298 0 LINE SMOOTH",
"500 0 OFFCURVE",
"661 109 OFFCURVE",
"697 291 CURVE SMOOTH",
"734 473 OFFCURVE",
"616 582 OFFCURVE",
"414 582 CURVE SMOOTH",
"114 582 LINE",
"-2 0 LINE"
);
},
{
closed = 1;
nodes = (
"310 410 LINE",
"373 410 LINE SMOOTH",
"439 410 OFFCURVE",
"481 372 OFFCURVE",
"465 291 CURVE SMOOTH",
"449 210 OFFCURVE",
"391 172 OFFCURVE",
"325 172 CURVE SMOOTH",
"262 172 LINE"
);
}
);
};
layerId = "5DA6E103-6A94-47F2-987D-4952DB8EA68E";
paths = (
{
closed = 1;
nodes = (
"298 0 LINE SMOOTH",
"500 0 OFFCURVE",
"661 109 OFFCURVE",
"697 291 CURVE SMOOTH",
"734 473 OFFCURVE",
"616 582 OFFCURVE",
"414 582 CURVE SMOOTH",
"114 582 LINE",
"-2 0 LINE"
);
},
{
closed = 1;
nodes = (
"310 410 LINE",
"373 410 LINE SMOOTH",
"439 410 OFFCURVE",
"481 372 OFFCURVE",
"465 291 CURVE SMOOTH",
"449 210 OFFCURVE",
"391 172 OFFCURVE",
"325 172 CURVE SMOOTH",
"262 172 LINE"
);
}
);
width = 718;
}
);
leftKerningGroup = h.sc;
leftMetricsKey = h.sc;
rightKerningGroup = o.sc;
rightMetricsKey = o.sc;
userData = {
RMXScaler = {
source = D;
};
};
},
{
glyphname = e.sc;
lastChange = "2017-09-11 21:11:09 +0000";
layers = (
{
anchors = (
{
name = bottom;
position = "{268, 0}";
},
{
name = ogonek;
position = "{449, 0}";
},
{
name = top;
position = "{366, 559}";
},
{
name = topleft;
position = "{108, 559}";
}
);
background = {
anchors = (
{
name = bottom;
position = "{268, 0}";
},
{
name = ogonek;
position = "{449, 0}";
},
{
name = top;
position = "{366, 559}";
},
{
name = topleft;
position = "{108, 559}";
}
);
paths = (
{
closed = 1;
nodes = (
"449 0 LINE",
"453 19 LINE",
"94 19 LINE",
"145 274 LINE",
"456 274 LINE",
"460 293 LINE",
"149 293 LINE",
"198 540 LINE",
"545 540 LINE",
"549 559 LINE",
"182 559 LINE",
"70 0 LINE"
);
}
);
};
layerId = UUID0;
paths = (
{
closed = 1;
nodes = (
"449 0 LINE",
"453 19 LINE",
"94 19 LINE",
"145 274 LINE",
"456 274 LINE",
"460 293 LINE",
"149 293 LINE",
"198 540 LINE",
"545 540 LINE",
"549 559 LINE",
"182 559 LINE",
"70 0 LINE"
);
}
);
width = 559;
},
{
anchors = (
{
name = bottom;
position = "{245, 0}";
},
{
name = ogonek;
position = "{506, 0}";
},
{
name = top;
position = "{363, 582}";
},
{
name = topleft;
position = "{61, 582}";
}
);
background = {
anchors = (
{
name = bottom;
position = "{245, 0}";
},
{
name = ogonek;
position = "{506, 0}";
},
{
name = top;
position = "{363, 582}";
},
{
name = topleft;
position = "{61, 582}";
}
);
paths = (
{
closed = 1;
nodes = (
"506 0 LINE",
"539 165 LINE",
"257 165 LINE",
"268 218 LINE",
"505 218 LINE",
"535 372 LINE",
"298 372 LINE",
"307 417 LINE",
"578 417 LINE",
"611 582 LINE",
"114 582 LINE",
"-2 0 LINE"
);
}
);
};
layerId = "5DA6E103-6A94-47F2-987D-4952DB8EA68E";
paths = (
{
closed = 1;
nodes = (
"506 0 LINE",
"539 165 LINE",
"257 165 LINE",
"268 218 LINE",
"505 218 LINE",
"535 372 LINE",
"298 372 LINE",
"307 417 LINE",
"578 417 LINE",
"611 582 LINE",
"114 582 LINE",
"-2 0 LINE"
);
}
);
width = 588;
}
);
leftKerningGroup = h.sc;
leftMetricsKey = h.sc;
rightKerningGroup = e.sc;
userData = {
RMXScaler = {
source = E;
};
};
},
{
glyphname = f.sc;
lastChange = "2017-09-11 21:11:09 +0000";
layers = (
{
background = {
paths = (
{
closed = 1;
nodes = (
"90 0 LINE",
"142 258 LINE",
"453 258 LINE",
"456 277 LINE",
"145 277 LINE",
"198 540 LINE",
"545 540 LINE",
"549 559 LINE",
"182 559 LINE",
"70 0 LINE"
);
}
);
};
layerId = UUID0;
paths = (
{
closed = 1;
nodes = (
"90 0 LINE",
"142 258 LINE",
"453 258 LINE",
"456 277 LINE",
"145 277 LINE",
"198 540 LINE",
"545 540 LINE",
"549 559 LINE",
"182 559 LINE",
"70 0 LINE"
);
}
);
width = 531;
},
{
background = {
paths = (
{
closed = 1;
nodes = (
"228 0 LINE",
"263 174 LINE",
"496 174 LINE",
"529 339 LINE",
"296 339 LINE",
"311 417 LINE",
"578 417 LINE",
"611 582 LINE",
"114 582 LINE",
"-2 0 LINE"
);
}
);
};
layerId = "5DA6E103-6A94-47F2-987D-4952DB8EA68E";
paths = (
{
closed = 1;
nodes = (
"228 0 LINE",
"263 174 LINE",
"496 174 LINE",
"529 339 LINE",
"296 339 LINE",
"311 417 LINE",
"578 417 LINE",
"611 582 LINE",
"114 582 LINE",
"-2 0 LINE"
);
}
);
width = 566;
}
);
leftKerningGroup = h.sc;
leftMetricsKey = h.sc;
rightKerningGroup = f.sc;
userData = {
RMXScaler = {
source = F;
};
};
},
{
glyphname = g.sc;
lastChange = "2017-09-11 21:11:09 +0000";
layers = (
{
anchors = (
{
name = bottom;
position = "{282, 0}";
},
{
name = top;
position = "{395, 559}";
}
);
background = {
anchors = (
{
name = bottom;
position = "{282, 0}";
},
{
name = top;
position = "{395, 559}";
}
);
paths = (
{
closed = 1;
nodes = (
"508 69 CURVE",
"499 85 LINE",
"440 35 OFFCURVE",
"371 17 OFFCURVE",
"301 17 CURVE SMOOTH",
"144 17 OFFCURVE",
"50 131 OFFCURVE",
"80 280 CURVE SMOOTH",
"110 429 OFFCURVE",
"250 543 OFFCURVE",
"407 543 CURVE SMOOTH",
"478 543 OFFCURVE",
"535 524 OFFCURVE",
"577 476 CURVE",
"592 490 LINE",
"553 538 OFFCURVE",
"487 562 OFFCURVE",
"410 562 CURVE SMOOTH",
"241 562 OFFCURVE",
"92 441 OFFCURVE",
"60 280 CURVE SMOOTH",
"28 118 OFFCURVE",
"128 -3 OFFCURVE",
"297 -3 CURVE SMOOTH",
"374 -3 OFFCURVE",
"449 21 OFFCURVE"
);
},
{
closed = 1;
nodes = (
"508 69 LINE",
"549 275 LINE",
"530 275 LINE",
"489 69 LINE"
);
}
);
};
layerId = UUID0;
paths = (
{
closed = 1;
nodes = (
"508 69 CURVE",
"499 85 LINE",
"440 35 OFFCURVE",
"371 17 OFFCURVE",
"301 17 CURVE SMOOTH",
"144 17 OFFCURVE",
"50 131 OFFCURVE",
"80 280 CURVE SMOOTH",
"110 429 OFFCURVE",
"250 543 OFFCURVE",
"407 543 CURVE SMOOTH",
"478 543 OFFCURVE",
"535 524 OFFCURVE",
"577 476 CURVE",
"592 490 LINE",
"553 538 OFFCURVE",
"487 562 OFFCURVE",
"410 562 CURVE SMOOTH",
"241 562 OFFCURVE",
"92 441 OFFCURVE",
"60 280 CURVE SMOOTH",
"28 118 OFFCURVE",
"128 -3 OFFCURVE",
"297 -3 CURVE SMOOTH",
"374 -3 OFFCURVE",
"449 21 OFFCURVE"
);
},
{
closed = 1;
nodes = (
"508 69 LINE",
"549 275 LINE",
"530 275 LINE",
"489 69 LINE"
);
}
);
width = 647;
},
{
anchors = (
{
name = bottom;
position = "{297, 0}";
},
{
name = top;
position = "{427, 583}";
}
);
background = {
anchors = (
{
name = bottom;
position = "{297, 0}";
},
{
name = top;
position = "{427, 583}";
}
);
paths = (
{
closed = 1;
nodes = (
"583 59 CURVE",
"485 208 LINE",
"435 178 OFFCURVE",
"395 165 OFFCURVE",
"351 165 CURVE SMOOTH",
"277 165 OFFCURVE",
"244 213 OFFCURVE",
"259 291 CURVE SMOOTH",
"275 371 OFFCURVE",
"332 417 OFFCURVE",
"402 417 CURVE SMOOTH",
"449 417 OFFCURVE",
"485 397 OFFCURVE",
"511 354 CURVE",
"687 479 LINE",
"642 556 OFFCURVE",
"561 597 OFFCURVE",
"438 597 CURVE SMOOTH",
"232 597 OFFCURVE",
"63 468 OFFCURVE",
"27 291 CURVE SMOOTH",
"-8 114 OFFCURVE",
"101 -15 OFFCURVE",
"311 -15 CURVE SMOOTH",
"389 -15 OFFCURVE",
"498 11 OFFCURVE"
);
},
{
closed = 1;
nodes = (
"583 59 LINE",
"632 304 LINE",
"433 304 LINE",
"383 56 LINE"
);
}
);
};
layerId = "5DA6E103-6A94-47F2-987D-4952DB8EA68E";
paths = (
{
closed = 1;
nodes = (
"583 59 CURVE",
"485 208 LINE",
"435 178 OFFCURVE",
"395 165 OFFCURVE",
"351 165 CURVE SMOOTH",
"277 165 OFFCURVE",
"244 213 OFFCURVE",
"259 291 CURVE SMOOTH",
"275 371 OFFCURVE",
"332 417 OFFCURVE",
"402 417 CURVE SMOOTH",
"449 417 OFFCURVE",
"485 397 OFFCURVE",
"511 354 CURVE",
"687 479 LINE",
"642 556 OFFCURVE",
"561 597 OFFCURVE",
"438 597 CURVE SMOOTH",
"232 597 OFFCURVE",
"63 468 OFFCURVE",
"27 291 CURVE SMOOTH",
"-8 114 OFFCURVE",
"101 -15 OFFCURVE",
"311 -15 CURVE SMOOTH",
"389 -15 OFFCURVE",
"498 11 OFFCURVE"
);
},
{
closed = 1;
nodes = (
"583 59 LINE",
"632 304 LINE",
"433 304 LINE",
"383 56 LINE"
);
}
);
width = 666;
}
);
leftKerningGroup = o.sc;
leftMetricsKey = o.sc;
rightKerningGroup = g.sc;
userData = {
RMXScaler = {
source = G;
};
};
},
{
glyphname = h.sc;
lastChange = "2017-09-11 21:11:09 +0000";
layers = (
{
anchors = (
{
name = bottom;
position = "{294, 0}";
},
{
name = center;
position = "{380, 431}";
},
{
name = top;
position = "{406, 559}";
}
);
background = {
anchors = (
{
name = bottom;
position = "{294, 0}";
},
{
name = center;
position = "{380, 431}";
},
{
name = top;
position = "{406, 559}";
}
);
paths = (
{
closed = 1;
nodes = (
"90 0 LINE",
"145 274 LINE",
"553 274 LINE",
"498 0 LINE",
"518 0 LINE",
"630 559 LINE",
"610 559 LINE",
"557 293 LINE",
"149 293 LINE",
"202 559 LINE",
"182 559 LINE",
"70 0 LINE"
);
}
);
};
layerId = UUID0;
paths = (
{
closed = 1;
nodes = (
"90 0 LINE",
"145 274 LINE",
"553 274 LINE",
"498 0 LINE",
"518 0 LINE",
"630 559 LINE",
"610 559 LINE",
"557 293 LINE",
"149 293 LINE",
"202 559 LINE",
"182 559 LINE",
"70 0 LINE"
);
}
);
width = 692;
},
{
anchors = (
{
name = bottom;
position = "{300, 0}";
},
{
name = center;
position = "{397, 483}";
},
{
name = top;
position = "{416, 582}";
}
);
background = {
anchors = (
{
name = bottom;
position = "{300, 0}";
},
{
name = center;
position = "{397, 483}";
},
{
name = top;
position = "{416, 582}";
}
);
paths = (
{
closed = 1;
nodes = (
"228 0 LINE",
"269 204 LINE",
"413 204 LINE",
"372 0 LINE",
"602 0 LINE",
"718 582 LINE",
"488 582 LINE",
"449 386 LINE",
"305 386 LINE",
"344 582 LINE",
"114 582 LINE",
"-2 0 LINE"
);
}
);
};
layerId = "5DA6E103-6A94-47F2-987D-4952DB8EA68E";
paths = (
{
closed = 1;
nodes = (
"228 0 LINE",
"269 204 LINE",
"413 204 LINE",
"372 0 LINE",
"602 0 LINE",
"718 582 LINE",
"488 582 LINE",
"449 386 LINE",
"305 386 LINE",
"344 582 LINE",
"114 582 LINE",
"-2 0 LINE"
);
}
);
width = 710;
}
);
leftKerningGroup = h.sc;
rightKerningGroup = h.sc;
rightMetricsKey = "=|";
userData = {
RMXScaler = {
source = H;
};
};
},
{
glyphname = i.sc;
lastChange = "2017-09-11 21:11:09 +0000";
layers = (
{
anchors = (
{
name = bottom;
position = "{80, 0}";
},
{
name = ogonek;
position = "{90, 0}";
},
{
name = top;
position = "{192, 559}";
},
{
name = topleft;
position = "{108, 559}";
}
);
background = {
anchors = (
{
name = bottom;
position = "{80, 0}";
},
{
name = ogonek;
position = "{90, 0}";
},
{
name = top;
position = "{192, 559}";
},
{
name = topleft;
position = "{108, 559}";
}
);
paths = (
{
closed = 1;
nodes = (
"90 0 LINE",
"202 559 LINE",
"182 559 LINE",
"70 0 LINE"
);
}
);
};
layerId = UUID0;
paths = (
{
closed = 1;
nodes = (
"90 0 LINE",
"202 559 LINE",
"182 559 LINE",
"70 0 LINE"
);
}
);
width = 264;
},
{
anchors = (
{
name = bottom;
position = "{113, 0}";
},
{
name = ogonek;
position = "{228, 0}";
},
{
name = top;
position = "{229, 582}";
},
{
name = topleft;
position = "{61, 582}";
}
);
background = {
anchors = (
{
name = bottom;
position = "{113, 0}";
},
{
name = ogonek;
position = "{228, 0}";
},
{
name = top;
position = "{229, 582}";
},
{
name = topleft;
position = "{61, 582}";
}
);
paths = (
{
closed = 1;
nodes = (
"228 0 LINE",
"344 582 LINE",
"114 582 LINE",
"-2 0 LINE"
);
}
);
};
layerId = "5DA6E103-6A94-47F2-987D-4952DB8EA68E";
paths = (
{
closed = 1;
nodes = (
"228 0 LINE",
"344 582 LINE",
"114 582 LINE",
"-2 0 LINE"
);
}
);
width = 336;
}
);
leftKerningGroup = h.sc;
leftMetricsKey = h.sc;
rightKerningGroup = h.sc;
rightMetricsKey = h.sc;
userData = {
RMXScaler = {
source = I;
};
};
},
{
glyphname = ij.sc;
lastChange = "2017-09-11 21:11:09 +0000";
layers = (
{
anchors = (
{
name = top;
position = "{214, 559}";
}
);
background = {
anchors = (
{
name = top;
position = "{214, 559}";
}
);
paths = (
{
closed = 1;
nodes = (
"359 -3 OFFCURVE",
"459 74 OFFCURVE",
"491 233 CURVE SMOOTH",
"556 559 LINE",
"536 559 LINE",
"471 233 LINE SMOOTH",
"441 85 OFFCURVE",
"354 16 OFFCURVE",
"235 16 CURVE SMOOTH",
"175 16 OFFCURVE",
"123 35 OFFCURVE",
"86 67 CURVE",
"72 50 LINE",
"110 18 OFFCURVE",
"165 -3 OFFCURVE",
"231 -3 CURVE SMOOTH"
);
},
{
closed = 1;
nodes = (
"135 233 LINE",
"200 559 LINE",
"180 559 LINE",
"115 233 LINE"
);
}
);
};
layerId = UUID0;
paths = (
{
closed = 1;
nodes = (
"359 -3 OFFCURVE",
"459 74 OFFCURVE",
"491 233 CURVE SMOOTH",
"556 559 LINE",
"536 559 LINE",
"471 233 LINE SMOOTH",
"441 85 OFFCURVE",
"354 16 OFFCURVE",
"235 16 CURVE SMOOTH",
"175 16 OFFCURVE",
"123 35 OFFCURVE",
"86 67 CURVE",
"72 50 LINE",
"110 18 OFFCURVE",
"165 -3 OFFCURVE",
"231 -3 CURVE SMOOTH"
);
},
{
closed = 1;
nodes = (
"135 233 LINE",
"200 559 LINE",
"180 559 LINE",
"115 233 LINE"
);
}
);
width = 612;
},
{
anchors = (
{
name = top;
position = "{212, 582}";
}
);
background = {
anchors = (
{
name = top;
position = "{212, 582}";
}
);
paths = (
{
closed = 1;
nodes = (
"415 -9 OFFCURVE",
"558 96 OFFCURVE",
"595 282 CURVE SMOOTH",
"655 582 LINE",
"425 582 LINE",
"363 270 LINE SMOOTH",
"349 198 OFFCURVE",
"309 168 OFFCURVE",
"244 168 CURVE SMOOTH",
"188 168 OFFCURVE",
"137 186 OFFCURVE",
"94 221 CURVE",
"-21 61 LINE",
"34 18 OFFCURVE",
"109 -9 OFFCURVE",
"219 -9 CURVE SMOOTH"
);
},
{
closed = 1;
nodes = (
"272 285 LINE",
"331 582 LINE",
"101 582 LINE",
"42 285 LINE"
);
}
);
};
layerId = "5DA6E103-6A94-47F2-987D-4952DB8EA68E";
paths = (
{
closed = 1;
nodes = (
"415 -9 OFFCURVE",
"558 96 OFFCURVE",
"595 282 CURVE SMOOTH",
"655 582 LINE",
"425 582 LINE",
"363 270 LINE SMOOTH",
"349 198 OFFCURVE",
"309 168 OFFCURVE",
"244 168 CURVE SMOOTH",
"188 168 OFFCURVE",
"137 186 OFFCURVE",
"94 221 CURVE",
"-21 61 LINE",
"34 18 OFFCURVE",
"109 -9 OFFCURVE",
"219 -9 CURVE SMOOTH"
);
},
{
closed = 1;
nodes = (
"272 285 LINE",
"331 582 LINE",
"101 582 LINE",
"42 285 LINE"
);
}
);
width = 642;
}
);
leftKerningGroup = h.sc;
rightKerningGroup = u.sc;
rightMetricsKey = u.sc;
},
{
glyphname = j.sc;
lastChange = "2017-09-11 21:11:09 +0000";
layers = (
{
anchors = (
{
name = top;
position = "{238, 559}";
}
);
background = {
anchors = (
{
name = top;
position = "{238, 559}";
}
);
paths = (
{
closed = 1;
nodes = (
"194 -3 OFFCURVE",
"252 51 OFFCURVE",
"273 157 CURVE SMOOTH",
"354 559 LINE",
"123 559 LINE",
"119 540 LINE",
"330 540 LINE",
"254 158 LINE SMOOTH",
"234 62 OFFCURVE",
"186 17 OFFCURVE",
"104 17 CURVE SMOOTH",
"50 17 OFFCURVE",
"12 43 OFFCURVE",
"-10 89 CURVE",
"-26 77 LINE",
"-6 27 OFFCURVE",
"42 -3 OFFCURVE",
"100 -3 CURVE SMOOTH"
);
}
);
};
layerId = UUID0;
paths = (
{
closed = 1;
nodes = (
"194 -3 OFFCURVE",
"252 51 OFFCURVE",
"273 157 CURVE SMOOTH",
"354 559 LINE",
"123 559 LINE",
"119 540 LINE",
"330 540 LINE",
"254 158 LINE SMOOTH",
"234 62 OFFCURVE",
"186 17 OFFCURVE",
"104 17 CURVE SMOOTH",
"50 17 OFFCURVE",
"12 43 OFFCURVE",
"-10 89 CURVE",
"-26 77 LINE",
"-6 27 OFFCURVE",
"42 -3 OFFCURVE",
"100 -3 CURVE SMOOTH"
);
}
);
width = 410;
},
{
anchors = (
{
name = top;
position = "{318, 582}";
}
);
background = {
anchors = (
{
name = top;
position = "{318, 582}";
}
);
paths = (
{
closed = 1;
nodes = (
"317 -15 OFFCURVE",
"427 67 OFFCURVE",
"463 244 CURVE SMOOTH",
"530 582 LINE",
"105 582 LINE",
"72 414 LINE",
"270 414 LINE",
"231 221 LINE SMOOTH",
"223 182 OFFCURVE",
"200 160 OFFCURVE",
"166 160 CURVE SMOOTH",
"136 160 OFFCURVE",
"113 178 OFFCURVE",
"94 216 CURVE",
"-63 75 LINE",
"-25 15 OFFCURVE",
"47 -15 OFFCURVE",
"147 -15 CURVE SMOOTH"
);
}
);
};
layerId = "5DA6E103-6A94-47F2-987D-4952DB8EA68E";
paths = (
{
closed = 1;
nodes = (
"317 -15 OFFCURVE",
"427 67 OFFCURVE",
"463 244 CURVE SMOOTH",
"530 582 LINE",
"105 582 LINE",
"72 414 LINE",
"270 414 LINE",
"231 221 LINE SMOOTH",
"223 182 OFFCURVE",
"200 160 OFFCURVE",
"166 160 CURVE SMOOTH",
"136 160 OFFCURVE",
"113 178 OFFCURVE",
"94 216 CURVE",
"-63 75 LINE",
"-25 15 OFFCURVE",
"47 -15 OFFCURVE",
"147 -15 CURVE SMOOTH"
);
}
);
width = 517;
}
);
leftKerningGroup = j.sc;
rightKerningGroup = u.sc;
rightMetricsKey = u.sc;
userData = {
RMXScaler = {
source = J;
};
};
},
{
glyphname = k.sc;
lastChange = "2017-09-11 21:11:09 +0000";
layers = (
{
anchors = (
{
name = bottom;
position = "{264, 0}";
},
{
name = top;
position = "{376, 559}";
}
);
background = {
anchors = (
{
name = bottom;
position = "{264, 0}";
},
{
name = top;
position = "{376, 559}";
}
);
paths = (
{
closed = 1;
nodes = (
"288 289 LINE",
"302 301 LINE",
"607 559 LINE",
"581 559 LINE",
"120 172 LINE",
"116 145 LINE"
);
},
{
closed = 1;
nodes = (
"90 0 LINE",
"202 559 LINE",
"182 559 LINE",
"70 0 LINE"
);
},
{
closed = 1;
nodes = (
"514 0 LINE",
"298 313 LINE",
"280 299 LINE",
"487 0 LINE"
);
}
);
};
layerId = UUID0;
paths = (
{
closed = 1;
nodes = (
"288 289 LINE",
"302 301 LINE",
"607 559 LINE",
"581 559 LINE",
"120 172 LINE",
"116 145 LINE"
);
},
{
closed = 1;
nodes = (
"90 0 LINE",
"202 559 LINE",
"182 559 LINE",
"70 0 LINE"
);
},
{
closed = 1;
nodes = (
"514 0 LINE",
"298 313 LINE",
"280 299 LINE",
"487 0 LINE"
);
}
);
width = 586;
},
{
anchors = (
{
name = bottom;
position = "{287, 0}";
},
{
name = top;
position = "{403, 582}";
}
);
background = {
anchors = (
{
name = bottom;
position = "{287, 0}";
},
{
name = top;
position = "{403, 582}";
}
);
paths = (
{
closed = 1;
nodes = (
"295 185 LINE",
"448 309 LINE",
"750 582 LINE",
"500 582 LINE",
"264 365 LINE",
"227 121 LINE"
);
},
{
closed = 1;
nodes = (
"224 0 LINE",
"340 582 LINE",
"114 582 LINE",
"-2 0 LINE"
);
},
{
closed = 1;
nodes = (
"644 0 LINE",
"444 366 LINE",
"265 213 LINE",
"379 0 LINE"
);
}
);
};
layerId = "5DA6E103-6A94-47F2-987D-4952DB8EA68E";
paths = (
{
closed = 1;
nodes = (
"295 185 LINE",
"448 309 LINE",
"750 582 LINE",
"500 582 LINE",
"264 365 LINE",
"227 121 LINE"
);
},
{
closed = 1;
nodes = (
"224 0 LINE",
"340 582 LINE",
"114 582 LINE",
"-2 0 LINE"
);
},
{
closed = 1;
nodes = (
"644 0 LINE",
"444 366 LINE",
"265 213 LINE",
"379 0 LINE"
);
}
);
width = 678;
}
);
leftKerningGroup = h.sc;
leftMetricsKey = h.sc;
rightKerningGroup = k.sc;
userData = {
RMXScaler = {
source = K;
};
};
},
{
glyphname = l.sc;
lastChange = "2017-09-11 21:11:09 +0000";
layers = (
{
anchors = (
{
name = bottom;
position = "{257, 0}";
},
{
name = center;
position = "{138, 289}";
},
{
name = dot;
position = "{381, 289}";
},
{
name = top;
position = "{192, 559}";
},
{
name = topright;
position = "{436, 559}";
}
);
background = {
anchors = (
{
name = bottom;
position = "{257, 0}";
},
{
name = center;
position = "{138, 289}";
},
{
name = dot;
position = "{381, 289}";
},
{
name = top;
position = "{192, 559}";
},
{
name = topright;
position = "{436, 559}";
}
);
paths = (
{
closed = 1;
nodes = (
"426 0 LINE",
"430 19 LINE",
"94 19 LINE",
"202 559 LINE",
"182 559 LINE",
"70 0 LINE"
);
}
);
};
layerId = UUID0;
paths = (
{
closed = 1;
nodes = (
"426 0 LINE",
"430 19 LINE",
"94 19 LINE",
"202 559 LINE",
"182 559 LINE",
"70 0 LINE"
);
}
);
width = 486;
},
{
anchors = (
{
name = bottom;
position = "{249, 0}";
},
{
name = center;
position = "{180, 337}";
},
{
name = dot;
position = "{460, 376}";
},
{
name = top;
position = "{229, 582}";
},
{
name = topright;
position = "{431, 582}";
}
);
background = {
anchors = (
{
name = bottom;
position = "{249, 0}";
},
{
name = center;
position = "{180, 337}";
},
{
name = dot;
position = "{460, 376}";
},
{
name = top;
position = "{229, 582}";
},
{
name = topright;
position = "{431, 582}";
}
);
paths = (
{
closed = 1;
nodes = (
"481 0 LINE",
"515 170 LINE",
"262 170 LINE",
"344 582 LINE",
"114 582 LINE",
"-2 0 LINE"
);
}
);
};
layerId = "5DA6E103-6A94-47F2-987D-4952DB8EA68E";
paths = (
{
closed = 1;
nodes = (
"481 0 LINE",
"515 170 LINE",
"262 170 LINE",
"344 582 LINE",
"114 582 LINE",
"-2 0 LINE"
);
}
);
width = 543;
}
);
leftKerningGroup = h.sc;
leftMetricsKey = h.sc;
rightKerningGroup = l.sc;
userData = {
RMXScaler = {
source = L;
};
};
},
{
glyphname = m.sc;
lastChange = "2017-09-11 21:11:09 +0000";
layers = (
{
anchors = (
{
name = bottom;
position = "{351, 0}";
},
{
name = top;
position = "{463, 559}";
}
);
background = {
anchors = (
{
name = bottom;
position = "{351, 0}";
},
{
name = top;
position = "{463, 559}";
}
);
paths = (
{
closed = 1;
nodes = (
"90 0 LINE",
"196 529 LINE",
"188 529 LINE",
"361 78 LINE",
"372 78 LINE",
"724 529 LINE",
"717 529 LINE",
"611 0 LINE",
"631 0 LINE",
"743 559 LINE",
"726 559 LINE",
"366 97 LINE",
"375 97 LINE",
"199 559 LINE",
"182 559 LINE",
"70 0 LINE"
);
}
);
};
layerId = UUID0;
paths = (
{
closed = 1;
nodes = (
"90 0 LINE",
"196 529 LINE",
"188 529 LINE",
"361 78 LINE",
"372 78 LINE",
"724 529 LINE",
"717 529 LINE",
"611 0 LINE",
"631 0 LINE",
"743 559 LINE",
"726 559 LINE",
"366 97 LINE",
"375 97 LINE",
"199 559 LINE",
"182 559 LINE",
"70 0 LINE"
);
}
);
width = 805;
},
{
anchors = (
{
name = bottom;
position = "{364, 0}";
},
{
name = top;
position = "{480, 582}";
}
);
background = {
anchors = (
{
name = bottom;
position = "{364, 0}";
},
{
name = top;
position = "{480, 582}";
}
);
paths = (
{
closed = 1;
nodes = (
"207 0 LINE",
"262 276 LINE",
"224 276 LINE",
"323 53 LINE",
"425 53 LINE",
"604 276 LINE",
"574 276 LINE",
"521 0 LINE",
"730 0 LINE",
"844 582 LINE",
"655 582 LINE",
"364 222 LINE",
"458 222 LINE",
"303 582 LINE",
"114 582 LINE",
"-2 0 LINE"
);
}
);
};
layerId = "5DA6E103-6A94-47F2-987D-4952DB8EA68E";
paths = (
{
closed = 1;
nodes = (
"207 0 LINE",
"262 276 LINE",
"224 276 LINE",
"323 53 LINE",
"425 53 LINE",
"604 276 LINE",
"574 276 LINE",
"521 0 LINE",
"730 0 LINE",
"844 582 LINE",
"655 582 LINE",
"364 222 LINE",
"458 222 LINE",
"303 582 LINE",
"114 582 LINE",
"-2 0 LINE"
);
}
);
width = 838;
}
);
leftKerningGroup = h.sc;
leftMetricsKey = h.sc;
rightKerningGroup = h.sc;
rightMetricsKey = h.sc;
userData = {
RMXScaler = {
source = M;
};
};
},
{
glyphname = n.sc;
lastChange = "2017-09-11 21:11:09 +0000";
layers = (
{
anchors = (
{
name = bottom;
position = "{294, 0}";
},
{
name = top;
position = "{406, 559}";
}
);
background = {
anchors = (
{
name = bottom;
position = "{294, 0}";
},
{
name = top;
position = "{406, 559}";
}
);
paths = (
{
closed = 1;
nodes = (
"90 0 LINE",
"197 535 LINE",
"187 535 LINE",
"501 0 LINE",
"518 0 LINE",
"630 559 LINE",
"610 559 LINE",
"503 24 LINE",
"513 24 LINE",
"199 559 LINE",
"182 559 LINE",
"70 0 LINE"
);
}
);
};
layerId = UUID0;
paths = (
{
closed = 1;
nodes = (
"90 0 LINE",
"197 535 LINE",
"187 535 LINE",
"501 0 LINE",
"518 0 LINE",
"630 559 LINE",
"610 559 LINE",
"503 24 LINE",
"513 24 LINE",
"199 559 LINE",
"182 559 LINE",
"70 0 LINE"
);
}
);
width = 692;
},
{
anchors = (
{
name = bottom;
position = "{300, 0}";
},
{
name = top;
position = "{416, 582}";
}
);
background = {
anchors = (
{
name = bottom;
position = "{300, 0}";
},
{
name = top;
position = "{416, 582}";
}
);
paths = (
{
closed = 1;
nodes = (
"222 0 LINE",
"287 323 LINE",
"199 323 LINE",
"413 0 LINE",
"602 0 LINE",
"718 582 LINE",
"494 582 LINE",
"430 259 LINE",
"516 259 LINE",
"303 582 LINE",
"114 582 LINE",
"-2 0 LINE"
);
}
);
};
layerId = "5DA6E103-6A94-47F2-987D-4952DB8EA68E";
paths = (
{
closed = 1;
nodes = (
"222 0 LINE",
"287 323 LINE",
"199 323 LINE",
"413 0 LINE",
"602 0 LINE",
"718 582 LINE",
"494 582 LINE",
"430 259 LINE",
"516 259 LINE",
"303 582 LINE",
"114 582 LINE",
"-2 0 LINE"
);
}
);
width = 710;
}
);
leftKerningGroup = h.sc;
leftMetricsKey = h.sc;
rightKerningGroup = h.sc;
rightMetricsKey = h.sc;
userData = {
RMXScaler = {
source = N;
};
};
},
{
glyphname = o.sc;
lastChange = "2017-09-11 21:11:09 +0000";
layers = (
{
anchors = (
{
name = bottom;
position = "{295, 0}";
},
{
name = center;
position = "{351, 280}";
},
{
name = ogonek;
position = "{338, 0}";
},
{
name = top;
position = "{407, 559}";
},
{
name = topleft;
position = "{116, 559}";
},
{
name = topright;
position = "{607, 559}";
}
);
background = {
anchors = (
{
name = bottom;
position = "{295, 0}";
},
{
name = center;
position = "{351, 280}";
},
{
name = ogonek;
position = "{338, 0}";
},
{
name = top;
position = "{407, 559}";
},
{
name = topleft;
position = "{116, 559}";
},
{
name = topright;
position = "{607, 559}";
}
);
paths = (
{
closed = 1;
nodes = (
"460 -3 OFFCURVE",
"610 118 OFFCURVE",
"642 280 CURVE SMOOTH",
"674 441 OFFCURVE",
"573 562 OFFCURVE",
"407 562 CURVE SMOOTH",
"241 562 OFFCURVE",
"92 441 OFFCURVE",
"60 280 CURVE SMOOTH",
"28 118 OFFCURVE",
"128 -3 OFFCURVE",
"294 -3 CURVE SMOOTH"
);
},
{
closed = 1;
nodes = (
"144 16 OFFCURVE",
"50 128 OFFCURVE",
"80 279 CURVE SMOOTH",
"110 430 OFFCURVE",
"250 543 OFFCURVE",
"404 543 CURVE SMOOTH",
"559 543 OFFCURVE",
"652 430 OFFCURVE",
"622 279 CURVE SMOOTH",
"592 128 OFFCURVE",
"453 16 OFFCURVE",
"298 16 CURVE SMOOTH"
);
}
);
};
layerId = UUID0;
paths = (
{
closed = 1;
nodes = (
"460 -3 OFFCURVE",
"610 118 OFFCURVE",
"642 280 CURVE SMOOTH",
"674 441 OFFCURVE",
"573 562 OFFCURVE",
"407 562 CURVE SMOOTH",
"241 562 OFFCURVE",
"92 441 OFFCURVE",
"60 280 CURVE SMOOTH",
"28 118 OFFCURVE",
"128 -3 OFFCURVE",
"294 -3 CURVE SMOOTH"
);
},
{
closed = 1;
nodes = (
"144 16 OFFCURVE",
"50 128 OFFCURVE",
"80 279 CURVE SMOOTH",
"110 430 OFFCURVE",
"250 543 OFFCURVE",
"404 543 CURVE SMOOTH",
"559 543 OFFCURVE",
"652 430 OFFCURVE",
"622 279 CURVE SMOOTH",
"592 128 OFFCURVE",
"453 16 OFFCURVE",
"298 16 CURVE SMOOTH"
);
}
);
width = 694;
},
{
anchors = (
{
name = bottom;
position = "{309, 0}";
},
{
name = center;
position = "{367, 291}";
},
{
name = ogonek;
position = "{423, 0}";
},
{
name = top;
position = "{425, 582}";
},
{
name = topleft;
position = "{90, 582}";
},
{
name = topright;
position = "{553, 582}";
}
);
background = {
anchors = (
{
name = bottom;
position = "{309, 0}";
},
{
name = center;
position = "{367, 291}";
},
{
name = ogonek;
position = "{423, 0}";
},
{
name = top;
position = "{425, 582}";
},
{
name = topleft;
position = "{90, 582}";
},
{
name = topright;
position = "{553, 582}";
}
);
paths = (
{
closed = 1;
nodes = (
"502 -15 OFFCURVE",
"671 114 OFFCURVE",
"706 291 CURVE SMOOTH",
"742 468 OFFCURVE",
"624 597 OFFCURVE",
"428 597 CURVE SMOOTH",
"232 597 OFFCURVE",
"63 468 OFFCURVE",
"27 291 CURVE SMOOTH",
"-8 114 OFFCURVE",
"110 -15 OFFCURVE",
"306 -15 CURVE SMOOTH"
);
},
{
closed = 1;
nodes = (
"279 165 OFFCURVE",
"244 217 OFFCURVE",
"259 291 CURVE SMOOTH",
"274 365 OFFCURVE",
"329 417 OFFCURVE",
"392 417 CURVE SMOOTH",
"455 417 OFFCURVE",
"489 365 OFFCURVE",
"474 291 CURVE SMOOTH",
"459 217 OFFCURVE",
"405 165 OFFCURVE",
"342 165 CURVE SMOOTH"
);
}
);
};
layerId = "5DA6E103-6A94-47F2-987D-4952DB8EA68E";
paths = (
{
closed = 1;
nodes = (
"502 -15 OFFCURVE",
"671 114 OFFCURVE",
"706 291 CURVE SMOOTH",
"742 468 OFFCURVE",
"624 597 OFFCURVE",
"428 597 CURVE SMOOTH",
"232 597 OFFCURVE",
"63 468 OFFCURVE",
"27 291 CURVE SMOOTH",
"-8 114 OFFCURVE",
"110 -15 OFFCURVE",
"306 -15 CURVE SMOOTH"
);
},
{
closed = 1;
nodes = (
"279 165 OFFCURVE",
"244 217 OFFCURVE",
"259 291 CURVE SMOOTH",
"274 365 OFFCURVE",
"329 417 OFFCURVE",
"392 417 CURVE SMOOTH",
"455 417 OFFCURVE",
"489 365 OFFCURVE",
"474 291 CURVE SMOOTH",
"459 217 OFFCURVE",
"405 165 OFFCURVE",
"342 165 CURVE SMOOTH"
);
}
);
width = 727;
}
);
leftKerningGroup = o.sc;
rightKerningGroup = o.sc;
rightMetricsKey = "=|";
userData = {
RMXScaler = {
source = O;
};
};
},
{
glyphname = p.sc;
lastChange = "2017-09-11 21:11:09 +0000";
layers = (
{
background = {
paths = (
{
closed = 1;
nodes = (
"90 0 LINE",
"130 200 LINE",
"119 190 LINE",
"302 190 LINE SMOOTH",
"441 190 OFFCURVE",
"539 258 OFFCURVE",
"562 375 CURVE SMOOTH",
"585 491 OFFCURVE",
"515 559 OFFCURVE",
"376 559 CURVE SMOOTH",
"182 559 LINE",
"70 0 LINE"
);
},
{
closed = 1;
nodes = (
"200 549 LINE",
"189 540 LINE",
"373 540 LINE SMOOTH",
"504 540 OFFCURVE",
"563 480 OFFCURVE",
"542 375 CURVE SMOOTH",
"521 270 OFFCURVE",
"438 209 OFFCURVE",
"307 209 CURVE SMOOTH",
"123 209 LINE",
"130 200 LINE"
);
}
);
};
layerId = UUID0;
paths = (
{
closed = 1;
nodes = (
"90 0 LINE",
"130 200 LINE",
"119 190 LINE",
"302 190 LINE SMOOTH",
"441 190 OFFCURVE",
"539 258 OFFCURVE",
"562 375 CURVE SMOOTH",
"585 491 OFFCURVE",
"515 559 OFFCURVE",
"376 559 CURVE SMOOTH",
"182 559 LINE",
"70 0 LINE"
);
},
{
closed = 1;
nodes = (
"200 549 LINE",
"189 540 LINE",
"373 540 LINE SMOOTH",
"504 540 OFFCURVE",
"563 480 OFFCURVE",
"542 375 CURVE SMOOTH",
"521 270 OFFCURVE",
"438 209 OFFCURVE",
"307 209 CURVE SMOOTH",
"123 209 LINE",
"130 200 LINE"
);
}
);
width = 605;
},
{
background = {
paths = (
{
closed = 1;
nodes = (
"228 0 LINE",
"274 230 LINE",
"152 135 LINE",
"324 135 LINE SMOOTH",
"492 135 OFFCURVE",
"617 221 OFFCURVE",
"645 358 CURVE SMOOTH",
"672 495 OFFCURVE",
"581 582 OFFCURVE",
"413 582 CURVE SMOOTH",
"114 582 LINE",
"-2 0 LINE"
);
},
{
closed = 1;
nodes = (
"330 511 LINE",
"228 413 LINE",
"362 413 LINE SMOOTH",
"406 413 OFFCURVE",
"421 390 OFFCURVE",
"415 358 CURVE SMOOTH",
"408 326 OFFCURVE",
"384 303 OFFCURVE",
"340 303 CURVE SMOOTH",
"206 303 LINE",
"269 205 LINE"
);
}
);
};
layerId = "5DA6E103-6A94-47F2-987D-4952DB8EA68E";
paths = (
{
closed = 1;
nodes = (
"228 0 LINE",
"274 230 LINE",
"152 135 LINE",
"324 135 LINE SMOOTH",
"492 135 OFFCURVE",
"617 221 OFFCURVE",
"645 358 CURVE SMOOTH",
"672 495 OFFCURVE",
"581 582 OFFCURVE",
"413 582 CURVE SMOOTH",
"114 582 LINE",
"-2 0 LINE"
);
},
{
closed = 1;
nodes = (
"330 511 LINE",
"228 413 LINE",
"362 413 LINE SMOOTH",
"406 413 OFFCURVE",
"421 390 OFFCURVE",
"415 358 CURVE SMOOTH",
"408 326 OFFCURVE",
"384 303 OFFCURVE",
"340 303 CURVE SMOOTH",
"206 303 LINE",
"269 205 LINE"
);
}
);
width = 653;
}
);
leftKerningGroup = h.sc;
leftMetricsKey = h.sc;
rightKerningGroup = p.sc;
userData = {
RMXScaler = {
source = P;
};
};
},
{
glyphname = thorn.sc;
lastChange = "2017-09-11 21:11:09 +0000";
layers = (
{
background = {
paths = (
{
closed = 1;
nodes = (
"286 110 LINE SMOOTH",
"425 110 OFFCURVE",
"523 179 OFFCURVE",
"546 295 CURVE SMOOTH",
"569 411 OFFCURVE",
"499 479 OFFCURVE",
"360 479 CURVE SMOOTH",
"178 479 LINE",
"174 460 LINE",
"357 460 LINE SMOOTH",
"488 460 OFFCURVE",
"547 400 OFFCURVE",
"526 295 CURVE SMOOTH",
"505 190 OFFCURVE",
"422 129 OFFCURVE",
"291 129 CURVE SMOOTH",
"108 129 LINE",
"104 110 LINE"
);
},
{
closed = 1;
nodes = (
"90 0 LINE",
"202 559 LINE",
"182 559 LINE",
"70 0 LINE"
);
}
);
};
layerId = UUID0;
paths = (
{
closed = 1;
nodes = (
"286 110 LINE SMOOTH",
"425 110 OFFCURVE",
"523 179 OFFCURVE",
"546 295 CURVE SMOOTH",
"569 411 OFFCURVE",
"499 479 OFFCURVE",
"360 479 CURVE SMOOTH",
"178 479 LINE",
"174 460 LINE",
"357 460 LINE SMOOTH",
"488 460 OFFCURVE",
"547 400 OFFCURVE",
"526 295 CURVE SMOOTH",
"505 190 OFFCURVE",
"422 129 OFFCURVE",
"291 129 CURVE SMOOTH",
"108 129 LINE",
"104 110 LINE"
);
},
{
closed = 1;
nodes = (
"90 0 LINE",
"202 559 LINE",
"182 559 LINE",
"70 0 LINE"
);
}
);
width = 605;
},
{
background = {
paths = (
{
closed = 1;
nodes = (
"314 83 LINE SMOOTH",
"482 83 OFFCURVE",
"607 169 OFFCURVE",
"634 306 CURVE SMOOTH",
"662 443 OFFCURVE",
"571 530 OFFCURVE",
"403 530 CURVE SMOOTH",
"287 530 LINE",
"253 361 LINE",
"351 361 LINE SMOOTH",
"395 361 OFFCURVE",
"411 338 OFFCURVE",
"404 306 CURVE SMOOTH",
"398 274 OFFCURVE",
"373 251 OFFCURVE",
"329 251 CURVE SMOOTH",
"231 251 LINE",
"198 83 LINE"
);
},
{
closed = 1;
nodes = (
"228 0 LINE",
"344 583 LINE",
"114 583 LINE",
"-2 0 LINE"
);
}
);
};
layerId = "5DA6E103-6A94-47F2-987D-4952DB8EA68E";
paths = (
{
closed = 1;
nodes = (
"314 83 LINE SMOOTH",
"482 83 OFFCURVE",
"607 169 OFFCURVE",
"634 306 CURVE SMOOTH",
"662 443 OFFCURVE",
"571 530 OFFCURVE",
"403 530 CURVE SMOOTH",
"287 530 LINE",
"253 361 LINE",
"351 361 LINE SMOOTH",
"395 361 OFFCURVE",
"411 338 OFFCURVE",
"404 306 CURVE SMOOTH",
"398 274 OFFCURVE",
"373 251 OFFCURVE",
"329 251 CURVE SMOOTH",
"231 251 LINE",
"198 83 LINE"
);
},
{
closed = 1;
nodes = (
"228 0 LINE",
"344 583 LINE",
"114 583 LINE",
"-2 0 LINE"
);
}
);
width = 653;
}
);
leftKerningGroup = h.sc;
leftMetricsKey = h.sc;
rightKerningGroup = thorn.sc;
rightMetricsKey = p.sc;
userData = {
RMXScaler = {
source = Thorn;
};
};
},
{
glyphname = q.sc;
lastChange = "2017-09-11 21:11:09 +0000";
layers = (
{
anchors = (
{
name = top;
position = "{407, 559}";
}
);
background = {
anchors = (
{
name = top;
position = "{407, 559}";
}
);
paths = (
{
closed = 1;
nodes = (
"460 -3 OFFCURVE",
"610 118 OFFCURVE",
"642 280 CURVE SMOOTH",
"674 441 OFFCURVE",
"573 562 OFFCURVE",
"407 562 CURVE SMOOTH",
"241 562 OFFCURVE",
"92 441 OFFCURVE",
"60 280 CURVE SMOOTH",
"28 118 OFFCURVE",
"128 -3 OFFCURVE",
"294 -3 CURVE SMOOTH"
);
},
{
closed = 1;
nodes = (
"513 -100 OFFCURVE",
"561 -79 OFFCURVE",
"603 -39 CURVE",
"593 -25 LINE",
"555 -62 OFFCURVE",
"512 -81 OFFCURVE",
"465 -81 CURVE SMOOTH",
"415 -81 OFFCURVE",
"368 -52 OFFCURVE",
"326 8 CURVE",
"299 3 LINE",
"353 -69 OFFCURVE",
"403 -100 OFFCURVE",
"461 -100 CURVE SMOOTH"
);
},
{
closed = 1;
nodes = (
"144 16 OFFCURVE",
"50 128 OFFCURVE",
"80 279 CURVE SMOOTH",
"110 430 OFFCURVE",
"250 543 OFFCURVE",
"404 543 CURVE SMOOTH",
"559 543 OFFCURVE",
"652 430 OFFCURVE",
"622 279 CURVE SMOOTH",
"592 128 OFFCURVE",
"453 16 OFFCURVE",
"298 16 CURVE SMOOTH"
);
}
);
};
layerId = UUID0;
paths = (
{
closed = 1;
nodes = (
"460 -3 OFFCURVE",
"610 118 OFFCURVE",
"642 280 CURVE SMOOTH",
"674 441 OFFCURVE",
"573 562 OFFCURVE",
"407 562 CURVE SMOOTH",
"241 562 OFFCURVE",
"92 441 OFFCURVE",
"60 280 CURVE SMOOTH",
"28 118 OFFCURVE",
"128 -3 OFFCURVE",
"294 -3 CURVE SMOOTH"
);
},
{
closed = 1;
nodes = (
"513 -100 OFFCURVE",
"561 -79 OFFCURVE",
"603 -39 CURVE",
"593 -25 LINE",
"555 -62 OFFCURVE",
"512 -81 OFFCURVE",
"465 -81 CURVE SMOOTH",
"415 -81 OFFCURVE",
"368 -52 OFFCURVE",
"326 8 CURVE",
"299 3 LINE",
"353 -69 OFFCURVE",
"403 -100 OFFCURVE",
"461 -100 CURVE SMOOTH"
);
},
{
closed = 1;
nodes = (
"144 16 OFFCURVE",
"50 128 OFFCURVE",
"80 279 CURVE SMOOTH",
"110 430 OFFCURVE",
"250 543 OFFCURVE",
"404 543 CURVE SMOOTH",
"559 543 OFFCURVE",
"652 430 OFFCURVE",
"622 279 CURVE SMOOTH",
"592 128 OFFCURVE",
"453 16 OFFCURVE",
"298 16 CURVE SMOOTH"
);
}
);
width = 694;
},
{
anchors = (
{
name = top;
position = "{426, 582}";
}
);
background = {
anchors = (
{
name = top;
position = "{426, 582}";
}
);
paths = (
{
closed = 1;
nodes = (
"502 -15 OFFCURVE",
"671 114 OFFCURVE",
"706 291 CURVE SMOOTH",
"742 468 OFFCURVE",
"624 597 OFFCURVE",
"428 597 CURVE SMOOTH",
"232 597 OFFCURVE",
"63 468 OFFCURVE",
"27 291 CURVE SMOOTH",
"-8 114 OFFCURVE",
"110 -15 OFFCURVE",
"306 -15 CURVE SMOOTH"
);
},
{
closed = 1;
nodes = (
"545 -154 OFFCURVE",
"613 -127 OFFCURVE",
"665 -78 CURVE",
"589 35 LINE",
"562 13 OFFCURVE",
"532 1 OFFCURVE",
"507 1 CURVE SMOOTH",
"474 1 OFFCURVE",
"464 14 OFFCURVE",
"439 75 CURVE",
"191 19 LINE",
"291 -116 OFFCURVE",
"351 -154 OFFCURVE",
"471 -154 CURVE SMOOTH"
);
},
{
closed = 1;
nodes = (
"279 165 OFFCURVE",
"244 217 OFFCURVE",
"259 291 CURVE SMOOTH",
"274 365 OFFCURVE",
"329 417 OFFCURVE",
"392 417 CURVE SMOOTH",
"455 417 OFFCURVE",
"489 365 OFFCURVE",
"474 291 CURVE SMOOTH",
"459 217 OFFCURVE",
"405 165 OFFCURVE",
"342 165 CURVE SMOOTH"
);
}
);
};
layerId = "5DA6E103-6A94-47F2-987D-4952DB8EA68E";
paths = (
{
closed = 1;
nodes = (
"502 -15 OFFCURVE",
"671 114 OFFCURVE",
"706 291 CURVE SMOOTH",
"742 468 OFFCURVE",
"624 597 OFFCURVE",
"428 597 CURVE SMOOTH",
"232 597 OFFCURVE",
"63 468 OFFCURVE",
"27 291 CURVE SMOOTH",
"-8 114 OFFCURVE",
"110 -15 OFFCURVE",
"306 -15 CURVE SMOOTH"
);
},
{
closed = 1;
nodes = (
"545 -154 OFFCURVE",
"613 -127 OFFCURVE",
"665 -78 CURVE",
"589 35 LINE",
"562 13 OFFCURVE",
"532 1 OFFCURVE",
"507 1 CURVE SMOOTH",
"474 1 OFFCURVE",
"464 14 OFFCURVE",
"439 75 CURVE",
"191 19 LINE",
"291 -116 OFFCURVE",
"351 -154 OFFCURVE",
"471 -154 CURVE SMOOTH"
);
},
{
closed = 1;
nodes = (
"279 165 OFFCURVE",
"244 217 OFFCURVE",
"259 291 CURVE SMOOTH",
"274 365 OFFCURVE",
"329 417 OFFCURVE",
"392 417 CURVE SMOOTH",
"455 417 OFFCURVE",
"489 365 OFFCURVE",
"474 291 CURVE SMOOTH",
"459 217 OFFCURVE",
"405 165 OFFCURVE",
"342 165 CURVE SMOOTH"
);
}
);
width = 727;
}
);
leftKerningGroup = o.sc;
leftMetricsKey = o.sc;
widthMetricsKey = o.sc;
rightKerningGroup = o.sc;
userData = {
RMXScaler = {
source = Q;
};
};
},
{
glyphname = r.sc;
lastChange = "2017-09-11 21:11:09 +0000";
layers = (
{
anchors = (
{
name = bottom;
position = "{260, 0}";
},
{
name = top;
position = "{372, 559}";
}
);
background = {
anchors = (
{
name = bottom;
position = "{260, 0}";
},
{
name = top;
position = "{372, 559}";
}
);
paths = (
{
closed = 1;
nodes = (
"90 0 LINE",
"130 200 LINE",
"119 190 LINE",
"302 190 LINE SMOOTH",
"441 190 OFFCURVE",
"539 258 OFFCURVE",
"562 375 CURVE SMOOTH",
"585 491 OFFCURVE",
"515 559 OFFCURVE",
"376 559 CURVE SMOOTH",
"182 559 LINE",
"70 0 LINE"
);
},
{
closed = 1;
nodes = (
"495 0 LINE",
"388 203 LINE",
"364 203 LINE",
"471 0 LINE"
);
},
{
closed = 1;
nodes = (
"200 549 LINE",
"189 540 LINE",
"373 540 LINE SMOOTH",
"504 540 OFFCURVE",
"563 480 OFFCURVE",
"542 375 CURVE SMOOTH",
"521 270 OFFCURVE",
"438 209 OFFCURVE",
"307 209 CURVE SMOOTH",
"123 209 LINE",
"130 200 LINE"
);
}
);
};
layerId = UUID0;
paths = (
{
closed = 1;
nodes = (
"90 0 LINE",
"130 200 LINE",
"119 190 LINE",
"302 190 LINE SMOOTH",
"441 190 OFFCURVE",
"539 258 OFFCURVE",
"562 375 CURVE SMOOTH",
"585 491 OFFCURVE",
"515 559 OFFCURVE",
"376 559 CURVE SMOOTH",
"182 559 LINE",
"70 0 LINE"
);
},
{
closed = 1;
nodes = (
"495 0 LINE",
"388 203 LINE",
"364 203 LINE",
"471 0 LINE"
);
},
{
closed = 1;
nodes = (
"200 549 LINE",
"189 540 LINE",
"373 540 LINE SMOOTH",
"504 540 OFFCURVE",
"563 480 OFFCURVE",
"542 375 CURVE SMOOTH",
"521 270 OFFCURVE",
"438 209 OFFCURVE",
"307 209 CURVE SMOOTH",
"123 209 LINE",
"130 200 LINE"
);
}
);
width = 612;
},
{
anchors = (
{
name = bottom;
position = "{282, 0}";
},
{
name = top;
position = "{398, 582}";
}
);
background = {
anchors = (
{
name = bottom;
position = "{282, 0}";
},
{
name = top;
position = "{398, 582}";
}
);
paths = (
{
closed = 1;
nodes = (
"228 0 LINE",
"274 230 LINE",
"153 138 LINE",
"325 138 LINE SMOOTH",
"493 138 OFFCURVE",
"617 221 OFFCURVE",
"645 358 CURVE SMOOTH",
"672 495 OFFCURVE",
"581 582 OFFCURVE",
"413 582 CURVE SMOOTH",
"114 582 LINE",
"-2 0 LINE"
);
},
{
closed = 1;
nodes = (
"586 0 LINE",
"482 212 LINE",
"239 212 LINE",
"341 0 LINE"
);
},
{
closed = 1;
nodes = (
"330 511 LINE",
"228 413 LINE",
"362 413 LINE SMOOTH",
"406 413 OFFCURVE",
"421 390 OFFCURVE",
"415 358 CURVE SMOOTH",
"408 326 OFFCURVE",
"384 303 OFFCURVE",
"340 303 CURVE SMOOTH",
"206 303 LINE",
"269 205 LINE"
);
}
);
};
layerId = "5DA6E103-6A94-47F2-987D-4952DB8EA68E";
paths = (
{
closed = 1;
nodes = (
"228 0 LINE",
"274 230 LINE",
"153 138 LINE",
"325 138 LINE SMOOTH",
"493 138 OFFCURVE",
"617 221 OFFCURVE",
"645 358 CURVE SMOOTH",
"672 495 OFFCURVE",
"581 582 OFFCURVE",
"413 582 CURVE SMOOTH",
"114 582 LINE",
"-2 0 LINE"
);
},
{
closed = 1;
nodes = (
"586 0 LINE",
"482 212 LINE",
"239 212 LINE",
"341 0 LINE"
);
},
{
closed = 1;
nodes = (
"330 511 LINE",
"228 413 LINE",
"362 413 LINE SMOOTH",
"406 413 OFFCURVE",
"421 390 OFFCURVE",
"415 358 CURVE SMOOTH",
"408 326 OFFCURVE",
"384 303 OFFCURVE",
"340 303 CURVE SMOOTH",
"206 303 LINE",
"269 205 LINE"
);
}
);
width = 661;
}
);
leftKerningGroup = h.sc;
leftMetricsKey = h.sc;
rightKerningGroup = r.sc;
userData = {
RMXScaler = {
source = R;
};
};
},
{
glyphname = s.sc;
lastChange = "2017-09-11 21:11:09 +0000";
layers = (
{
anchors = (
{
name = bottom;
position = "{215, 0}";
},
{
name = top;
position = "{327, 559}";
}
);
background = {
anchors = (
{
name = bottom;
position = "{215, 0}";
},
{
name = top;
position = "{327, 559}";
}
);
paths = (
{
closed = 1;
nodes = (
"427 139 CURVE SMOOTH",
"467 341 OFFCURVE",
"87 235 OFFCURVE",
"124 419 CURVE SMOOTH",
"137 487 OFFCURVE",
"203 543 OFFCURVE",
"321 543 CURVE SMOOTH",
"374 543 OFFCURVE",
"427 529 OFFCURVE",
"465 494 CURVE",
"478 511 LINE",
"444 544 OFFCURVE",
"386 562 OFFCURVE",
"323 562 CURVE SMOOTH",
"189 562 OFFCURVE",
"119 494 OFFCURVE",
"104 420 CURVE SMOOTH",
"63 214 OFFCURVE",
"443 321 OFFCURVE",
"407 138 CURVE SMOOTH",
"393 71 OFFCURVE",
"328 16 OFFCURVE",
"206 16 CURVE SMOOTH",
"128 16 OFFCURVE",
"63 48 OFFCURVE",
"35 90 CURVE",
"19 76 LINE",
"49 30 OFFCURVE",
"120 -3 OFFCURVE",
"203 -3 CURVE SMOOTH",
"338 -3 OFFCURVE",
"412 63 OFFCURVE"
);
}
);
};
layerId = UUID0;
paths = (
{
closed = 1;
nodes = (
"427 139 CURVE SMOOTH",
"467 341 OFFCURVE",
"87 235 OFFCURVE",
"124 419 CURVE SMOOTH",
"137 487 OFFCURVE",
"203 543 OFFCURVE",
"321 543 CURVE SMOOTH",
"374 543 OFFCURVE",
"427 529 OFFCURVE",
"465 494 CURVE",
"478 511 LINE",
"444 544 OFFCURVE",
"386 562 OFFCURVE",
"323 562 CURVE SMOOTH",
"189 562 OFFCURVE",
"119 494 OFFCURVE",
"104 420 CURVE SMOOTH",
"63 214 OFFCURVE",
"443 321 OFFCURVE",
"407 138 CURVE SMOOTH",
"393 71 OFFCURVE",
"328 16 OFFCURVE",
"206 16 CURVE SMOOTH",
"128 16 OFFCURVE",
"63 48 OFFCURVE",
"35 90 CURVE",
"19 76 LINE",
"49 30 OFFCURVE",
"120 -3 OFFCURVE",
"203 -3 CURVE SMOOTH",
"338 -3 OFFCURVE",
"412 63 OFFCURVE"
);
}
);
width = 507;
},
{
anchors = (
{
name = bottom;
position = "{233, 0}";
},
{
name = top;
position = "{349, 582}";
}
);
background = {
anchors = (
{
name = bottom;
position = "{233, 0}";
},
{
name = top;
position = "{349, 582}";
}
);
paths = (
{
closed = 1;
nodes = (
"550 189 CURVE SMOOTH",
"593 404 OFFCURVE",
"262 353 OFFCURVE",
"272 406 CURVE SMOOTH",
"275 420 OFFCURVE",
"296 430 OFFCURVE",
"336 430 CURVE SMOOTH",
"390 430 OFFCURVE",
"445 417 OFFCURVE",
"495 385 CURVE",
"595 546 LINE",
"538 581 OFFCURVE",
"456 597 OFFCURVE",
"377 597 CURVE SMOOTH",
"192 597 OFFCURVE",
"67 506 OFFCURVE",
"45 395 CURVE SMOOTH",
"1 174 OFFCURVE",
"333 229 OFFCURVE",
"321 171 CURVE SMOOTH",
"319 161 OFFCURVE",
"304 152 OFFCURVE",
"263 152 CURVE SMOOTH",
"193 152 OFFCURVE",
"124 171 OFFCURVE",
"72 204 CURVE",
"-34 42 LINE",
"22 8 OFFCURVE",
"120 -15 OFFCURVE",
"217 -15 CURVE SMOOTH",
"412 -15 OFFCURVE",
"528 78 OFFCURVE"
);
}
);
};
layerId = "5DA6E103-6A94-47F2-987D-4952DB8EA68E";
paths = (
{
closed = 1;
nodes = (
"550 189 CURVE SMOOTH",
"593 404 OFFCURVE",
"262 353 OFFCURVE",
"272 406 CURVE SMOOTH",
"275 420 OFFCURVE",
"296 430 OFFCURVE",
"336 430 CURVE SMOOTH",
"390 430 OFFCURVE",
"445 417 OFFCURVE",
"495 385 CURVE",
"595 546 LINE",
"538 581 OFFCURVE",
"456 597 OFFCURVE",
"377 597 CURVE SMOOTH",
"192 597 OFFCURVE",
"67 506 OFFCURVE",
"45 395 CURVE SMOOTH",
"1 174 OFFCURVE",
"333 229 OFFCURVE",
"321 171 CURVE SMOOTH",
"319 161 OFFCURVE",
"304 152 OFFCURVE",
"263 152 CURVE SMOOTH",
"193 152 OFFCURVE",
"124 171 OFFCURVE",
"72 204 CURVE",
"-34 42 LINE",
"22 8 OFFCURVE",
"120 -15 OFFCURVE",
"217 -15 CURVE SMOOTH",
"412 -15 OFFCURVE",
"528 78 OFFCURVE"
);
}
);
width = 574;
}
);
leftKerningGroup = s.sc;
rightKerningGroup = s.sc;
userData = {
RMXScaler = {
source = S;
};
};
},
{
glyphname = t.sc;
lastChange = "2017-09-11 21:11:09 +0000";
layers = (
{
anchors = (
{
name = bottom;
position = "{172, 0}";
},
{
name = center;
position = "{229, 283}";
},
{
name = top;
position = "{284, 559}";
}
);
background = {
anchors = (
{
name = bottom;
position = "{172, 0}";
},
{
name = center;
position = "{229, 283}";
},
{
name = top;
position = "{284, 559}";
}
);
paths = (
{
closed = 1;
nodes = (
"182 0 LINE",
"290 540 LINE",
"500 540 LINE",
"504 559 LINE",
"64 559 LINE",
"60 540 LINE",
"270 540 LINE",
"162 0 LINE"
);
}
);
};
layerId = UUID0;
paths = (
{
closed = 1;
nodes = (
"182 0 LINE",
"290 540 LINE",
"500 540 LINE",
"504 559 LINE",
"64 559 LINE",
"60 540 LINE",
"270 540 LINE",
"162 0 LINE"
);
}
);
width = 448;
},
{
anchors = (
{
name = bottom;
position = "{229, 0}";
},
{
name = center;
position = "{280, 257}";
},
{
name = top;
position = "{345, 582}";
}
);
background = {
anchors = (
{
name = bottom;
position = "{229, 0}";
},
{
name = center;
position = "{280, 257}";
},
{
name = top;
position = "{345, 582}";
}
);
paths = (
{
closed = 1;
nodes = (
"344 0 LINE",
"426 412 LINE",
"592 412 LINE",
"626 582 LINE",
"64 582 LINE",
"30 412 LINE",
"196 412 LINE",
"114 0 LINE"
);
}
);
};
layerId = "5DA6E103-6A94-47F2-987D-4952DB8EA68E";
paths = (
{
closed = 1;
nodes = (
"344 0 LINE",
"426 412 LINE",
"592 412 LINE",
"626 582 LINE",
"64 582 LINE",
"30 412 LINE",
"196 412 LINE",
"114 0 LINE"
);
}
);
width = 568;
}
);
leftKerningGroup = t.sc;
rightKerningGroup = t.sc;
rightMetricsKey = "=|";
userData = {
RMXScaler = {
source = T;
};
};
},
{
glyphname = u.sc;
lastChange = "2017-09-11 21:11:09 +0000";
layers = (
{
anchors = (
{
name = bottom;
position = "{284, 0}";
},
{
name = ogonek;
position = "{435, 0}";
},
{
name = top;
position = "{396, 559}";
},
{
name = topright;
position = "{621, 559}";
}
);
background = {
anchors = (
{
name = bottom;
position = "{284, 0}";
},
{
name = ogonek;
position = "{435, 0}";
},
{
name = top;
position = "{396, 559}";
},
{
name = topright;
position = "{621, 559}";
}
);
paths = (
{
closed = 1;
nodes = (
"551 235 CURVE SMOOTH",
"616 559 LINE",
"596 559 LINE",
"531 236 LINE SMOOTH",
"501 87 OFFCURVE",
"414 16 OFFCURVE",
"287 16 CURVE SMOOTH",
"160 16 OFFCURVE",
"101 87 OFFCURVE",
"131 236 CURVE SMOOTH",
"196 559 LINE",
"176 559 LINE",
"111 235 LINE SMOOTH",
"79 76 OFFCURVE",
"147 -3 OFFCURVE",
"283 -3 CURVE SMOOTH",
"419 -3 OFFCURVE",
"519 76 OFFCURVE"
);
}
);
};
layerId = UUID0;
paths = (
{
closed = 1;
nodes = (
"551 235 CURVE SMOOTH",
"616 559 LINE",
"596 559 LINE",
"531 236 LINE SMOOTH",
"501 87 OFFCURVE",
"414 16 OFFCURVE",
"287 16 CURVE SMOOTH",
"160 16 OFFCURVE",
"101 87 OFFCURVE",
"131 236 CURVE SMOOTH",
"196 559 LINE",
"176 559 LINE",
"111 235 LINE SMOOTH",
"79 76 OFFCURVE",
"147 -3 OFFCURVE",
"283 -3 CURVE SMOOTH",
"419 -3 OFFCURVE",
"519 76 OFFCURVE"
);
}
);
width = 672;
},
{
anchors = (
{
name = bottom;
position = "{294, 0}";
},
{
name = ogonek;
position = "{491, 0}";
},
{
name = top;
position = "{410, 582}";
},
{
name = topright;
position = "{614, 582}";
}
);
background = {
anchors = (
{
name = bottom;
position = "{294, 0}";
},
{
name = ogonek;
position = "{491, 0}";
},
{
name = top;
position = "{410, 582}";
},
{
name = topright;
position = "{614, 582}";
}
);
paths = (
{
closed = 1;
nodes = (
"641 254 CURVE SMOOTH",
"706 582 LINE",
"480 582 LINE",
"416 261 LINE SMOOTH",
"403 197 OFFCURVE",
"374 165 OFFCURVE",
"327 165 CURVE SMOOTH",
"280 165 OFFCURVE",
"262 197 OFFCURVE",
"275 261 CURVE SMOOTH",
"339 582 LINE",
"109 582 LINE",
"44 254 LINE SMOOTH",
"11 92 OFFCURVE",
"100 -15 OFFCURVE",
"289 -15 CURVE SMOOTH",
"478 -15 OFFCURVE",
"608 92 OFFCURVE"
);
}
);
};
layerId = "5DA6E103-6A94-47F2-987D-4952DB8EA68E";
paths = (
{
closed = 1;
nodes = (
"641 254 CURVE SMOOTH",
"706 582 LINE",
"480 582 LINE",
"416 261 LINE SMOOTH",
"403 197 OFFCURVE",
"374 165 OFFCURVE",
"327 165 CURVE SMOOTH",
"280 165 OFFCURVE",
"262 197 OFFCURVE",
"275 261 CURVE SMOOTH",
"339 582 LINE",
"109 582 LINE",
"44 254 LINE SMOOTH",
"11 92 OFFCURVE",
"100 -15 OFFCURVE",
"289 -15 CURVE SMOOTH",
"478 -15 OFFCURVE",
"608 92 OFFCURVE"
);
}
);
width = 693;
}
);
leftKerningGroup = u.sc;
rightKerningGroup = u.sc;
rightMetricsKey = "=|";
userData = {
RMXScaler = {
source = U;
};
};
},
{
glyphname = v.sc;
lastChange = "2017-09-11 21:11:09 +0000";
layers = (
{
background = {
paths = (
{
closed = 1;
nodes = (
"246 0 LINE",
"613 559 LINE",
"590 559 LINE",
"234 15 LINE",
"244 15 LINE",
"106 559 LINE",
"83 559 LINE",
"226 0 LINE"
);
}
);
};
layerId = UUID0;
paths = (
{
closed = 1;
nodes = (
"246 0 LINE",
"613 559 LINE",
"590 559 LINE",
"234 15 LINE",
"244 15 LINE",
"106 559 LINE",
"83 559 LINE",
"226 0 LINE"
);
}
);
width = 576;
},
{
background = {
paths = (
{
closed = 1;
nodes = (
"401 0 LINE",
"764 582 LINE",
"539 582 LINE",
"241 95 LINE",
"383 95 LINE",
"286 582 LINE",
"43 582 LINE",
"175 0 LINE"
);
}
);
};
layerId = "5DA6E103-6A94-47F2-987D-4952DB8EA68E";
paths = (
{
closed = 1;
nodes = (
"401 0 LINE",
"764 582 LINE",
"539 582 LINE",
"241 95 LINE",
"383 95 LINE",
"286 582 LINE",
"43 582 LINE",
"175 0 LINE"
);
}
);
width = 685;
}
);
leftKerningGroup = v.sc;
rightKerningGroup = v.sc;
rightMetricsKey = "=|";
userData = {
RMXScaler = {
source = V;
};
};
},
{
glyphname = w.sc;
lastChange = "2017-09-11 21:11:09 +0000";
layers = (
{
anchors = (
{
name = bottom;
position = "{401, 0}";
},
{
name = top;
position = "{513, 559}";
}
);
background = {
anchors = (
{
name = bottom;
position = "{401, 0}";
},
{
name = top;
position = "{513, 559}";
}
);
paths = (
{
closed = 1;
nodes = (
"213 0 LINE",
"510 537 LINE",
"505 537 LINE",
"589 0 LINE",
"609 0 LINE",
"915 559 LINE",
"894 559 LINE",
"597 15 LINE",
"607 15 LINE",
"523 559 LINE",
"503 559 LINE",
"200 15 LINE",
"211 15 LINE",
"132 559 LINE",
"110 559 LINE",
"192 0 LINE"
);
}
);
};
layerId = UUID0;
paths = (
{
closed = 1;
nodes = (
"213 0 LINE",
"510 537 LINE",
"505 537 LINE",
"589 0 LINE",
"609 0 LINE",
"915 559 LINE",
"894 559 LINE",
"597 15 LINE",
"607 15 LINE",
"523 559 LINE",
"503 559 LINE",
"200 15 LINE",
"211 15 LINE",
"132 559 LINE",
"110 559 LINE",
"192 0 LINE"
);
}
);
width = 905;
},
{
anchors = (
{
name = bottom;
position = "{469, 0}";
},
{
name = top;
position = "{585, 582}";
}
);
background = {
anchors = (
{
name = bottom;
position = "{469, 0}";
},
{
name = top;
position = "{585, 582}";
}
);
paths = (
{
closed = 1;
nodes = (
"386 0 LINE",
"580 384 LINE",
"515 384 LINE",
"551 0 LINE",
"797 0 LINE",
"1101 582 LINE",
"881 582 LINE",
"630 97 LINE",
"743 97 LINE",
"697 582 LINE",
"486 582 LINE",
"233 97 LINE",
"352 97 LINE",
"302 582 LINE",
"68 582 LINE",
"140 0 LINE"
);
}
);
};
layerId = "5DA6E103-6A94-47F2-987D-4952DB8EA68E";
paths = (
{
closed = 1;
nodes = (
"386 0 LINE",
"580 384 LINE",
"515 384 LINE",
"551 0 LINE",
"797 0 LINE",
"1101 582 LINE",
"881 582 LINE",
"630 97 LINE",
"743 97 LINE",
"697 582 LINE",
"486 582 LINE",
"233 97 LINE",
"352 97 LINE",
"302 582 LINE",
"68 582 LINE",
"140 0 LINE"
);
}
);
width = 1047;
}
);
leftKerningGroup = v.sc;
rightKerningGroup = v.sc;
rightMetricsKey = "=|";
userData = {
RMXScaler = {
source = W;
};
};
},
{
glyphname = x.sc;
lastChange = "2017-09-11 21:11:09 +0000";
layers = (
{
background = {
paths = (
{
closed = 1;
nodes = (
"-4 0 LINE",
"264 279 LINE",
"258 279 LINE",
"414 0 LINE",
"438 0 LINE",
"273 294 LINE",
"271 284 LINE",
"534 559 LINE",
"511 559 LINE",
"263 300 LINE",
"269 300 LINE",
"125 559 LINE",
"101 559 LINE",
"255 281 LINE",
"258 297 LINE",
"-27 0 LINE"
);
}
);
};
layerId = UUID0;
paths = (
{
closed = 1;
nodes = (
"-4 0 LINE",
"264 279 LINE",
"258 279 LINE",
"414 0 LINE",
"438 0 LINE",
"273 294 LINE",
"271 284 LINE",
"534 559 LINE",
"511 559 LINE",
"263 300 LINE",
"269 300 LINE",
"125 559 LINE",
"101 559 LINE",
"255 281 LINE",
"258 297 LINE",
"-27 0 LINE"
);
}
);
width = 515;
},
{
background = {
paths = (
{
closed = 1;
nodes = (
"198 0 LINE",
"373 217 LINE",
"266 216 LINE",
"360 0 LINE",
"623 0 LINE",
"425 379 LINE",
"394 223 LINE",
"727 582 LINE",
"480 582 LINE",
"303 373 LINE",
"414 374 LINE",
"316 582 LINE",
"58 582 LINE",
"246 215 LINE",
"278 370 LINE",
"-64 0 LINE"
);
}
);
};
layerId = "5DA6E103-6A94-47F2-987D-4952DB8EA68E";
paths = (
{
closed = 1;
nodes = (
"198 0 LINE",
"373 217 LINE",
"266 216 LINE",
"360 0 LINE",
"623 0 LINE",
"425 379 LINE",
"394 223 LINE",
"727 582 LINE",
"480 582 LINE",
"303 373 LINE",
"414 374 LINE",
"316 582 LINE",
"58 582 LINE",
"246 215 LINE",
"278 370 LINE",
"-64 0 LINE"
);
}
);
width = 669;
}
);
leftKerningGroup = x.sc;
rightKerningGroup = x.sc;
rightMetricsKey = "=|";
userData = {
RMXScaler = {
source = X;
};
};
},
{
glyphname = y.sc;
lastChange = "2017-09-11 21:11:09 +0000";
layers = (
{
anchors = (
{
name = bottom;
position = "{212, 0}";
},
{
name = top;
position = "{324, 559}";
}
);
background = {
anchors = (
{
name = bottom;
position = "{212, 0}";
},
{
name = top;
position = "{324, 559}";
}
);
paths = (
{
closed = 1;
nodes = (
"222 0 LINE",
"260 192 LINE",
"252 177 LINE",
"568 559 LINE",
"545 559 LINE",
"248 199 LINE",
"257 199 LINE",
"103 559 LINE",
"80 559 LINE",
"242 177 LINE",
"240 192 LINE",
"202 0 LINE"
);
}
);
};
layerId = UUID0;
paths = (
{
closed = 1;
nodes = (
"222 0 LINE",
"260 192 LINE",
"252 177 LINE",
"568 559 LINE",
"545 559 LINE",
"248 199 LINE",
"257 199 LINE",
"103 559 LINE",
"80 559 LINE",
"242 177 LINE",
"240 192 LINE",
"202 0 LINE"
);
}
);
width = 528;
},
{
anchors = (
{
name = bottom;
position = "{264, 0}";
},
{
name = top;
position = "{380, 582}";
}
);
background = {
anchors = (
{
name = bottom;
position = "{264, 0}";
},
{
name = top;
position = "{380, 582}";
}
);
paths = (
{
closed = 1;
nodes = (
"379 0 LINE",
"431 261 LINE",
"363 128 LINE",
"726 582 LINE",
"498 582 LINE",
"264 286 LINE",
"392 286 LINE",
"276 582 LINE",
"34 582 LINE",
"217 128 LINE",
"201 261 LINE",
"149 0 LINE"
);
}
);
};
layerId = "5DA6E103-6A94-47F2-987D-4952DB8EA68E";
paths = (
{
closed = 1;
nodes = (
"379 0 LINE",
"431 261 LINE",
"363 128 LINE",
"726 582 LINE",
"498 582 LINE",
"264 286 LINE",
"392 286 LINE",
"276 582 LINE",
"34 582 LINE",
"217 128 LINE",
"201 261 LINE",
"149 0 LINE"
);
}
);
width = 638;
}
);
leftKerningGroup = y.sc;
rightKerningGroup = y.sc;
rightMetricsKey = "=|";
userData = {
RMXScaler = {
source = Y;
};
};
},
{
glyphname = z.sc;
lastChange = "2017-09-11 21:11:09 +0000";
layers = (
{
anchors = (
{
name = bottom;
position = "{227, 0}";
},
{
name = top;
position = "{331, 559}";
}
);
background = {
anchors = (
{
name = bottom;
position = "{227, 0}";
},
{
name = top;
position = "{331, 559}";
}
);
paths = (
{
closed = 1;
nodes = (
"443 0 LINE",
"447 19 LINE",
"21 19 LINE",
"21 12 LINE",
"544 544 LINE",
"547 559 LINE",
"112 559 LINE",
"108 540 LINE",
"521 540 LINE",
"521 547 LINE",
"-1 15 LINE",
"-4 0 LINE"
);
}
);
};
layerId = UUID0;
paths = (
{
closed = 1;
nodes = (
"443 0 LINE",
"447 19 LINE",
"21 19 LINE",
"21 12 LINE",
"544 544 LINE",
"547 559 LINE",
"112 559 LINE",
"108 540 LINE",
"521 540 LINE",
"521 547 LINE",
"-1 15 LINE",
"-4 0 LINE"
);
}
);
width = 528;
},
{
anchors = (
{
name = bottom;
position = "{251, 0}";
},
{
name = top;
position = "{369, 582}";
}
);
background = {
anchors = (
{
name = bottom;
position = "{251, 0}";
},
{
name = top;
position = "{369, 582}";
}
);
paths = (
{
closed = 1;
nodes = (
"531 0 LINE",
"565 169 LINE",
"210 169 LINE",
"223 95 LINE",
"605 446 LINE",
"632 583 LINE",
"99 583 LINE",
"66 413 LINE",
"397 413 LINE",
"384 488 LINE",
"1 137 LINE",
"-26 0 LINE"
);
}
);
};
layerId = "5DA6E103-6A94-47F2-987D-4952DB8EA68E";
paths = (
{
closed = 1;
nodes = (
"531 0 LINE",
"565 169 LINE",
"210 169 LINE",
"223 95 LINE",
"605 446 LINE",
"632 583 LINE",
"99 583 LINE",
"66 413 LINE",
"397 413 LINE",
"384 488 LINE",
"1 137 LINE",
"-26 0 LINE"
);
}
);
width = 602;
}
);
leftKerningGroup = z.sc;
rightKerningGroup = z.sc;
userData = {
RMXScaler = {
source = Z;
};
};
},
{
glyphname = a.sc.ss01;
lastChange = "2017-09-11 21:11:09 +0000";
layers = (
{
anchors = (
{
name = bottom;
position = "{288, 0}";
},
{
name = ogonek;
position = "{512, 0}";
},
{
name = top;
position = "{400, 559}";
},
{
name = topleft;
position = "{148, 559}";
}
);
background = {
anchors = (
{
name = bottom;
position = "{288, 0}";
},
{
name = ogonek;
position = "{512, 0}";
},
{
name = top;
position = "{400, 559}";
},
{
name = topleft;
position = "{148, 559}";
}
);
paths = (
{
closed = 1;
nodes = (
"84 0 LINE",
"149 326 LINE SMOOTH",
"178 471 OFFCURVE",
"270 543 OFFCURVE",
"397 543 CURVE SMOOTH",
"524 543 OFFCURVE",
"586 471 OFFCURVE",
"557 326 CURVE SMOOTH",
"492 0 LINE",
"512 0 LINE",
"577 324 LINE SMOOTH",
"609 483 OFFCURVE",
"536 562 OFFCURVE",
"400 562 CURVE SMOOTH",
"264 562 OFFCURVE",
"161 483 OFFCURVE",
"129 324 CURVE SMOOTH",
"64 0 LINE"
);
},
{
closed = 1;
nodes = (
"536 182 LINE",
"540 201 LINE",
"118 201 LINE",
"114 182 LINE"
);
}
);
};
layerId = UUID0;
paths = (
{
closed = 1;
nodes = (
"84 0 LINE",
"149 326 LINE SMOOTH",
"178 471 OFFCURVE",
"270 543 OFFCURVE",
"397 543 CURVE SMOOTH",
"524 543 OFFCURVE",
"586 471 OFFCURVE",
"557 326 CURVE SMOOTH",
"492 0 LINE",
"512 0 LINE",
"577 324 LINE SMOOTH",
"609 483 OFFCURVE",
"536 562 OFFCURVE",
"400 562 CURVE SMOOTH",
"264 562 OFFCURVE",
"161 483 OFFCURVE",
"129 324 CURVE SMOOTH",
"64 0 LINE"
);
},
{
closed = 1;
nodes = (
"536 182 LINE",
"540 201 LINE",
"118 201 LINE",
"114 182 LINE"
);
}
);
width = 680;
},
{
anchors = (
{
name = bottom;
position = "{295, 0}";
},
{
name = ogonek;
position = "{597, 0}";
},
{
name = top;
position = "{411, 582}";
},
{
name = topleft;
position = "{115, 582}";
}
);
background = {
anchors = (
{
name = bottom;
position = "{295, 0}";
},
{
name = ogonek;
position = "{597, 0}";
},
{
name = top;
position = "{411, 582}";
},
{
name = topleft;
position = "{115, 582}";
}
);
paths = (
{
closed = 1;
nodes = (
"223 0 LINE",
"289 332 LINE SMOOTH",
"301 388 OFFCURVE",
"335 417 OFFCURVE",
"378 417 CURVE SMOOTH",
"421 417 OFFCURVE",
"445 388 OFFCURVE",
"433 332 CURVE SMOOTH",
"367 0 LINE",
"597 0 LINE",
"658 306 LINE SMOOTH",
"695 490 OFFCURVE",
"592 597 OFFCURVE",
"414 597 CURVE SMOOTH",
"236 597 OFFCURVE",
"91 490 OFFCURVE",
"54 306 CURVE SMOOTH",
"-7 0 LINE"
);
},
{
closed = 1;
nodes = (
"469 106 LINE",
"503 274 LINE",
"192 274 LINE",
"158 106 LINE"
);
}
);
};
layerId = "5DA6E103-6A94-47F2-987D-4952DB8EA68E";
paths = (
{
closed = 1;
nodes = (
"223 0 LINE",
"289 332 LINE SMOOTH",
"301 388 OFFCURVE",
"335 417 OFFCURVE",
"378 417 CURVE SMOOTH",
"421 417 OFFCURVE",
"445 388 OFFCURVE",
"433 332 CURVE SMOOTH",
"367 0 LINE",
"597 0 LINE",
"658 306 LINE SMOOTH",
"695 490 OFFCURVE",
"592 597 OFFCURVE",
"414 597 CURVE SMOOTH",
"236 597 OFFCURVE",
"91 490 OFFCURVE",
"54 306 CURVE SMOOTH",
"-7 0 LINE"
);
},
{
closed = 1;
nodes = (
"469 106 LINE",
"503 274 LINE",
"192 274 LINE",
"158 106 LINE"
);
}
);
width = 700;
}
);
leftKerningGroup = a.sc.ss01;
leftMetricsKey = u.sc;
rightKerningGroup = a.sc.ss01;
rightMetricsKey = "=|";
userData = {
RMXScaler = {
source = A.ss01;
};
};
},
{
glyphname = e.sc.ss01;
lastChange = "2017-09-11 21:11:09 +0000";
layers = (
{
anchors = (
{
name = bottom;
position = "{225, 0}";
},
{
name = ogonek;
position = "{409, 0}";
},
{
name = top;
position = "{337, 559}";
},
{
name = topleft;
position = "{118, 559}";
}
);
background = {
anchors = (
{
name = bottom;
position = "{225, 0}";
},
{
name = ogonek;
position = "{409, 0}";
},
{
name = top;
position = "{337, 559}";
},
{
name = topleft;
position = "{118, 559}";
}
);
paths = (
{
closed = 1;
nodes = (
"445 72 CURVE",
"435 87 LINE",
"385 42 OFFCURVE",
"306 16 OFFCURVE",
"219 16 CURVE SMOOTH",
"89 16 OFFCURVE",
"38 70 OFFCURVE",
"54 149 CURVE SMOOTH",
"71 235 OFFCURVE",
"152 275 OFFCURVE",
"255 275 CURVE SMOOTH",
"388 275 LINE",
"392 293 LINE",
"259 293 LINE SMOOTH",
"164 293 OFFCURVE",
"115 337 OFFCURVE",
"131 415 CURVE SMOOTH",
"145 487 OFFCURVE",
"217 543 OFFCURVE",
"337 543 CURVE SMOOTH",
"399 543 OFFCURVE",
"452 527 OFFCURVE",
"495 498 CURVE",
"507 514 LINE",
"469 545 OFFCURVE",
"406 562 OFFCURVE",
"339 562 CURVE SMOOTH",
"208 562 OFFCURVE",
"127 496 OFFCURVE",
"111 416 CURVE SMOOTH",
"94 332 OFFCURVE",
"145 278 OFFCURVE",
"250 278 CURVE",
"249 290 LINE",
"143 290 OFFCURVE",
"52 241 OFFCURVE",
"33 147 CURVE SMOOTH",
"16 61 OFFCURVE",
"74 -3 OFFCURVE",
"214 -3 CURVE SMOOTH",
"308 -3 OFFCURVE",
"393 25 OFFCURVE"
);
}
);
};
layerId = UUID0;
paths = (
{
closed = 1;
nodes = (
"445 72 CURVE",
"435 87 LINE",
"385 42 OFFCURVE",
"306 16 OFFCURVE",
"219 16 CURVE SMOOTH",
"89 16 OFFCURVE",
"38 70 OFFCURVE",
"54 149 CURVE SMOOTH",
"71 235 OFFCURVE",
"152 275 OFFCURVE",
"255 275 CURVE SMOOTH",
"388 275 LINE",
"392 293 LINE",
"259 293 LINE SMOOTH",
"164 293 OFFCURVE",
"115 337 OFFCURVE",
"131 415 CURVE SMOOTH",
"145 487 OFFCURVE",
"217 543 OFFCURVE",
"337 543 CURVE SMOOTH",
"399 543 OFFCURVE",
"452 527 OFFCURVE",
"495 498 CURVE",
"507 514 LINE",
"469 545 OFFCURVE",
"406 562 OFFCURVE",
"339 562 CURVE SMOOTH",
"208 562 OFFCURVE",
"127 496 OFFCURVE",
"111 416 CURVE SMOOTH",
"94 332 OFFCURVE",
"145 278 OFFCURVE",
"250 278 CURVE",
"249 290 LINE",
"143 290 OFFCURVE",
"52 241 OFFCURVE",
"33 147 CURVE SMOOTH",
"16 61 OFFCURVE",
"74 -3 OFFCURVE",
"214 -3 CURVE SMOOTH",
"308 -3 OFFCURVE",
"393 25 OFFCURVE"
);
}
);
width = 519;
},
{
anchors = (
{
name = bottom;
position = "{269, 0}";
},
{
name = ogonek;
position = "{503, 0}";
},
{
name = top;
position = "{385, 582}";
},
{
name = topleft;
position = "{49, 582}";
}
);
background = {
anchors = (
{
name = bottom;
position = "{269, 0}";
},
{
name = ogonek;
position = "{503, 0}";
},
{
name = top;
position = "{385, 582}";
},
{
name = topleft;
position = "{49, 582}";
}
);
paths = (
{
closed = 1;
nodes = (
"550 33 CURVE",
"516 194 LINE",
"463 167 OFFCURVE",
"380 152 OFFCURVE",
"327 152 CURVE SMOOTH",
"250 152 OFFCURVE",
"226 164 OFFCURVE",
"230 185 CURVE SMOOTH",
"233 202 OFFCURVE",
"247 214 OFFCURVE",
"282 214 CURVE SMOOTH",
"478 214 LINE",
"509 372 LINE",
"328 372 LINE SMOOTH",
"300 372 OFFCURVE",
"293 381 OFFCURVE",
"296 397 CURVE SMOOTH",
"300 417 OFFCURVE",
"329 430 OFFCURVE",
"395 430 CURVE SMOOTH",
"444 430 OFFCURVE",
"500 422 OFFCURVE",
"546 398 CURVE",
"640 560 LINE",
"582 582 OFFCURVE",
"503 597 OFFCURVE",
"419 597 CURVE SMOOTH",
"202 597 OFFCURVE",
"88 507 OFFCURVE",
"69 411 CURVE SMOOTH",
"55 339 OFFCURVE",
"98 275 OFFCURVE",
"220 275 CURVE",
"226 323 LINE",
"98 323 OFFCURVE",
"14 254 OFFCURVE",
"-3 170 CURVE SMOOTH",
"-25 62 OFFCURVE",
"71 -15 OFFCURVE",
"285 -15 CURVE SMOOTH",
"377 -15 OFFCURVE",
"478 4 OFFCURVE"
);
}
);
};
layerId = "5DA6E103-6A94-47F2-987D-4952DB8EA68E";
paths = (
{
closed = 1;
nodes = (
"550 33 CURVE",
"516 194 LINE",
"463 167 OFFCURVE",
"380 152 OFFCURVE",
"327 152 CURVE SMOOTH",
"250 152 OFFCURVE",
"226 164 OFFCURVE",
"230 185 CURVE SMOOTH",
"233 202 OFFCURVE",
"247 214 OFFCURVE",
"282 214 CURVE SMOOTH",
"478 214 LINE",
"509 372 LINE",
"328 372 LINE SMOOTH",
"300 372 OFFCURVE",
"293 381 OFFCURVE",
"296 397 CURVE SMOOTH",
"300 417 OFFCURVE",
"329 430 OFFCURVE",
"395 430 CURVE SMOOTH",
"444 430 OFFCURVE",
"500 422 OFFCURVE",
"546 398 CURVE",
"640 560 LINE",
"582 582 OFFCURVE",
"503 597 OFFCURVE",
"419 597 CURVE SMOOTH",
"202 597 OFFCURVE",
"88 507 OFFCURVE",
"69 411 CURVE SMOOTH",
"55 339 OFFCURVE",
"98 275 OFFCURVE",
"220 275 CURVE",
"226 323 LINE",
"98 323 OFFCURVE",
"14 254 OFFCURVE",
"-3 170 CURVE SMOOTH",
"-25 62 OFFCURVE",
"71 -15 OFFCURVE",
"285 -15 CURVE SMOOTH",
"377 -15 OFFCURVE",
"478 4 OFFCURVE"
);
}
);
width = 606;
}
);
leftKerningGroup = e.sc.ss01;
leftMetricsKey = "=|b.sc";
rightKerningGroup = e.sc.ss01;
userData = {
RMXScaler = {
source = E.ss01;
};
};
},
{
glyphname = f.sc.ss01;
lastChange = "2017-09-11 21:11:09 +0000";
layers = (
{
background = {
paths = (
{
closed = 1;
nodes = (
"84 0 LINE",
"160 381 LINE SMOOTH",
"180 482 OFFCURVE",
"250 543 OFFCURVE",
"374 543 CURVE SMOOTH",
"433 543 OFFCURVE",
"483 529 OFFCURVE",
"518 497 CURVE",
"533 514 LINE",
"497 547 OFFCURVE",
"441 562 OFFCURVE",
"377 562 CURVE SMOOTH",
"240 562 OFFCURVE",
"162 490 OFFCURVE",
"141 383 CURVE SMOOTH",
"64 0 LINE"
);
},
{
closed = 1;
nodes = (
"428 258 LINE",
"431 277 LINE",
"135 277 LINE",
"132 258 LINE"
);
}
);
};
layerId = UUID0;
paths = (
{
closed = 1;
nodes = (
"84 0 LINE",
"160 381 LINE SMOOTH",
"180 482 OFFCURVE",
"250 543 OFFCURVE",
"374 543 CURVE SMOOTH",
"433 543 OFFCURVE",
"483 529 OFFCURVE",
"518 497 CURVE",
"533 514 LINE",
"497 547 OFFCURVE",
"441 562 OFFCURVE",
"377 562 CURVE SMOOTH",
"240 562 OFFCURVE",
"162 490 OFFCURVE",
"141 383 CURVE SMOOTH",
"64 0 LINE"
);
},
{
closed = 1;
nodes = (
"428 258 LINE",
"431 277 LINE",
"135 277 LINE",
"132 258 LINE"
);
}
);
width = 503;
},
{
background = {
paths = (
{
closed = 1;
nodes = (
"223 0 LINE",
"289 330 LINE SMOOTH",
"302 395 OFFCURVE",
"349 418 OFFCURVE",
"405 418 CURVE SMOOTH",
"440 418 OFFCURVE",
"473 411 OFFCURVE",
"501 395 CURVE",
"600 563 LINE",
"562 584 OFFCURVE",
"500 597 OFFCURVE",
"428 597 CURVE SMOOTH",
"230 597 OFFCURVE",
"92 496 OFFCURVE",
"57 322 CURVE SMOOTH",
"-7 0 LINE"
);
},
{
closed = 1;
nodes = (
"452 174 LINE",
"485 339 LINE",
"202 339 LINE",
"169 174 LINE"
);
}
);
};
layerId = "5DA6E103-6A94-47F2-987D-4952DB8EA68E";
paths = (
{
closed = 1;
nodes = (
"223 0 LINE",
"289 330 LINE SMOOTH",
"302 395 OFFCURVE",
"349 418 OFFCURVE",
"405 418 CURVE SMOOTH",
"440 418 OFFCURVE",
"473 411 OFFCURVE",
"501 395 CURVE",
"600 563 LINE",
"562 584 OFFCURVE",
"500 597 OFFCURVE",
"428 597 CURVE SMOOTH",
"230 597 OFFCURVE",
"92 496 OFFCURVE",
"57 322 CURVE SMOOTH",
"-7 0 LINE"
);
},
{
closed = 1;
nodes = (
"452 174 LINE",
"485 339 LINE",
"202 339 LINE",
"169 174 LINE"
);
}
);
width = 549;
}
);
leftKerningGroup = f.ss01.sc;
leftMetricsKey = "=|u.sc";
rightKerningGroup = f.sc;
userData = {
RMXScaler = {
source = F.ss01;
};
};
},
{
color = 8;
glyphname = g.sc.ss01;
lastChange = "2017-09-11 21:11:09 +0000";
layers = (
{
anchors = (
{
name = bottom;
position = "{282, 0}";
},
{
name = top;
position = "{395, 559}";
}
);
background = {
anchors = (
{
name = bottom;
position = "{282, 0}";
},
{
name = top;
position = "{395, 559}";
}
);
paths = (
{
closed = 1;
nodes = (
"359 -3 OFFCURVE",
"440 23 OFFCURVE",
"505 81 CURVE",
"501 99 LINE",
"437 42 OFFCURVE",
"359 16 OFFCURVE",
"290 16 CURVE SMOOTH",
"156 16 OFFCURVE",
"47 114 OFFCURVE",
"80 279 CURVE SMOOTH",
"110 429 OFFCURVE",
"250 543 OFFCURVE",
"407 543 CURVE SMOOTH",
"478 543 OFFCURVE",
"535 524 OFFCURVE",
"577 476 CURVE",
"592 490 LINE",
"553 538 OFFCURVE",
"487 562 OFFCURVE",
"410 562 CURVE SMOOTH",
"241 562 OFFCURVE",
"92 441 OFFCURVE",
"60 279 CURVE SMOOTH",
"24 98 OFFCURVE",
"144 -3 OFFCURVE",
"286 -3 CURVE SMOOTH"
);
},
{
closed = 1;
nodes = (
"494 0 LINE",
"549 275 LINE",
"530 275 LINE",
"491 80 LINE",
"491 77 LINE",
"476 0 LINE"
);
}
);
};
layerId = UUID0;
paths = (
{
closed = 1;
nodes = (
"359 -3 OFFCURVE",
"440 23 OFFCURVE",
"505 81 CURVE",
"501 99 LINE",
"437 42 OFFCURVE",
"359 16 OFFCURVE",
"290 16 CURVE SMOOTH",
"156 16 OFFCURVE",
"47 114 OFFCURVE",
"80 279 CURVE SMOOTH",
"110 429 OFFCURVE",
"250 543 OFFCURVE",
"407 543 CURVE SMOOTH",
"478 543 OFFCURVE",
"535 524 OFFCURVE",
"577 476 CURVE",
"592 490 LINE",
"553 538 OFFCURVE",
"487 562 OFFCURVE",
"410 562 CURVE SMOOTH",
"241 562 OFFCURVE",
"92 441 OFFCURVE",
"60 279 CURVE SMOOTH",
"24 98 OFFCURVE",
"144 -3 OFFCURVE",
"286 -3 CURVE SMOOTH"
);
},
{
closed = 1;
nodes = (
"494 0 LINE",
"549 275 LINE",
"530 275 LINE",
"491 80 LINE",
"491 77 LINE",
"476 0 LINE"
);
}
);
width = 647;
},
{
anchors = (
{
name = bottom;
position = "{298, 3}";
},
{
name = top;
position = "{427, 583}";
}
);
background = {
anchors = (
{
name = bottom;
position = "{298, 3}";
},
{
name = top;
position = "{427, 583}";
}
);
paths = (
{
closed = 1;
nodes = (
"385 -15 OFFCURVE",
"480 35 OFFCURVE",
"541 148 CURVE",
"458 225 LINE",
"432 182 OFFCURVE",
"388 161 OFFCURVE",
"340 161 CURVE SMOOTH",
"280 161 OFFCURVE",
"240 197 OFFCURVE",
"257 279 CURVE SMOOTH",
"275 371 OFFCURVE",
"327 417 OFFCURVE",
"402 417 CURVE SMOOTH",
"449 417 OFFCURVE",
"485 397 OFFCURVE",
"511 354 CURVE",
"687 479 LINE",
"642 556 OFFCURVE",
"561 597 OFFCURVE",
"438 597 CURVE SMOOTH",
"232 597 OFFCURVE",
"63 468 OFFCURVE",
"25 281 CURVE SMOOTH",
"-11 102 OFFCURVE",
"97 -15 OFFCURVE",
"277 -15 CURVE SMOOTH"
);
},
{
closed = 1;
nodes = (
"571 0 LINE",
"632 304 LINE",
"433 304 LINE",
"391 97 LINE",
"447 74 LINE",
"432 0 LINE"
);
}
);
};
layerId = "5DA6E103-6A94-47F2-987D-4952DB8EA68E";
paths = (
{
closed = 1;
nodes = (
"385 -15 OFFCURVE",
"480 35 OFFCURVE",
"541 148 CURVE",
"458 225 LINE",
"432 182 OFFCURVE",
"388 161 OFFCURVE",
"340 161 CURVE SMOOTH",
"280 161 OFFCURVE",
"240 197 OFFCURVE",
"257 279 CURVE SMOOTH",
"275 371 OFFCURVE",
"327 417 OFFCURVE",
"402 417 CURVE SMOOTH",
"449 417 OFFCURVE",
"485 397 OFFCURVE",
"511 354 CURVE",
"687 479 LINE",
"642 556 OFFCURVE",
"561 597 OFFCURVE",
"438 597 CURVE SMOOTH",
"232 597 OFFCURVE",
"63 468 OFFCURVE",
"25 281 CURVE SMOOTH",
"-11 102 OFFCURVE",
"97 -15 OFFCURVE",
"277 -15 CURVE SMOOTH"
);
},
{
closed = 1;
nodes = (
"571 0 LINE",
"632 304 LINE",
"433 304 LINE",
"391 97 LINE",
"447 74 LINE",
"432 0 LINE"
);
}
);
width = 666;
},
{
anchors = (
{
name = bottom;
position = "{348, 2}";
},
{
name = top;
position = "{359, 577}";
}
);
associatedMasterId = UUID0;
background = {
paths = (
{
closed = 1;
nodes = (
"560 148 CURVE",
"483 196 LINE",
"458 150 OFFCURVE",
"410 128 OFFCURVE",
"356 128 CURVE SMOOTH",
"280 128 OFFCURVE",
"214 178 OFFCURVE",
"214 279 CURVE SMOOTH",
"214 384 OFFCURVE",
"274 446 OFFCURVE",
"368 446 CURVE SMOOTH",
"421 446 OFFCURVE",
"466 426 OFFCURVE",
"504 382 CURVE",
"623 482 LINE",
"565 552 OFFCURVE",
"481 589 OFFCURVE",
"368 589 CURVE SMOOTH",
"171 589 OFFCURVE",
"31 462 OFFCURVE",
"31 281 CURVE SMOOTH",
"31 101 OFFCURVE",
"166 -12 OFFCURVE",
"328 -12 CURVE SMOOTH",
"436 -12 OFFCURVE",
"518 32 OFFCURVE"
);
},
{
closed = 1;
nodes = (
"607 0 LINE",
"607 297 LINE",
"450 297 LINE",
"450 93 LINE",
"489 75 LINE",
"489 0 LINE"
);
}
);
};
layerId = "85BD21C6-D996-4154-A41A-0C544BF120B2";
name = "{170}";
paths = (
{
closed = 1;
nodes = (
"436 -12 OFFCURVE",
"510 16 OFFCURVE",
"570 128 CURVE",
"483 196 LINE",
"458 150 OFFCURVE",
"410 128 OFFCURVE",
"356 128 CURVE SMOOTH",
"280 128 OFFCURVE",
"214 178 OFFCURVE",
"214 279 CURVE SMOOTH",
"214 384 OFFCURVE",
"274 446 OFFCURVE",
"368 446 CURVE SMOOTH",
"421 446 OFFCURVE",
"466 426 OFFCURVE",
"504 382 CURVE",
"623 482 LINE",
"565 552 OFFCURVE",
"481 589 OFFCURVE",
"368 589 CURVE SMOOTH",
"171 589 OFFCURVE",
"31 462 OFFCURVE",
"31 281 CURVE SMOOTH",
"31 101 OFFCURVE",
"163 -12 OFFCURVE",
"338 -12 CURVE SMOOTH"
);
},
{
closed = 1;
nodes = (
"607 0 LINE",
"607 297 LINE",
"450 297 LINE",
"450 93 LINE",
"476 75 LINE",
"476 0 LINE"
);
}
);
width = 649;
}
);
leftKerningGroup = o.sc;
leftMetricsKey = o.sc;
rightKerningGroup = g.sc;
userData = {
RMXScaler = {
source = G.ss01;
};
};
},
{
glyphname = i.sc.ss01;
lastChange = "2017-09-11 21:11:09 +0000";
layers = (
{
anchors = (
{
name = bottom;
position = "{149, 0}";
},
{
name = ogonek;
position = "{159, 0}";
},
{
name = top;
position = "{261, 559}";
},
{
name = topleft;
position = "{94, 559}";
}
);
background = {
anchors = (
{
name = bottom;
position = "{149, 0}";
},
{
name = ogonek;
position = "{159, 0}";
},
{
name = top;
position = "{261, 559}";
},
{
name = topleft;
position = "{94, 559}";
}
);
paths = (
{
closed = 1;
nodes = (
"161 8 LINE",
"269 551 LINE",
"249 551 LINE",
"141 8 LINE"
);
},
{
closed = 1;
nodes = (
"282 0 LINE",
"286 19 LINE",
"20 19 LINE",
"16 0 LINE"
);
},
{
closed = 1;
nodes = (
"390 540 LINE",
"394 559 LINE",
"128 559 LINE",
"124 540 LINE"
);
}
);
};
layerId = UUID0;
paths = (
{
closed = 1;
nodes = (
"161 8 LINE",
"269 551 LINE",
"249 551 LINE",
"141 8 LINE"
);
},
{
closed = 1;
nodes = (
"282 0 LINE",
"286 19 LINE",
"20 19 LINE",
"16 0 LINE"
);
},
{
closed = 1;
nodes = (
"390 540 LINE",
"394 559 LINE",
"128 559 LINE",
"124 540 LINE"
);
}
);
width = 402;
},
{
anchors = (
{
name = bottom;
position = "{181, 0}";
},
{
name = ogonek;
position = "{296, 0}";
},
{
name = top;
position = "{297, 582}";
},
{
name = topleft;
position = "{51, 582}";
}
);
background = {
anchors = (
{
name = bottom;
position = "{181, 0}";
},
{
name = ogonek;
position = "{296, 0}";
},
{
name = top;
position = "{297, 582}";
},
{
name = topleft;
position = "{51, 582}";
}
);
paths = (
{
closed = 1;
nodes = (
"300 18 LINE",
"409 565 LINE",
"179 565 LINE",
"70 18 LINE"
);
},
{
closed = 1;
nodes = (
"378 0 LINE",
"411 165 LINE",
"17 165 LINE",
"-16 0 LINE"
);
},
{
closed = 1;
nodes = (
"461 417 LINE",
"494 582 LINE",
"100 582 LINE",
"67 417 LINE"
);
}
);
};
layerId = "5DA6E103-6A94-47F2-987D-4952DB8EA68E";
paths = (
{
closed = 1;
nodes = (
"300 18 LINE",
"409 565 LINE",
"179 565 LINE",
"70 18 LINE"
);
},
{
closed = 1;
nodes = (
"378 0 LINE",
"411 165 LINE",
"17 165 LINE",
"-16 0 LINE"
);
},
{
closed = 1;
nodes = (
"461 417 LINE",
"494 582 LINE",
"100 582 LINE",
"67 417 LINE"
);
}
);
width = 472;
}
);
leftKerningGroup = i.sc.ss01;
rightKerningGroup = i.sc.ss01;
rightMetricsKey = "=|";
userData = {
RMXScaler = {
source = I.ss01;
};
};
},
